{
copyright = "Copyright 2014 Eczar Project Authors (info@rosettatype.com)";
customParameters = (
{
name = openTypeOS2VendorID;
value = " RST";
},
{
name = glyphOrder;
value = (
    ".notdef",
    NULL,
    CR,
    space,
    nbspace,
    enspace,
    emspace,
    thinspace,
    exclam,
    quotedbl,
    numbersign,
    dollar,
    percent,
    ampersand,
    quotesingle,
    parenleft,
    parenright,
    asterisk,
    plus,
    comma,
    hyphen,
    period,
    slash,
    zero,
    one,
    two,
    three,
    four,
    five,
    six,
    seven,
    eight,
    nine,
    colon,
    semicolon,
    less,
    equal,
    greater,
    question,
    at,
    A,
    B,
    C,
    D,
    E,
    F,
    G,
    H,
    I,
    J,
    K,
    L,
    M,
    N,
    O,
    P,
    Q,
    R,
    S,
    T,
    U,
    V,
    W,
    X,
    Y,
    Z,
    bracketleft,
    backslash,
    bracketright,
    asciicircum,
    underscore,
    grave,
    a,
    b,
    c,
    d,
    e,
    f,
    g,
    h,
    i,
    j,
    k,
    l,
    m,
    n,
    o,
    p,
    q,
    r,
    s,
    t,
    u,
    v,
    w,
    x,
    y,
    z,
    braceleft,
    bar,
    braceright,
    asciitilde,
    exclamdown,
    cent,
    sterling,
    currency,
    yen,
    brokenbar,
    section,
    dieresis,
    copyright,
    ordfeminine,
    guillemetleft,
    logicalnot,
    softhyphen,
    registered,
    macron,
    degree,
    plusminus,
    twosuperior,
    threesuperior,
    foursuperior,
    acute,
    micro,
    paragraph,
    periodcentered,
    cedilla,
    onesuperior,
    ordmasculine,
    guillemetright,
    onequarter,
    onehalf,
    threequarters,
    questiondown,
    Agrave,
    Aacute,
    Acircumflex,
    Atilde,
    Adieresis,
    Aring,
    AE,
    Ccedilla,
    Egrave,
    Eacute,
    Ecircumflex,
    Edieresis,
    Igrave,
    Iacute,
    Icircumflex,
    Idieresis,
    Eth,
    Ntilde,
    Ograve,
    Oacute,
    Ocircumflex,
    Otilde,
    Odieresis,
    multiply,
    Oslash,
    Ugrave,

glyphs = (
{
glyphname = .notdef;
layers = (
{
layerId = "E25E64E2-9639-43F9-BB85-44020EE7B81E";
name = Regular;
paths = (
{
closed = 1;
nodes = (
"47 23 LINE",
"465 23 LINE",
"465 458 LINE",
"47 458 LINE"
);
},
{
closed = 1;
nodes = (
"170 328 LINE",
"344 328 LINE",
"344 154 LINE",
"170 154 LINE"
);
}
);
width = 512;
}
);
},
{
color = 3;
glyphname = exclam;
layers = (
{
layerId = "E25E64E2-9639-43F9-BB85-44020EE7B81E";
name = Regular;
paths = (
{
closed = 1;
nodes = (
"251 266 LINE",
"301 715 LINE",
"242 742 OFFCURVE",
"132 740 OFFCURVE",
"66 717 CURVE",
"114 266 LINE"
);
},
{
closed = 1;
nodes = (
"127 173 OFFCURVE",
"89 132 OFFCURVE",
"81 73 CURVE",
"105 27 OFFCURVE",
"143 -3 OFFCURVE",
"196 -20 CURVE",
"243 4 OFFCURVE",
"274 42 OFFCURVE",
"289 90 CURVE",
"274 139 OFFCURVE",
"230 179 OFFCURVE",
"179 202 CURVE"
);
}
);
width = 366;
}
);
unicode = 0021;
},
{
color = 3;
glyphname = quotedbl;
layers = (
{
layerId = "E25E64E2-9639-43F9-BB85-44020EE7B81E";
name = Regular;
paths = (
{
closed = 1;
nodes = (
"114 384 LINE",
"181 461 OFFCURVE",
"232 604 OFFCURVE",
"224 669 CURVE",
"100 693 LINE",
"47 636 LINE",
"53 593 OFFCURVE",
"36 497 OFFCURVE",
"6 424 CURVE"
);
},
{
closed = 1;
nodes = (
"363 384 LINE",
"430 461 OFFCURVE",
"481 604 OFFCURVE",
"473 669 CURVE",
"349 693 LINE",
"296 636 LINE",
"302 593 OFFCURVE",
"285 497 OFFCURVE",
"255 424 CURVE"
);
}
);
width = 475;
}
);
unicode = 0022;
},
{
color = 3;
glyphname = numbersign;
layers = (
{
layerId = "E25E64E2-9639-43F9-BB85-44020EE7B81E";
name = Regular;
paths = (
{
closed = 1;
nodes = (
"125 0 LINE",
"224 -12 LINE",
"305 519 LINE",
"206 530 LINE"
);
},
{
closed = 1;
nodes = (
"321 0 LINE",
"420 -12 LINE",
"501 519 LINE",
"402 530 LINE"
);
},
{
closed = 1;
nodes = (
"81 313 LINE",
"569 313 LINE",
"569 407 LINE",
"81 407 LINE"
);
},
{
closed = 1;
nodes = (
"52 117 LINE",
"540 117 LINE",
"540 212 LINE",
"52 212 LINE"
);
}
);
width = 621;
}
);
leftMetricsKey = minus;
rightMetricsKey = minus;
unicode = 0023;
},
{
color = 3;
glyphname = dollar;
layers = (
{
components = (
{
name = S;
}
);
layerId = "E25E64E2-9639-43F9-BB85-44020EE7B81E";
name = Regular;
paths = (
{
closed = 1;
nodes = (
"248 633 LINE",
"390 633 LINE",
"390 785 LINE",
"248 785 LINE"
);
},
{
closed = 1;
nodes = (
"391 -145 LINE",
"391 35 LINE",
"248 35 LINE",
"248 -145 LINE"
);
}
);
width = 621;
}
);
leftKerningGroup = S;
leftMetricsKey = S;
rightKerningGroup = S;
rightMetricsKey = S;
unicode = 0024;
},
{
color = 3;
glyphname = percent;
layers = (
{
layerId = "E25E64E2-9639-43F9-BB85-44020EE7B81E";
name = Regular;
paths = (
{
closed = 1;
nodes = (
"221 -30 LINE",
"679 545 LINE",
"600 608 LINE",
"142 34 LINE"
);
},
{
closed = 1;
nodes = (
"172 350 OFFCURVE",
"150 391 OFFCURVE",
"150 434 CURVE SMOOTH",
"150 461 OFFCURVE",
"159 489 OFFCURVE",
"174 507 CURVE",
"225 524 OFFCURVE",
"249 480 OFFCURVE",
"249 433 CURVE SMOOTH",
"249 405 OFFCURVE",
"240 375 OFFCURVE",
"223 358 CURVE"
);
},
{
closed = 1;
nodes = (
"36 336 OFFCURVE",
"114 258 OFFCURVE",
"206 258 CURVE SMOOTH",
"299 258 OFFCURVE",
"367 337 OFFCURVE",
"367 431 CURVE SMOOTH",
"367 529 OFFCURVE",
"293 613 OFFCURVE",
"201 613 CURVE SMOOTH",
"108 613 OFFCURVE",
"36 528 OFFCURVE",
"36 433 CURVE SMOOTH"
);
},
{
closed = 1;
nodes = (
"602 72 OFFCURVE",
"580 112 OFFCURVE",
"580 155 CURVE SMOOTH",
"580 183 OFFCURVE",
"589 210 OFFCURVE",
"604 229 CURVE",
"655 245 OFFCURVE",
"679 202 OFFCURVE",
"679 155 CURVE SMOOTH",
"679 126 OFFCURVE",
"670 97 OFFCURVE",
"653 79 CURVE"
);
},
{
closed = 1;
nodes = (
"466 57 OFFCURVE",
"544 -20 OFFCURVE",
"636 -20 CURVE SMOOTH",
"729 -20 OFFCURVE",
"797 59 OFFCURVE",
"797 153 CURVE SMOOTH",
"797 250 OFFCURVE",
"723 334 OFFCURVE",
"631 334 CURVE SMOOTH",
"538 334 OFFCURVE",
"466 249 OFFCURVE",
"466 155 CURVE SMOOTH"
);
}
);
width = 833;
}
);
unicode = 0025;
},
{
color = 3;
glyphname = ampersand;
layers = (
{
layerId = "E25E64E2-9639-43F9-BB85-44020EE7B81E";
name = Regular;
paths = (
{
closed = 1;
nodes = (
"269 373 LINE",
"225 395 OFFCURVE",
"207 435 OFFCURVE",
"207 466 CURVE SMOOTH",
"207 504 OFFCURVE",
"234 539 OFFCURVE",
"263 550 CURVE",
"441 469 LINE",
"502 622 LINE",
"437 653 OFFCURVE",
"351 668 OFFCURVE",
"283 668 CURVE SMOOTH",
"116 668 OFFCURVE",
"30 577 OFFCURVE",
"30 491 CURVE SMOOTH",
"30 420 OFFCURVE",
"88 351 OFFCURVE",
"215 339 CURVE"
);
},
{
closed = 1;
nodes = (
"402 371 LINE",
"449 337 OFFCURVE",
"473 277 OFFCURVE",
"473 220 CURVE SMOOTH",
"473 175 OFFCURVE",
"458 133 OFFCURVE",
"425 105 CURVE",
"400 89 OFFCURVE",
"358 81 OFFCURVE",
"326 81 CURVE SMOOTH",
"256 81 OFFCURVE",
"190 116 OFFCURVE",
"190 184 CURVE SMOOTH",
"190 241 OFFCURVE",
"238 280 OFFCURVE",
"316 278 CURVE",
"335 360 LINE",
"201 413 LINE",
"195 386 LINE",
"105 382 OFFCURVE",
"9 322 OFFCURVE",
"9 207 CURVE SMOOTH",
"9 67 OFFCURVE",
"148 -29 OFFCURVE",
"327 -29 CURVE SMOOTH",
"519 -29 OFFCURVE",
"631 83 OFFCURVE",
"631 226 CURVE SMOOTH",
"631 291 OFFCURVE",
"608 364 OFFCURVE",
"556 419 CURVE"
);
},
{
closed = 1;
nodes = (
"401 281 LINE",
"557 388 OFFCURVE",
"626 355 OFFCURVE",
"707 300 CURVE",
"756 433 LINE",
"674 521 OFFCURVE",
"541 474 OFFCURVE",
"359 359 CURVE"
);
}
);
width = 712;
}
);
unicode = 0026;
},
{
color = 3;
glyphname = quotesingle;
layers = (
{
layerId = "E25E64E2-9639-43F9-BB85-44020EE7B81E";
name = Regular;
paths = (
{
closed = 1;
nodes = (
"79 450 LINE",
"134 520 OFFCURVE",
"179 654 OFFCURVE",
"173 735 CURVE",
"49 751 LINE",
"-3 694 LINE",
"3 651 OFFCURVE",
"2 563 OFFCURVE",
"-28 490 CURVE"
);
}
);
width = 192;
}
);
unicode = 0027;
},
{
color = 3;
glyphname = parenleft;
layers = (
{
layerId = "E25E64E2-9639-43F9-BB85-44020EE7B81E";
name = Regular;
paths = (
{
closed = 1;
nodes = (
"344 -88 LINE",
"278 50 OFFCURVE",
"235 177 OFFCURVE",
"235 310 CURVE SMOOTH",
"235 430 OFFCURVE",
"272 544 OFFCURVE",
"345 666 CURVE",
"229 732 LINE",
"95 601 OFFCURVE",
"33 461 OFFCURVE",
"33 306 CURVE SMOOTH",
"33 137 OFFCURVE",
"105 -16 OFFCURVE",
"226 -155 CURVE"
);
}
);
width = 386;
}
);
unicode = 0028;
},
{
color = 3;
glyphname = parenright;
layers = (
{
layerId = "E25E64E2-9639-43F9-BB85-44020EE7B81E";
name = Regular;
paths = (
{
closed = 1;
nodes = (
"281 -16 OFFCURVE",
"353 137 OFFCURVE",
"353 306 CURVE SMOOTH",
"353 461 OFFCURVE",
"291 601 OFFCURVE",
"157 732 CURVE",
"41 666 LINE",
"114 544 OFFCURVE",
"151 430 OFFCURVE",
"151 310 CURVE SMOOTH",
"151 177 OFFCURVE",
"108 50 OFFCURVE",
"42 -88 CURVE",
"160 -155 LINE"
);
}
);
width = 386;
}
);
unicode = 0029;
},
{
color = 3;
glyphname = asterisk;
layers = (
{
layerId = "E25E64E2-9639-43F9-BB85-44020EE7B81E";
name = Regular;
paths = (
{
closed = 1;
nodes = (
"-19 622 LINE",
"127 577 LINE",
"154 649 LINE",
"25 781 LINE"
);
},
{
closed = 1;
nodes = (
"138 818 LINE",
"137 665 LINE",
"214 660 LINE",
"302 821 LINE"
);
},
{
closed = 1;
nodes = (
"373 730 LINE",
"228 680 LINE",
"250 607 LINE",
"429 577 LINE"
);
},
{
closed = 1;
nodes = (
"365 479 LINE",
"275 602 LINE",
"211 560 LINE",
"235 379 LINE"
);
},
{
closed = 1;
nodes = (
"122 416 LINE",
"213 541 LINE",
"153 589 LINE",
"-11 513 LINE"
);
}
);
width = 434;
}
);
unicode = 002A;
},
{
color = 3;
glyphname = plus;
layers = (
{
layerId = "E25E64E2-9639-43F9-BB85-44020EE7B81E";
name = Regular;
paths = (
{
closed = 1;
nodes = (
"343 320 LINE",
"343 499 LINE",
"226 499 LINE",
"226 320 LINE",
"52 320 LINE",
"52 210 LINE",
"226 210 LINE",
"226 32 LINE",
"343 32 LINE",
"343 210 LINE",
"517 210 LINE",
"517 320 LINE"
);
}
);
width = 569;
}
);
leftMetricsKey = minus;
rightMetricsKey = minus;
unicode = 002B;
},
{
color = 3;
glyphname = comma;
layers = (
{
layerId = "E25E64E2-9639-43F9-BB85-44020EE7B81E";
name = Regular;
paths = (
{
closed = 1;
nodes = (
"98 -140 LINE",
"186 -104 OFFCURVE",
"270 -12 OFFCURVE",
"270 70 CURVE SMOOTH",
"270 123 OFFCURVE",
"237 172 OFFCURVE",
"163 201 CURVE",
"114 174 OFFCURVE",
"75 133 OFFCURVE",
"66 74 CURVE",
"120 27 LINE",
"118 -5 OFFCURVE",
"90 -52 OFFCURVE",
"51 -85 CURVE"
);
}
);
width = 329;
}
);
unicode = 002C;
},
{
color = 3;
glyphname = hyphen;
layers = (
{
layerId = "E25E64E2-9639-43F9-BB85-44020EE7B81E";
name = Regular;
paths = (
{
closed = 1;
nodes = (
"419 213 LINE",
"444 262 LINE",
"379 365 LINE",
"59 365 LINE",
"34 316 LINE",
"99 213 LINE"
);
}
);
width = 500;
}
);
unicode = 002D;
},
{
color = 3;
glyphname = period;
layers = (
{
layerId = "E25E64E2-9639-43F9-BB85-44020EE7B81E";
name = Regular;
paths = (
{
closed = 1;
nodes = (
"263 -19 OFFCURVE",
"303 33 OFFCURVE",
"320 77 CURVE",
"296 109 OFFCURVE",
"245 155 OFFCURVE",
"201 173 CURVE",
"163 151 OFFCURVE",
"125 99 OFFCURVE",
"101 51 CURVE",
"127 15 OFFCURVE",
"186 -29 OFFCURVE",
"225 -45 CURVE"
);
}
);
width = 320;
}
);
unicode = 002E;
},
{
color = 3;
glyphname = slash;
layers = (
{
layerId = "E25E64E2-9639-43F9-BB85-44020EE7B81E";
name = Regular;
paths = (
{
closed = 1;
nodes = (
"125 -119 LINE",
"431 688 LINE",
"315 739 LINE",
"7 -70 LINE"
);
}
);
width = 428;
}
);
unicode = 002F;
},
{
color = 3;
glyphname = zero;
layers = (
{
layerId = "E25E64E2-9639-43F9-BB85-44020EE7B81E";
name = Regular;
paths = (
{
closed = 1;
nodes = (
"17 140 OFFCURVE",
"124 -17 OFFCURVE",
"310 -17 CURVE SMOOTH",
"492 -17 OFFCURVE",
"596 132 OFFCURVE",
"596 327 CURVE SMOOTH",
"596 546 OFFCURVE",
"460 668 OFFCURVE",
"308 668 CURVE SMOOTH",
"146 668 OFFCURVE",
"17 530 OFFCURVE",
"17 326 CURVE SMOOTH"
);
},
{
closed = 1;
nodes = (
"280 563 OFFCURVE",
"287 564 OFFCURVE",
"293 564 CURVE SMOOTH",
"361 564 OFFCURVE",
"389 435 OFFCURVE",
"389 313 CURVE SMOOTH",
"389 222 OFFCURVE",
"374 133 OFFCURVE",
"346 92 CURVE",
"338 89 OFFCURVE",
"330 88 OFFCURVE",
"324 88 CURVE SMOOTH",
"254 88 OFFCURVE",
"227 220 OFFCURVE",
"227 336 CURVE SMOOTH",
"227 426 OFFCURVE",
"243 524 OFFCURVE",
"272 562 CURVE"
);
}
);
width = 614;
}
);
unicode = 0030;
},
{
color = 3;
glyphname = one;
layers = (
{
layerId = "E25E64E2-9639-43F9-BB85-44020EE7B81E";
name = Regular;
paths = (
{
closed = 1;
nodes = (
"276 529 LINE",
"296 619 LINE",
"277 670 LINE",
"5 510 LINE",
"42 438 LINE"
);
},
{
closed = 1;
nodes = (
"360 609 LINE",
"277 670 LINE",
"260 584 LINE"
);
},
{
closed = 1;
nodes = (
"159 0 LINE",
"360 0 LINE",
"360 609 LINE",
"159 591 LINE"
);
},
{
closed = 1;
nodes = (
"172 0 LINE",
"174 94 LINE",
"124 81 OFFCURVE",
"56 56 OFFCURVE",
"23 32 CURVE",
"29 0 LINE"
);
},
{
closed = 1;
nodes = (
"475 0 LINE",
"477 55 LINE",
"339 80 LINE",
"336 0 LINE"
);
}
);
width = 469;
}
);
unicode = 0031;
},
{
color = 3;
glyphname = two;
layers = (
{
layerId = "E25E64E2-9639-43F9-BB85-44020EE7B81E";
name = Regular;
paths = (
{
closed = 1;
nodes = (
"194 388 LINE",
"259 598 LINE",
"46 601 LINE",
"41 551 OFFCURVE",
"53 437 OFFCURVE",
"67 388 CURVE"
);
},
{
closed = 1;
nodes = (
"55 0 LINE",
"521 0 LINE",
"521 133 LINE",
"265 80 LINE",
"261 87 LINE",
"381 204 LINE",
"496 315 OFFCURVE",
"543 386 OFFCURVE",
"543 464 CURVE SMOOTH",
"543 577 OFFCURVE",
"447 669 OFFCURVE",
"295 670 CURVE SMOOTH",
"213 671 OFFCURVE",
"119 644 OFFCURVE",
"46 601 CURVE",
"179 566 LINE",
"199 573 OFFCURVE",
"219 576 OFFCURVE",
"236 576 CURVE SMOOTH",
"305 576 OFFCURVE",
"339 539 OFFCURVE",
"339 489 CURVE SMOOTH",
"339 438 OFFCURVE",
"303 382 OFFCURVE",
"189 263 CURVE SMOOTH",
"33 98 LINE"
);
},
{
closed = 1;
nodes = (
"497 244 LINE",
"333 8 LINE",
"544 0 LINE",
"568 81 OFFCURVE",
"579 161 OFFCURVE",
"581 221 CURVE"
);
}
);
width = 617;
}
);
unicode = 0032;
},
{
color = 3;
glyphname = three;
layers = (
{
layerId = "E25E64E2-9639-43F9-BB85-44020EE7B81E";
name = Regular;
paths = (
{
closed = 1;
nodes = (
"248 614 LINE",
"55 606 LINE",
"50 556 OFFCURVE",
"54 463 OFFCURVE",
"68 413 CURVE",
"184 413 LINE"
);
},
{
closed = 1;
nodes = (
"340 417 OFFCURVE",
"290 360 OFFCURVE",
"194 355 CURVE",
"202 266 LINE",
"394 319 LINE",
"394 335 LINE",
"497 364 OFFCURVE",
"546 430 OFFCURVE",
"546 496 CURVE SMOOTH",
"546 583 OFFCURVE",
"463 670 OFFCURVE",
"295 670 CURVE SMOOTH",
"211 670 OFFCURVE",
"117 648 OFFCURVE",
"54 606 CURVE",
"91 534 LINE",
"140 562 OFFCURVE",
"178 572 OFFCURVE",
"214 572 CURVE SMOOTH",
"288 572 OFFCURVE",
"340 530 OFFCURVE",
"340 471 CURVE SMOOTH"
);
},
{
closed = 1;
nodes = (
"36 33 LINE",
"113 -1 OFFCURVE",
"208 -20 OFFCURVE",
"289 -20 CURVE SMOOTH",
"454 -20 OFFCURVE",
"572 59 OFFCURVE",
"572 175 CURVE SMOOTH",
"572 271 OFFCURVE",
"491 348 OFFCURVE",
"385 342 CURVE",
"382 359 LINE",
"194 355 LINE",
"182 355 LINE",
"187 263 LINE",
"238 264 LINE",
"315 264 OFFCURVE",
"359 214 OFFCURVE",
"359 161 CURVE SMOOTH",
"359 135 OFFCURVE",
"348 108 OFFCURVE",
"326 86 CURVE",
"255 104 OFFCURVE",
"170 168 OFFCURVE",
"93 216 CURVE"
);
}
);
width = 611;
}
);
unicode = 0033;
},
{
color = 3;
glyphname = four;
layers = (
{
layerId = "E25E64E2-9639-43F9-BB85-44020EE7B81E";
name = Regular;
paths = (
{
closed = 1;
nodes = (
"157 233 LINE",
"397 578 LINE",
"431 553 LINE",
"423 652 LINE",
"354 670 LINE",
"9 256 LINE",
"48 151 LINE",
"583 151 LINE",
"615 182 LINE",
"610 272 LINE",
"103 261 LINE"
);
},
{
closed = 1;
nodes = (
"309 0 LINE",
"502 0 LINE",
"502 652 LINE",
"352 663 LINE",
"318 517 LINE",
"309 373 LINE"
);
},
{
closed = 1;
nodes = (
"320 0 LINE",
"322 94 LINE",
"280 79 OFFCURVE",
"219 56 OFFCURVE",
"187 32 CURVE",
"193 0 LINE"
);
},
{
closed = 1;
nodes = (
"570 0 LINE",
"572 55 LINE",
"434 80 LINE",
"431 0 LINE"
);
}
);
width = 630;
}
);
unicode = 0034;
},
{
color = 3;
glyphname = five;
layers = (
{
layerId = "E25E64E2-9639-43F9-BB85-44020EE7B81E";
name = Regular;
paths = (
{
closed = 1;
nodes = (
"512 484 OFFCURVE",
"524 601 OFFCURVE",
"520 650 CURVE",
"325 648 LINE",
"375 435 LINE",
"498 435 LINE"
);
},
{
closed = 1;
nodes = (
"30 45 LINE",
"109 -2 OFFCURVE",
"210 -24 OFFCURVE",
"287 -24 CURVE SMOOTH",
"458 -24 OFFCURVE",
"551 81 OFFCURVE",
"551 198 CURVE SMOOTH",
"551 337 OFFCURVE",
"420 406 OFFCURVE",
"307 408 CURVE SMOOTH",
"284 408 OFFCURVE",
"259 408 OFFCURVE",
"239 401 CURVE",
"251 554 LINE",
"447 542 LINE",
"456 650 LINE",
"90 650 LINE",
"61 319 LINE",
"116 259 LINE",
"146 268 OFFCURVE",
"172 271 OFFCURVE",
"194 271 CURVE SMOOTH",
"296 271 OFFCURVE",
"370 236 OFFCURVE",
"370 162 CURVE SMOOTH",
"370 140 OFFCURVE",
"364 114 OFFCURVE",
"336 85 CURVE",
"264 103 OFFCURVE",
"165 158 OFFCURVE",
"87 227 CURVE"
);
}
);
width = 582;
}
);
unicode = 0035;
},
{
color = 3;
glyphname = six;
layers = (
{
layerId = "E25E64E2-9639-43F9-BB85-44020EE7B81E";
name = Regular;
paths = (
{
closed = 1;
nodes = (
"276 262 LINE",
"292 273 OFFCURVE",
"307 279 OFFCURVE",
"321 279 CURVE SMOOTH",
"360 279 OFFCURVE",
"390 232 OFFCURVE",
"390 175 CURVE SMOOTH",
"390 136 OFFCURVE",
"376 95 OFFCURVE",
"345 71 CURVE",
"267 68 OFFCURVE",
"229 169 OFFCURVE",
"229 281 CURVE SMOOTH",
"229 382 OFFCURVE",
"261 489 OFFCURVE",
"323 524 CURVE",
"522 471 LINE",
"523 657 LINE",
"180 672 OFFCURVE",
"32 458 OFFCURVE",
"32 264 CURVE SMOOTH",
"32 72 OFFCURVE",
"178 -20 OFFCURVE",
"326 -20 CURVE SMOOTH",
"486 -20 OFFCURVE",
"576 86 OFFCURVE",
"576 206 CURVE SMOOTH",
"576 330 OFFCURVE",
"482 399 OFFCURVE",
"386 399 CURVE SMOOTH",
"343 399 OFFCURVE",
"293 385 OFFCURVE",
"254 349 CURVE"
);
}
);
width = 599;
}
);
unicode = 0036;
},
{
color = 3;
glyphname = seven;
layers = (
{
layerId = "E25E64E2-9639-43F9-BB85-44020EE7B81E";
name = Regular;
paths = (
{
closed = 1;
nodes = (
"488 650 LINE",
"34 650 LINE",
"80 527 LINE",
"352 537 LINE",
"359 529 LINE",
"249 372 OFFCURVE",
"162 211 OFFCURVE",
"75 40 CURVE",
"263 -26 LINE",
"346 179 OFFCURVE",
"436 363 OFFCURVE",
"537 548 CURVE"
);
},
{
closed = 1;
nodes = (
"175 418 LINE",
"216 648 LINE",
"22 650 LINE",
"17 601 OFFCURVE",
"29 467 OFFCURVE",
"43 418 CURVE"
);
}
);
width = 527;
}
);
unicode = 0037;
},
{
color = 3;
glyphname = eight;
layers = (
{
layerId = "E25E64E2-9639-43F9-BB85-44020EE7B81E";
name = Regular;
paths = (
{
closed = 1;
nodes = (
"489 366 OFFCURVE",
"528 435 OFFCURVE",
"528 496 CURVE SMOOTH",
"528 584 OFFCURVE",
"445 668 OFFCURVE",
"298 668 CURVE SMOOTH",
"143 668 OFFCURVE",
"58 575 OFFCURVE",
"58 476 CURVE SMOOTH",
"58 405 OFFCURVE",
"102 355 OFFCURVE",
"165 315 CURVE",
"229 277 LINE",
"335 218 OFFCURVE",
"373 191 OFFCURVE",
"373 129 CURVE SMOOTH",
"373 106 OFFCURVE",
"368 92 OFFCURVE",
"354 70 CURVE",
"338 65 OFFCURVE",
"323 63 OFFCURVE",
"311 63 CURVE SMOOTH",
"253 63 OFFCURVE",
"221 104 OFFCURVE",
"221 153 CURVE SMOOTH",
"221 199 OFFCURVE",
"249 251 OFFCURVE",
"311 280 CURVE",
"239 364 LINE",
"110 342 OFFCURVE",
"36 255 OFFCURVE",
"36 164 CURVE SMOOTH",
"36 48 OFFCURVE",
"154 -22 OFFCURVE",
"299 -22 CURVE SMOOTH",
"441 -22 OFFCURVE",
"555 47 OFFCURVE",
"555 170 CURVE SMOOTH",
"555 280 OFFCURVE",
"466 340 OFFCURVE",
"368 393 CURVE SMOOTH",
"295 433 OFFCURVE",
"233 460 OFFCURVE",
"233 514 CURVE SMOOTH",
"233 530 OFFCURVE",
"239 551 OFFCURVE",
"254 567 CURVE",
"267 573 OFFCURVE",
"280 575 OFFCURVE",
"292 575 CURVE SMOOTH",
"337 575 OFFCURVE",
"369 542 OFFCURVE",
"369 495 CURVE SMOOTH",
"369 464 OFFCURVE",
"355 424 OFFCURVE",
"312 396 CURVE",
"401 337 LINE"
);
}
);
width = 591;
}
);
unicode = 0038;
},
{
color = 3;
glyphname = nine;
layers = (
{
layerId = "E25E64E2-9639-43F9-BB85-44020EE7B81E";
name = Regular;
paths = (
{
closed = 1;
nodes = (
"262 335 OFFCURVE",
"227 394 OFFCURVE",
"227 459 CURVE SMOOTH",
"227 506 OFFCURVE",
"243 552 OFFCURVE",
"272 564 CURVE",
"347 573 OFFCURVE",
"377 469 OFFCURVE",
"377 365 CURVE SMOOTH",
"377 262 OFFCURVE",
"348 155 OFFCURVE",
"285 120 CURVE",
"80 178 LINE",
"111 -10 LINE",
"373 -33 OFFCURVE",
"566 135 OFFCURVE",
"566 364 CURVE SMOOTH",
"566 535 OFFCURVE",
"459 670 OFFCURVE",
"280 670 CURVE SMOOTH",
"125 670 OFFCURVE",
"26 568 OFFCURVE",
"26 441 CURVE SMOOTH",
"26 276 OFFCURVE",
"194 180 OFFCURVE",
"339 244 CURVE",
"329 348 LINE"
);
}
);
width = 592;
}
);
unicode = 0039;
},
{
color = 3;
glyphname = colon;
layers = (
{
layerId = "E25E64E2-9639-43F9-BB85-44020EE7B81E";
name = Regular;
paths = (
{
closed = 1;
nodes = (
"267 139 OFFCURVE",
"223 179 OFFCURVE",
"172 202 CURVE",
"120 173 OFFCURVE",
"82 132 OFFCURVE",
"74 73 CURVE",
"98 27 OFFCURVE",
"136 -3 OFFCURVE",
"189 -20 CURVE",
"236 4 OFFCURVE",
"267 42 OFFCURVE",
"282 90 CURVE"
);
},
{
closed = 1;
nodes = (
"267 449 OFFCURVE",
"223 488 OFFCURVE",
"172 511 CURVE",
"120 483 OFFCURVE",
"82 441 OFFCURVE",
"74 382 CURVE",
"98 337 OFFCURVE",
"136 307 OFFCURVE",
"189 289 CURVE",
"236 314 OFFCURVE",
"267 351 OFFCURVE",
"282 400 CURVE"
);
}
);
width = 374;
}
);
leftMetricsKey = period;
rightMetricsKey = period;
unicode = 003A;
},
{
color = 3;
glyphname = semicolon;
layers = (
{
layerId = "E25E64E2-9639-43F9-BB85-44020EE7B81E";
name = Regular;
paths = (
{
closed = 1;
nodes = (
"260 449 OFFCURVE",
"216 488 OFFCURVE",
"165 511 CURVE",
"113 483 OFFCURVE",
"75 441 OFFCURVE",
"67 382 CURVE",
"91 337 OFFCURVE",
"129 307 OFFCURVE",
"182 289 CURVE",
"229 314 OFFCURVE",
"260 351 OFFCURVE",
"275 400 CURVE"
);
},
{
closed = 1;
nodes = (
"98 -140 LINE",
"186 -104 OFFCURVE",
"270 -12 OFFCURVE",
"270 70 CURVE SMOOTH",
"270 123 OFFCURVE",
"237 172 OFFCURVE",
"163 201 CURVE",
"114 174 OFFCURVE",
"75 133 OFFCURVE",
"66 74 CURVE",
"120 27 LINE",
"118 -5 OFFCURVE",
"90 -52 OFFCURVE",
"51 -85 CURVE"
);
}
);
width = 334;
}
);
leftMetricsKey = comma;
rightMetricsKey = comma;
unicode = 003B;
},
{
color = 3;
glyphname = less;
layers = (
{
layerId = "E25E64E2-9639-43F9-BB85-44020EE7B81E";
name = Regular;
paths = (
{
closed = 1;
nodes = (
"56 272 LINE",
"58 202 LINE",
"467 -6 LINE",
"521 97 LINE",
"230 240 LINE",
"229 246 LINE",
"517 401 LINE",
"466 500 LINE"
);
}
);
width = 578;
}
);
unicode = 003C;
},
{
color = 3;
glyphname = equal;
layers = (
{
layerId = "E25E64E2-9639-43F9-BB85-44020EE7B81E";
name = Regular;
paths = (
{
closed = 1;
nodes = (
"52 213 LINE",
"52 116 LINE",
"524 116 LINE",
"524 213 LINE"
);
},
{
closed = 1;
nodes = (
"52 401 LINE",
"52 304 LINE",
"524 304 LINE",
"524 401 LINE"
);
}
);
width = 576;
}
);
leftMetricsKey = minus;
rightMetricsKey = minus;
unicode = 003D;
},
{
color = 3;
glyphname = greater;
layers = (
{
layerId = "E25E64E2-9639-43F9-BB85-44020EE7B81E";
name = Regular;
paths = (
{
closed = 1;
nodes = (
"349 246 LINE",
"348 240 LINE",
"57 97 LINE",
"111 -6 LINE",
"520 202 LINE",
"522 272 LINE",
"112 500 LINE",
"61 401 LINE"
);
}
);
width = 578;
}
);
unicode = 003E;
},
{
color = 3;
glyphname = question;
layers = (
{
layerId = "E25E64E2-9639-43F9-BB85-44020EE7B81E";
name = Regular;
paths = (
{
closed = 1;
nodes = (
"224 454 LINE",
"312 657 LINE",
"86 648 LINE",
"82 609 OFFCURVE",
"95 508 OFFCURVE",
"109 454 CURVE"
);
},
{
closed = 1;
nodes = (
"423 380 OFFCURVE",
"575 384 OFFCURVE",
"575 527 CURVE SMOOTH",
"575 646 OFFCURVE",
"472 735 OFFCURVE",
"316 735 CURVE SMOOTH",
"203 735 OFFCURVE",
"130 689 OFFCURVE",
"85 649 CURVE",
"124 519 LINE",
"196 578 OFFCURVE",
"242 609 OFFCURVE",
"309 609 CURVE",
"350 594 OFFCURVE",
"367 557 OFFCURVE",
"367 525 CURVE SMOOTH",
"367 436 OFFCURVE",
"230 406 OFFCURVE",
"230 254 CURVE",
"396 254 LINE"
);
},
{
closed = 1;
nodes = (
"268 173 OFFCURVE",
"230 132 OFFCURVE",
"222 73 CURVE",
"246 27 OFFCURVE",
"284 -3 OFFCURVE",
"337 -20 CURVE",
"384 4 OFFCURVE",
"415 42 OFFCURVE",
"430 90 CURVE",
"415 139 OFFCURVE",
"371 179 OFFCURVE",
"320 202 CURVE"
);
}
);
width = 661;
}
);
unicode = 003F;
},
{
color = 3;
glyphname = at;
layers = (
{
layerId = "E25E64E2-9639-43F9-BB85-44020EE7B81E";
name = Regular;
paths = (
{
closed = 1;
nodes = (
"506 399 LINE",
"515 404 OFFCURVE",
"529 407 OFFCURVE",
"543 408 CURVE",
"563 398 OFFCURVE",
"588 374 OFFCURVE",
"588 311 CURVE SMOOTH",
"588 70 LINE",
"607 69 LINE",
"635 13 OFFCURVE",
"679 -25 OFFCURVE",
"804 -17 CURVE",
"983 16 OFFCURVE",
"1078 165 OFFCURVE",
"1078 322 CURVE SMOOTH",
"1078 528 OFFCURVE",
"915 750 OFFCURVE",
"563 750 CURVE SMOOTH",
"219 750 OFFCURVE",
"33 540 OFFCURVE",
"33 311 CURVE SMOOTH",
"33 184 OFFCURVE",
"90 51 OFFCURVE",
"209 -56 CURVE",
"311 6 LINE",
"252 90 OFFCURVE",
"222 183 OFFCURVE",
"222 270 CURVE SMOOTH",
"222 447 OFFCURVE",
"343 599 OFFCURVE",
"569 599 CURVE SMOOTH",
"768 599 OFFCURVE",
"890 481 OFFCURVE",
"890 313 CURVE SMOOTH",
"890 243 OFFCURVE",
"869 162 OFFCURVE",
"834 126 CURVE SMOOTH",
"815 106 OFFCURVE",
"789 100 OFFCURVE",
"789 135 CURVE SMOOTH",
"789 322 LINE SMOOTH",
"789 378 OFFCURVE",
"787 408 OFFCURVE",
"777 424 CURVE SMOOTH",
"745 471 OFFCURVE",
"682 497 OFFCURVE",
"623 497 CURVE SMOOTH",
"559 497 OFFCURVE",
"441 478 OFFCURVE",
"349 447 CURVE",
"342 395 OFFCURVE",
"349 336 OFFCURVE",
"363 284 CURVE",
"477 285 LINE"
);
},
{
closed = 1;
nodes = (
"340 209 OFFCURVE",
"315 158 OFFCURVE",
"315 116 CURVE SMOOTH",
"315 45 OFFCURVE",
"387 -32 OFFCURVE",
"510 -12 CURVE",
"633 68 LINE",
"616 110 LINE",
"591 103 OFFCURVE",
"557 93 OFFCURVE",
"526 89 CURVE",
"516 100 OFFCURVE",
"511 118 OFFCURVE",
"511 131 CURVE SMOOTH",
"511 166 OFFCURVE",
"549 177 OFFCURVE",
"590 177 CURVE",
"622 177 LINE",
"620 243 LINE",
"400 238 LINE"
);
}
);
width = 1098;
}
);
unicode = 0040;
},
{
color = 3;
glyphname = A;
layers = (
{
anchors = (
{
name = ogonek;
position = "{718, 0}";
},
{
name = top;
position = "{360, 650}";
}
);
layerId = "E25E64E2-9639-43F9-BB85-44020EE7B81E";
name = Regular;
paths = (
{
closed = 1;
nodes = (
"30 0 LINE",
"168 0 LINE",
"400 628 LINE",
"291 646 LINE"
);
},
{
closed = 1;
nodes = (
"254 645 LINE",
"492 0 LINE",
"713 0 LINE",
"436 690 LINE"
);
},
{
closed = 1;
nodes = (
"184 254 LINE",
"184 162 LINE",
"517 162 LINE",
"517 254 LINE"
);
},
{
closed = 1;
nodes = (
"41 73 OFFCURVE",
"8 54 OFFCURVE",
"-20 32 CURVE",
"-14 0 LINE",
"80 0 LINE",
"79 91 LINE"
);
},
{
closed = 1;
nodes = (
"133 0 LINE",
"273 0 LINE",
"274 55 LINE",
"136 79 LINE"
);
},
{
closed = 1;
nodes = (
"449 73 OFFCURVE",
"416 54 OFFCURVE",
"388 32 CURVE",
"394 0 LINE",
"498 0 LINE",
"487 91 LINE"
);
},
{
closed = 1;
nodes = (
"616 0 LINE",
"756 0 LINE",
"757 55 LINE",
"619 79 LINE"
);
}
);
width = 741;
}
);
leftKerningGroup = A;
rightKerningGroup = A;
unicode = 0041;
},
{
color = 3;
glyphname = B;
layers = (
{
layerId = "E25E64E2-9639-43F9-BB85-44020EE7B81E";
name = Regular;
paths = (
{
closed = 1;
nodes = (
"310 674 OFFCURVE",
"136 671 OFFCURVE",
"37 666 CURVE",
"313 561 LINE",
"399 577 LINE",
"434 565 OFFCURVE",
"455 516 OFFCURVE",
"455 476 CURVE SMOOTH",
"455 430 OFFCURVE",
"427 384 OFFCURVE",
"360 384 CURVE SMOOTH",
"290 384 LINE",
"290 313 LINE",
"372 321 LINE",
"503 344 LINE",
"611 350 OFFCURVE",
"661 436 OFFCURVE",
"661 501 CURVE SMOOTH",
"661 585 OFFCURVE",
"574 674 OFFCURVE",
"400 674 CURVE"
);
},
{
closed = 1;
nodes = (
"83 73 OFFCURVE",
"50 54 OFFCURVE",
"22 32 CURVE",
"28 0 LINE",
"122 0 LINE",
"121 91 LINE"
);
},
{
closed = 1;
nodes = (
"107 666 LINE",
"107 0 LINE",
"317 0 LINE",
"317 666 LINE"
);
},
{
closed = 1;
nodes = (
"314 340 LINE",
"297 306 LINE",
"384 306 LINE SMOOTH",
"439 306 OFFCURVE",
"476 245 OFFCURVE",
"476 191 CURVE SMOOTH",
"476 140 OFFCURVE",
"445 85 OFFCURVE",
"378 93 CURVE SMOOTH",
"297 103 LINE",
"294 0 LINE",
"404 0 LINE SMOOTH",
"618 0 OFFCURVE",
"689 94 OFFCURVE",
"689 185 CURVE SMOOTH",
"689 284 OFFCURVE",
"607 368 OFFCURVE",
"446 356 CURVE"
);
},
{
closed = 1;
nodes = (
"37 666 LINE",
"36 611 LINE",
"166 589 LINE",
"168 666 LINE"
);
}
);
width = 717;
}
);
leftKerningGroup = I;
leftMetricsKey = I;
unicode = 0042;
},
{
color = 3;
glyphname = C;
layers = (
{
anchors = (
{
name = bottom;
position = "{341, 0}";
},
{
name = top;
position = "{341, 650}";
}
);
layerId = "E25E64E2-9639-43F9-BB85-44020EE7B81E";
name = Regular;
paths = (
{
closed = 1;
nodes = (
"576 164 LINE",
"401 110 LINE",
"276 111 OFFCURVE",
"215 216 OFFCURVE",
"215 350 CURVE SMOOTH",
"215 436 OFFCURVE",
"240 526 OFFCURVE",
"292 582 CURVE",
"403 571 OFFCURVE",
"482 528 OFFCURVE",
"555 467 CURVE",
"588 620 LINE",
"541 652 OFFCURVE",
"477 686 OFFCURVE",
"370 686 CURVE SMOOTH",
"123 686 OFFCURVE",
"7 505 OFFCURVE",
"7 324 CURVE SMOOTH",
"7 168 OFFCURVE",
"93 -31 OFFCURVE",
"393 -17 CURVE",
"607 71 LINE"
);
},
{
closed = 1;
nodes = (
"562 415 LINE",
"577 471 OFFCURVE",
"592 574 OFFCURVE",
"588 620 CURVE",
"386 622 LINE",
"438 415 LINE"
);
}
);
width = 611;
}
);
leftKerningGroup = O;
leftMetricsKey = O;
rightKerningGroup = C;
unicode = 0043;
},
{
color = 3;
glyphname = D;
layers = (
{
anchors = (
{
name = bottom;
position = "{60, 0}";
},
{
name = center;
position = "{388, 325}";
},
{
name = top;
position = "{381, 650}";
}
);
layerId = "E25E64E2-9639-43F9-BB85-44020EE7B81E";
name = Regular;
paths = (
{
closed = 1;
nodes = (
"265 674 OFFCURVE",
"154 672 OFFCURVE",
"37 666 CURVE",
"311 561 LINE",
"424 577 LINE",
"492 530 OFFCURVE",
"532 426 OFFCURVE",
"532 327 CURVE SMOOTH",
"532 217 OFFCURVE",
"483 100 OFFCURVE",
"376 100 CURVE SMOOTH",
"350 100 OFFCURVE",
"321 106 OFFCURVE",
"288 121 CURVE",
"300 0 LINE",
"390 0 LINE SMOOTH",
"632 0 OFFCURVE",
"749 163 OFFCURVE",
"749 339 CURVE SMOOTH",
"749 499 OFFCURVE",
"629 674 OFFCURVE",
"382 674 CURVE SMOOTH"
);
},
{
closed = 1;
nodes = (
"83 73 OFFCURVE",
"50 54 OFFCURVE",
"22 32 CURVE",
"28 0 LINE",
"122 0 LINE",
"121 91 LINE"
);
},
{
closed = 1;
nodes = (
"107 666 LINE",
"107 0 LINE",
"317 0 LINE",
"317 666 LINE"
);
},
{
closed = 1;
nodes = (
"37 666 LINE",
"36 611 LINE",
"166 589 LINE",
"168 666 LINE"
);
}
);
width = 757;
}
);
leftKerningGroup = I;
leftMetricsKey = I;
rightKerningGroup = O;
rightMetricsKey = O;
unicode = 0044;
},
{
color = 3;
glyphname = E;
layers = (
{
anchors = (
{
name = bottom;
position = "{332, 0}";
},
{
name = ogonek;
position = "{654, 0}";
},
{
name = top;
position = "{332, 650}";
}
);
layerId = "E25E64E2-9639-43F9-BB85-44020EE7B81E";
name = Regular;
paths = (
{
closed = 1;
nodes = (
"107 666 LINE",
"107 0 LINE",
"317 0 LINE",
"317 666 LINE"
);
},
{
closed = 1;
nodes = (
"83 73 OFFCURVE",
"50 54 OFFCURVE",
"22 32 CURVE",
"28 0 LINE",
"122 0 LINE",
"121 91 LINE"
);
},
{
closed = 1;
nodes = (
"282 98 LINE",
"207 0 LINE",
"607 0 LINE",
"606 127 LINE"
);
},
{
closed = 1;
nodes = (
"280 373 LINE",
"280 288 LINE",
"520 278 LINE",
"520 393 LINE"
);
},
{
closed = 1;
nodes = (
"200 666 LINE",
"275 570 LINE",
"604 547 LINE",
"617 666 LINE"
);
},
{
closed = 1;
nodes = (
"32 666 LINE",
"31 611 LINE",
"161 589 LINE",
"163 666 LINE"
);
},
{
closed = 1;
nodes = (
"429 8 LINE",
"608 0 LINE",
"616 64 OFFCURVE",
"622 159 OFFCURVE",
"620 218 CURVE",
"505 227 LINE"
);
},
{
closed = 1;
nodes = (
"596 451 LINE",
"611 520 OFFCURVE",
"619 620 OFFCURVE",
"617 666 CURVE",
"442 657 LINE",
"481 451 LINE"
);
}
);
width = 670;
}
);
leftKerningGroup = I;
leftMetricsKey = I;
rightKerningGroup = E;
unicode = 0045;
},
{
color = 3;
glyphname = F;
layers = (
{
anchors = (
{
name = bottom;
position = "{58, 0}";
},
{
name = top;
position = "{58, 130}";
}
);
layerId = "E25E64E2-9639-43F9-BB85-44020EE7B81E";
name = Regular;
paths = (
{
closed = 1;
nodes = (
"101 666 LINE",
"101 0 LINE",
"311 0 LINE",
"311 666 LINE"
);
},
{
closed = 1;
nodes = (
"85 73 OFFCURVE",
"52 54 OFFCURVE",
"24 32 CURVE",
"30 0 LINE",
"124 0 LINE",
"123 91 LINE"
);
},
{
closed = 1;
nodes = (
"294 0 LINE",
"434 0 LINE",
"435 55 LINE",
"297 79 LINE"
);
},
{
closed = 1;
nodes = (
"290 356 LINE",
"290 262 LINE",
"530 250 LINE",
"530 373 LINE"
);
},
{
closed = 1;
nodes = (
"210 666 LINE",
"285 570 LINE",
"576 549 LINE",
"611 666 LINE"
);
},
{
closed = 1;
nodes = (
"26 666 LINE",
"25 611 LINE",
"155 589 LINE",
"157 666 LINE"
);
},
{
closed = 1;
nodes = (
"590 443 LINE",
"605 512 OFFCURVE",
"613 620 OFFCURVE",
"611 666 CURVE",
"436 657 LINE",
"475 443 LINE"
);
}
);
width = 646;
}
);
leftKerningGroup = I;
leftMetricsKey = I;
rightMetricsKey = E;
unicode = 0046;
},
{
color = 3;
glyphname = G;
layers = (
{
anchors = (
{
name = bottom;
position = "{357, 0}";
},
{
name = top;
position = "{357, 650}";
}
);
layerId = "E25E64E2-9639-43F9-BB85-44020EE7B81E";
name = Regular;
paths = (
{
closed = 1;
nodes = (
"145 686 OFFCURVE",
"7 511 OFFCURVE",
"7 321 CURVE SMOOTH",
"7 169 OFFCURVE",
"96 -36 OFFCURVE",
"399 -20 CURVE",
"630 67 LINE",
"585 130 LINE",
"541 117 OFFCURVE",
"457 98 OFFCURVE",
"397 101 CURVE SMOOTH",
"272 108 OFFCURVE",
"214 228 OFFCURVE",
"214 353 CURVE SMOOTH",
"214 440 OFFCURVE",
"240 529 OFFCURVE",
"294 582 CURVE",
"442 579 OFFCURVE",
"529 522 OFFCURVE",
"587 474 CURVE",
"618 625 LINE",
"581 649 OFFCURVE",
"504 686 OFFCURVE",
"393 686 CURVE SMOOTH"
);
},
{
closed = 1;
nodes = (
"354 272 LINE",
"384 249 OFFCURVE",
"421 229 OFFCURVE",
"460 211 CURVE",
"458 305 LINE",
"360 305 LINE"
);
},
{
closed = 1;
nodes = (
"444 65 LINE",
"630 67 LINE",
"630 305 LINE",
"444 305 LINE"
);
},
{
closed = 1;
nodes = (
"557 305 LINE",
"566 217 LINE",
"706 258 LINE",
"705 305 LINE"
);
},
{
closed = 1;
nodes = (
"594 430 LINE",
"610 489 OFFCURVE",
"622 579 OFFCURVE",
"618 625 CURVE",
"416 627 LINE",
"471 430 LINE"
);
}
);
width = 720;
}
);
leftKerningGroup = O;
leftMetricsKey = O;
rightKerningGroup = G;
unicode = 0047;
},
{
color = 3;
glyphname = H;
layers = (
{
anchors = (
{
name = center;
position = "{428, 325}";
},
{
name = top;
position = "{428, 650}";
}
);
layerId = "E25E64E2-9639-43F9-BB85-44020EE7B81E";
name = Regular;
paths = (
{
closed = 1;
nodes = (
"168 587 LINE",
"171 666 LINE",
"31 666 LINE",
"30 611 LINE"
);
},
{
closed = 1;
nodes = (
"107 666 LINE",
"107 0 LINE",
"317 0 LINE",
"317 666 LINE"
);
},
{
closed = 1;
nodes = (
"302 666 LINE",
"303 575 LINE",
"341 593 OFFCURVE",
"374 612 OFFCURVE",
"402 634 CURVE",
"396 666 LINE"
);
},
{
closed = 1;
nodes = (
"458 666 LINE",
"457 611 LINE",
"595 587 LINE",
"598 666 LINE"
);
},
{
closed = 1;
nodes = (
"534 666 LINE",
"534 0 LINE",
"744 0 LINE",
"744 666 LINE"
);
},
{
closed = 1;
nodes = (
"729 666 LINE",
"730 575 LINE",
"768 593 OFFCURVE",
"801 612 OFFCURVE",
"829 634 CURVE",
"823 666 LINE"
);
},
{
closed = 1;
nodes = (
"258 383 LINE",
"258 281 LINE",
"602 281 LINE",
"602 383 LINE"
);
},
{
closed = 1;
nodes = (
"83 73 OFFCURVE",
"50 54 OFFCURVE",
"22 32 CURVE",
"28 0 LINE",
"122 0 LINE",
"121 91 LINE"
);
},
{
closed = 1;
nodes = (
"265 0 LINE",
"405 0 LINE",
"406 55 LINE",
"268 79 LINE"
);
},
{
closed = 1;
nodes = (
"510 73 OFFCURVE",
"477 54 OFFCURVE",
"449 32 CURVE",
"455 0 LINE",
"549 0 LINE",
"548 91 LINE"
);
},
{
closed = 1;
nodes = (
"692 0 LINE",
"832 0 LINE",
"833 55 LINE",
"695 79 LINE"
);
}
);
width = 855;
}
);
leftKerningGroup = I;
leftMetricsKey = I;
rightKerningGroup = I;
rightMetricsKey = I;
unicode = 0048;
},
{
color = 3;
glyphname = I;
layers = (
{
anchors = (
{
name = ogonek;
position = "{350, 0}";
},
{
name = top;
position = "{213, 650}";
}
);
layerId = "E25E64E2-9639-43F9-BB85-44020EE7B81E";
name = Regular;
paths = (
{
closed = 1;
nodes = (
"317 0 LINE",
"317 666 LINE",
"107 666 LINE",
"107 0 LINE"
);
},
{
closed = 1;
nodes = (
"122 0 LINE",
"121 91 LINE",
"83 73 OFFCURVE",
"50 54 OFFCURVE",
"22 32 CURVE",
"28 0 LINE"
);
},
{
closed = 1;
nodes = (
"405 0 LINE",
"406 55 LINE",
"268 79 LINE",
"265 0 LINE"
);
},
{
closed = 1;
nodes = (
"31 666 LINE",
"30 611 LINE",
"168 587 LINE",
"171 666 LINE"
);
},
{
closed = 1;
nodes = (
"302 666 LINE",
"303 575 LINE",
"341 593 OFFCURVE",
"374 612 OFFCURVE",
"402 634 CURVE",
"396 666 LINE"
);
}
);
width = 428;
}
);
leftKerningGroup = I;
rightKerningGroup = I;
unicode = 0049;
},
{
color = 3;
glyphname = J;
layers = (
{
anchors = (
{
name = top;
position = "{221, 650}";
}
);
layerId = "E25E64E2-9639-43F9-BB85-44020EE7B81E";
name = Regular;
paths = (
{
closed = 1;
nodes = (
"32 666 LINE",
"31 611 LINE",
"169 587 LINE",
"172 666 LINE"
);
},
{
closed = 1;
nodes = (
"112 666 LINE",
"112 152 LINE SMOOTH",
"112 -16 OFFCURVE",
"53 -78 OFFCURVE",
"-31 -131 CURVE",
"3 -190 LINE",
"196 -132 OFFCURVE",
"321 -47 OFFCURVE",
"321 177 CURVE SMOOTH",
"321 666 LINE"
);
},
{
closed = 1;
nodes = (
"307 666 LINE",
"308 575 LINE",
"346 593 OFFCURVE",
"379 612 OFFCURVE",
"407 634 CURVE",
"401 666 LINE"
);
}
);
width = 425;
}
);
unicode = 004A;
},
{
color = 3;
glyphname = K;
layers = (
{
anchors = (
{
name = bottom;
position = "{408, 0}";
},
{
name = top;
position = "{400, 650}";
}
);
layerId = "E25E64E2-9639-43F9-BB85-44020EE7B81E";
name = Regular;
paths = (
{
closed = 1;
nodes = (
"575 666 LINE",
"246 313 LINE",
"268 194 LINE",
"667 613 LINE",
"675 666 LINE"
);
},
{
closed = 1;
nodes = (
"83 73 OFFCURVE",
"50 54 OFFCURVE",
"22 32 CURVE",
"28 0 LINE",
"122 0 LINE",
"121 91 LINE"
);
},
{
closed = 1;
nodes = (
"249 0 LINE",
"389 0 LINE",
"390 55 LINE",
"252 79 LINE"
);
},
{
closed = 1;
nodes = (
"107 666 LINE",
"107 0 LINE",
"317 0 LINE",
"317 666 LINE"
);
},
{
closed = 1;
nodes = (
"302 666 LINE",
"303 575 LINE",
"341 593 OFFCURVE",
"374 612 OFFCURVE",
"402 634 CURVE",
"396 666 LINE"
);
},
{
closed = 1;
nodes = (
"452 666 LINE",
"451 611 LINE",
"589 587 LINE",
"592 666 LINE"
);
},
{
closed = 1;
nodes = (
"614 666 LINE",
"615 575 LINE",
"653 591 OFFCURVE",
"710 612 OFFCURVE",
"738 634 CURVE",
"732 666 LINE"
);
},
{
closed = 1;
nodes = (
"31 666 LINE",
"30 611 LINE",
"168 587 LINE",
"171 666 LINE"
);
},
{
closed = 1;
nodes = (
"324 277 LINE",
"518 0 LINE",
"770 0 LINE",
"468 409 LINE"
);
},
{
closed = 1;
nodes = (
"650 0 LINE",
"781 0 LINE",
"782 55 LINE",
"652 85 LINE"
);
}
);
width = 787;
}
);
leftKerningGroup = I;
leftMetricsKey = I;
rightKerningGroup = K;
unicode = 004B;
},
{
color = 3;
glyphname = L;
layers = (
{
anchors = (
{
name = bottom;
position = "{332, 0}";
},
{
name = top;
position = "{230, 650}";
},
{
name = topright;
position = "{625, 650}";
}
);
layerId = "E25E64E2-9639-43F9-BB85-44020EE7B81E";
name = Regular;
paths = (
{
closed = 1;
nodes = (
"31 666 LINE",
"30 611 LINE",
"168 587 LINE",
"171 666 LINE"
);
},
{
closed = 1;
nodes = (
"302 666 LINE",
"303 575 LINE",
"341 593 OFFCURVE",
"374 612 OFFCURVE",
"402 634 CURVE",
"396 666 LINE"
);
},
{
closed = 1;
nodes = (
"83 73 OFFCURVE",
"50 54 OFFCURVE",
"22 32 CURVE",
"28 0 LINE",
"122 0 LINE",
"121 91 LINE"
);
},
{
closed = 1;
nodes = (
"290 98 LINE",
"215 0 LINE",
"628 0 LINE",
"611 135 LINE"
);
},
{
closed = 1;
nodes = (
"107 666 LINE",
"107 0 LINE",
"317 0 LINE",
"317 666 LINE"
);
},
{
closed = 1;
nodes = (
"438 8 LINE",
"629 0 LINE",
"642 73 OFFCURVE",
"646 189 OFFCURVE",
"644 261 CURVE",
"525 272 LINE"
);
}
);
width = 643;
}
);
leftKerningGroup = I;
leftMetricsKey = I;
rightKerningGroup = L;
unicode = 004C;
},
{
color = 3;
glyphname = M;
layers = (
{
layerId = "E25E64E2-9639-43F9-BB85-44020EE7B81E";
name = Regular;
paths = (
{
closed = 1;
nodes = (
"34 650 LINE",
"33 603 LINE",
"171 563 LINE",
"174 650 LINE"
);
},
{
closed = 1;
nodes = (
"120 650 LINE",
"107 0 LINE",
"250 0 LINE",
"252 264 LINE",
"232 519 LINE",
"361 650 LINE"
);
},
{
closed = 1;
nodes = (
"82 73 OFFCURVE",
"49 54 OFFCURVE",
"21 32 CURVE",
"27 0 LINE",
"121 0 LINE",
"120 91 LINE"
);
},
{
closed = 1;
nodes = (
"195 0 LINE",
"335 0 LINE",
"336 47 LINE SMOOTH",
"198 87 LINE"
);
},
{
closed = 1;
nodes = (
"180 605 LINE",
"401 -7 LINE",
"543 16 LINE",
"543 136 LINE",
"360 650 LINE"
);
},
{
closed = 1;
nodes = (
"456 36 LINE",
"543 16 LINE",
"772 613 LINE",
"688 650 LINE"
);
},
{
closed = 1;
nodes = (
"688 650 LINE",
"714 523 LINE",
"694 264 LINE",
"695 0 LINE",
"896 0 LINE",
"886 650 LINE"
);
},
{
closed = 1;
nodes = (
"877 650 LINE",
"878 559 LINE",
"916 577 OFFCURVE",
"949 596 OFFCURVE",
"977 618 CURVE",
"971 650 LINE"
);
},
{
closed = 1;
nodes = (
"671 73 OFFCURVE",
"638 54 OFFCURVE",
"610 32 CURVE",
"616 0 LINE",
"710 0 LINE",
"709 91 LINE"
);
},
{
closed = 1;
nodes = (
"844 0 LINE",
"984 0 LINE",
"985 47 LINE",
"847 87 LINE"
);
}
);
width = 1007;
}
);
leftKerningGroup = I;
leftMetricsKey = I;
rightKerningGroup = I;
rightMetricsKey = I;
unicode = 004D;
},
{
color = 3;
glyphname = N;
layers = (
{
anchors = (
{
name = bottom;
position = "{395, 0}";
},
{
name = top;
position = "{381, 650}";
}
);
layerId = "E25E64E2-9639-43F9-BB85-44020EE7B81E";
name = Regular;
paths = (
{
closed = 1;
nodes = (
"196 0 LINE",
"336 0 LINE",
"337 55 LINE",
"199 79 LINE"
);
},
{
closed = 1;
nodes = (
"83 73 OFFCURVE",
"50 54 OFFCURVE",
"22 32 CURVE",
"28 0 LINE",
"122 0 LINE",
"121 91 LINE"
);
},
{
closed = 1;
nodes = (
"107 666 LINE",
"107 0 LINE",
"249 0 LINE",
"249 280 LINE",
"221 534 LINE",
"299 666 LINE"
);
},
{
closed = 1;
nodes = (
"33 666 LINE",
"32 611 LINE",
"154 587 LINE",
"157 666 LINE"
);
},
{
closed = 1;
nodes = (
"122 666 LINE",
"121 568 LINE",
"516 -14 LINE",
"646 13 LINE",
"672 99 LINE",
"298 666 LINE"
);
},
{
closed = 1;
nodes = (
"464 666 LINE",
"463 611 LINE",
"601 587 LINE",
"604 666 LINE"
);
},
{
closed = 1;
nodes = (
"561 666 LINE",
"561 370 LINE",
"597 42 LINE",
"516 -14 LINE",
"695 0 LINE",
"703 666 LINE"
);
},
{
closed = 1;
nodes = (
"680 666 LINE",
"681 575 LINE",
"719 593 OFFCURVE",
"752 612 OFFCURVE",
"780 634 CURVE",
"774 666 LINE"
);
}
);
width = 802;
}
);
leftKerningGroup = I;
leftMetricsKey = I;
rightKerningGroup = I;
rightMetricsKey = I;
unicode = 004E;
},
{
color = 3;
glyphname = O;
layers = (
{
anchors = (
{
name = top;
position = "{350, 650}";
}
);
layerId = "E25E64E2-9639-43F9-BB85-44020EE7B81E";
name = Regular;
paths = (
{
closed = 1;
nodes = (
"159 686 OFFCURVE",
"8 548 OFFCURVE",
"8 328 CURVE SMOOTH",
"8 99 OFFCURVE",
"171 -20 OFFCURVE",
"354 -20 CURVE SMOOTH",
"532 -20 OFFCURVE",
"690 94 OFFCURVE",
"690 323 CURVE SMOOTH",
"690 554 OFFCURVE",
"531 686 OFFCURVE",
"347 686 CURVE SMOOTH"
);
},
{
closed = 1;
nodes = (
"298 574 OFFCURVE",
"316 579 OFFCURVE",
"334 579 CURVE SMOOTH",
"429 579 OFFCURVE",
"471 453 OFFCURVE",
"471 321 CURVE SMOOTH",
"471 220 OFFCURVE",
"446 133 OFFCURVE",
"409 93 CURVE",
"399 89 OFFCURVE",
"389 85 OFFCURVE",
"372 85 CURVE SMOOTH",
"282 85 OFFCURVE",
"227 186 OFFCURVE",
"227 350 CURVE SMOOTH",
"227 460 OFFCURVE",
"252 536 OFFCURVE",
"283 568 CURVE"
);
}
);
width = 698;
}
);
leftKerningGroup = O;
rightKerningGroup = O;
unicode = 004F;
},
{
color = 3;
glyphname = P;
layers = (
{
layerId = "E25E64E2-9639-43F9-BB85-44020EE7B81E";
name = Regular;
paths = (
{
closed = 1;
nodes = (
"26 666 LINE",
"301 561 LINE",
"418 577 LINE",
"447 556 OFFCURVE",
"462 494 OFFCURVE",
"462 448 CURVE SMOOTH",
"462 387 OFFCURVE",
"432 333 OFFCURVE",
"365 333 CURVE SMOOTH",
"345 333 OFFCURVE",
"316 337 OFFCURVE",
"287 349 CURVE",
"284 229 LINE",
"402 230 LINE SMOOTH",
"560 231 OFFCURVE",
"673 321 OFFCURVE",
"673 446 CURVE SMOOTH",
"673 563 OFFCURVE",
"576 676 OFFCURVE",
"393 674 CURVE SMOOTH"
);
},
{
closed = 1;
nodes = (
"85 73 OFFCURVE",
"52 54 OFFCURVE",
"24 32 CURVE",
"30 0 LINE",
"124 0 LINE",
"123 91 LINE"
);
},
{
closed = 1;
nodes = (
"294 0 LINE",
"434 0 LINE",
"435 55 LINE",
"297 79 LINE"
);
},
{
closed = 1;
nodes = (
"101 666 LINE",
"101 0 LINE",
"311 0 LINE",
"311 666 LINE"
);
},
{
closed = 1;
nodes = (
"26 666 LINE",
"25 611 LINE",
"155 589 LINE",
"157 666 LINE"
);
}
);
width = 682;
}
);
leftKerningGroup = I;
leftMetricsKey = I;
unicode = 0050;
},
{
color = 3;
glyphname = Q;
layers = (
{
components = (
{
name = O;
}
);
layerId = "E25E64E2-9639-43F9-BB85-44020EE7B81E";
name = Regular;
paths = (
{
closed = 1;
nodes = (
"336 -3 LINE",
"640 -202 LINE",
"735 -32 LINE",
"371 50 LINE"
);
}
);
width = 735;
}
);
leftKerningGroup = O;
leftMetricsKey = O;
rightKerningGroup = O;
unicode = 0051;
},
{
color = 3;
glyphname = R;
layers = (
{
anchors = (
{
name = bottom;
position = "{370, 0}";
},
{
name = top;
position = "{357, 650}";
}
);
layerId = "E25E64E2-9639-43F9-BB85-44020EE7B81E";
name = Regular;
paths = (
{
closed = 1;
nodes = (
"32 666 LINE",
"308 561 LINE",
"424 577 LINE",
"452 547 OFFCURVE",
"466 499 OFFCURVE",
"466 455 CURVE SMOOTH",
"466 385 OFFCURVE",
"431 343 OFFCURVE",
"364 343 CURVE SMOOTH",
"339 343 OFFCURVE",
"308 350 OFFCURVE",
"277 365 CURVE",
"290 248 LINE",
"416 249 LINE SMOOTH",
"563 249 OFFCURVE",
"678 341 OFFCURVE",
"678 460 CURVE SMOOTH",
"678 577 OFFCURVE",
"566 674 OFFCURVE",
"391 674 CURVE"
);
},
{
closed = 1;
nodes = (
"83 73 OFFCURVE",
"50 54 OFFCURVE",
"22 32 CURVE",
"28 0 LINE",
"122 0 LINE",
"121 91 LINE"
);
},
{
closed = 1;
nodes = (
"251 0 LINE",
"391 0 LINE",
"392 55 LINE",
"254 79 LINE"
);
},
{
closed = 1;
nodes = (
"107 666 LINE",
"107 0 LINE",
"317 0 LINE",
"317 666 LINE"
);
},
{
closed = 1;
nodes = (
"32 666 LINE",
"31 611 LINE",
"161 589 LINE",
"163 666 LINE"
);
},
{
closed = 1;
nodes = (
"345 288 LINE",
"494 0 LINE",
"724 0 LINE",
"540 297 LINE"
);
},
{
closed = 1;
nodes = (
"602 0 LINE",
"742 0 LINE",
"743 55 LINE",
"605 78 LINE"
);
}
);
width = 746;
}
);
leftKerningGroup = I;
leftMetricsKey = I;
rightKerningGroup = R;
unicode = 0052;
},
{
color = 3;
glyphname = S;
layers = (
{
anchors = (
{
name = bottom;
position = "{312, 0}";
},
{
name = top;
position = "{323, 650}";
}
);
layerId = "E25E64E2-9639-43F9-BB85-44020EE7B81E";
name = Regular;
paths = (
{
closed = 1;
nodes = (
"159 686 OFFCURVE",
"48 597 OFFCURVE",
"48 473 CURVE SMOOTH",
"48 355 OFFCURVE",
"148 300 OFFCURVE",
"238 258 CURVE SMOOTH",
"317 222 OFFCURVE",
"383 196 OFFCURVE",
"383 140 CURVE SMOOTH",
"383 117 OFFCURVE",
"369 91 OFFCURVE",
"331 74 CURVE",
"249 81 OFFCURVE",
"164 112 OFFCURVE",
"101 177 CURVE",
"50 39 LINE",
"126 2 OFFCURVE",
"235 -19 OFFCURVE",
"315 -19 CURVE SMOOTH",
"464 -19 OFFCURVE",
"589 55 OFFCURVE",
"589 190 CURVE SMOOTH",
"589 315 OFFCURVE",
"494 369 OFFCURVE",
"404 411 CURVE SMOOTH",
"320 450 OFFCURVE",
"243 475 OFFCURVE",
"243 526 CURVE SMOOTH",
"243 548 OFFCURVE",
"256 578 OFFCURVE",
"287 596 CURVE",
"370 590 OFFCURVE",
"442 561 OFFCURVE",
"503 495 CURVE",
"559 645 LINE",
"501 668 OFFCURVE",
"405 686 OFFCURVE",
"329 686 CURVE SMOOTH"
);
},
{
closed = 1;
nodes = (
"535 447 LINE",
"550 506 OFFCURVE",
"556 583 OFFCURVE",
"559 645 CURVE",
"358 638 LINE",
"430 447 LINE"
);
},
{
closed = 1;
nodes = (
"57 190 OFFCURVE",
"46 85 OFFCURVE",
"51 39 CURVE",
"276 28 LINE",
"161 241 LINE",
"71 241 LINE"
);
}
);
width = 622;
}
);
leftKerningGroup = S;
rightKerningGroup = S;
unicode = 0053;
},
{
color = 3;
glyphname = T;
layers = (
{
anchors = (
{
name = bottom;
position = "{346, 0}";
},
{
name = center;
position = "{346, 325}";
},
{
name = top;
position = "{346, 650}";
}
);
layerId = "E25E64E2-9639-43F9-BB85-44020EE7B81E";
name = Regular;
paths = (
{
closed = 1;
nodes = (
"242 666 LINE",
"242 0 LINE",
"452 0 LINE",
"452 666 LINE"
);
},
{
closed = 1;
nodes = (
"211 73 OFFCURVE",
"175 54 OFFCURVE",
"147 32 CURVE",
"153 0 LINE",
"250 0 LINE",
"249 91 LINE"
);
},
{
closed = 1;
nodes = (
"403 0 LINE",
"543 0 LINE",
"544 55 LINE",
"406 79 LINE"
);
},
{
closed = 1;
nodes = (
"396 666 OFFCURVE",
"302 666 OFFCURVE",
"7 672 CURVE",
"24 558 LINE",
"347 595 LINE",
"668 558 LINE",
"685 672 LINE"
);
},
{
closed = 1;
nodes = (
"664 419 LINE",
"678 486 OFFCURVE",
"690 626 OFFCURVE",
"686 672 CURVE",
"532 658 LINE",
"557 419 LINE SMOOTH"
);
},
{
closed = 1;
nodes = (
"160 658 LINE",
"7 672 LINE",
"2 626 OFFCURVE",
"14 486 OFFCURVE",
"29 419 CURVE",
"135 419 LINE"
);
}
);
width = 692;
}
);
leftKerningGroup = T;
rightKerningGroup = T;
unicode = 0054;
},
{
color = 3;
glyphname = U;
layers = (
{
anchors = (
{
name = ogonek;
position = "{551, 0}";
},
{
name = top;
position = "{385, 650}";
}
);
layerId = "E25E64E2-9639-43F9-BB85-44020EE7B81E";
name = Regular;
paths = (
{
closed = 1;
nodes = (
"540 666 LINE",
"540 295 LINE SMOOTH",
"540 210 OFFCURVE",
"529 146 OFFCURVE",
"506 114 CURVE",
"486 97 OFFCURVE",
"460 87 OFFCURVE",
"427 87 CURVE SMOOTH",
"353 87 OFFCURVE",
"293 134 OFFCURVE",
"293 257 CURVE SMOOTH",
"293 666 LINE",
"83 666 LINE",
"83 307 LINE SMOOTH",
"83 81 OFFCURVE",
"225 -20 OFFCURVE",
"404 -20 CURVE SMOOTH",
"552 -20 OFFCURVE",
"682 51 OFFCURVE",
"682 289 CURVE SMOOTH",
"682 666 LINE"
);
},
{
closed = 1;
nodes = (
"7 666 LINE",
"6 611 LINE",
"144 587 LINE",
"147 666 LINE"
);
},
{
closed = 1;
nodes = (
"278 666 LINE",
"279 575 LINE",
"317 593 OFFCURVE",
"350 612 OFFCURVE",
"378 634 CURVE",
"372 666 LINE"
);
},
{
closed = 1;
nodes = (
"461 666 LINE",
"460 611 LINE",
"598 587 LINE",
"601 666 LINE"
);
},
{
closed = 1;
nodes = (
"667 666 LINE",
"668 575 LINE",
"706 593 OFFCURVE",
"739 612 OFFCURVE",
"767 634 CURVE",
"761 666 LINE"
);
}
);
width = 773;
}
);
leftKerningGroup = U;
rightKerningGroup = U;
unicode = 0055;
},
{
color = 3;
glyphname = V;
layers = (
{
layerId = "E25E64E2-9639-43F9-BB85-44020EE7B81E";
name = Regular;
paths = (
{
closed = 1;
nodes = (
"42 666 LINE",
"286 -18 LINE",
"352 -13 OFFCURVE",
"418 -6 OFFCURVE",
"468 2 CURVE",
"412 143 LINE",
"383 144 LINE",
"371 287 LINE",
"255 666 LINE"
);
},
{
closed = 1;
nodes = (
"-3 666 LINE",
"-4 611 LINE",
"134 587 LINE",
"137 666 LINE"
);
},
{
closed = 1;
nodes = (
"467 2 LINE",
"692 666 LINE",
"561 666 LINE",
"357 37 LINE"
);
},
{
closed = 1;
nodes = (
"252 666 LINE",
"257 575 LINE",
"295 593 OFFCURVE",
"328 612 OFFCURVE",
"356 634 CURVE",
"350 666 LINE"
);
},
{
closed = 1;
nodes = (
"453 666 LINE",
"452 611 LINE",
"590 587 LINE",
"593 666 LINE"
);
},
{
closed = 1;
nodes = (
"638 666 LINE",
"643 575 LINE",
"681 593 OFFCURVE",
"714 612 OFFCURVE",
"742 634 CURVE",
"736 666 LINE"
);
}
);
width = 738;
}
);
leftKerningGroup = V;
rightKerningGroup = V;
unicode = 0056;
},
{
color = 3;
glyphname = W;
layers = (
{
anchors = (
{
name = top;
position = "{526, 650}";
}
);
layerId = "E25E64E2-9639-43F9-BB85-44020EE7B81E";
name = Regular;
paths = (
{
closed = 1;
nodes = (
"5 666 LINE",
"4 611 LINE",
"142 587 LINE",
"145 666 LINE"
);
},
{
closed = 1;
nodes = (
"258 666 LINE",
"263 575 LINE",
"301 593 OFFCURVE",
"334 612 OFFCURVE",
"362 634 CURVE",
"356 666 LINE"
);
},
{
closed = 1;
nodes = (
"49 666 LINE",
"276 -18 LINE",
"343 -13 OFFCURVE",
"401 -7 OFFCURVE",
"451 2 CURVE",
"405 143 LINE",
"368 144 LINE",
"363 294 LINE",
"262 666 LINE"
);
},
{
closed = 1;
nodes = (
"344 37 LINE",
"451 2 LINE",
"507 185 LINE",
"534 314 LINE",
"552 315 LINE",
"602 487 LINE",
"486 535 LINE"
);
},
{
closed = 1;
nodes = (
"428 623 LINE",
"636 -18 LINE",
"703 -13 OFFCURVE",
"761 -7 OFFCURVE",
"811 2 CURVE",
"773 143 LINE",
"731 144 LINE",
"723 315 LINE",
"623 664 LINE"
);
},
{
closed = 1;
nodes = (
"811 2 LINE",
"1003 666 LINE",
"873 666 LINE",
"703 37 LINE"
);
},
{
closed = 1;
nodes = (
"762 666 LINE",
"761 611 LINE",
"899 587 LINE",
"902 666 LINE"
);
},
{
closed = 1;
nodes = (
"949 666 LINE",
"954 575 LINE",
"992 593 OFFCURVE",
"1025 612 OFFCURVE",
"1053 634 CURVE",
"1047 666 LINE"
);
}
);
width = 1049;
}
);
leftKerningGroup = V;
leftMetricsKey = V;
rightKerningGroup = V;
rightMetricsKey = V;
unicode = 0057;
},
{
color = 3;
glyphname = X;
layers = (
{
layerId = "E25E64E2-9639-43F9-BB85-44020EE7B81E";
name = Regular;
paths = (
{
closed = 1;
nodes = (
"154 587 LINE",
"157 666 LINE",
"17 666 LINE",
"16 611 LINE"
);
},
{
closed = 1;
nodes = (
"256 666 LINE",
"261 575 LINE",
"299 593 OFFCURVE",
"332 612 OFFCURVE",
"360 634 CURVE",
"354 666 LINE"
);
},
{
closed = 1;
nodes = (
"431 666 LINE",
"430 611 LINE",
"568 587 LINE",
"571 666 LINE"
);
},
{
closed = 1;
nodes = (
"615 666 LINE",
"620 575 LINE",
"658 593 OFFCURVE",
"691 612 OFFCURVE",
"719 634 CURVE",
"713 666 LINE"
);
},
{
closed = 1;
nodes = (
"55 73 OFFCURVE",
"22 54 OFFCURVE",
"-6 32 CURVE",
"0 0 LINE",
"98 0 LINE",
"93 91 LINE"
);
},
{
closed = 1;
nodes = (
"160 0 LINE",
"300 0 LINE",
"301 55 LINE",
"163 79 LINE"
);
},
{
closed = 1;
nodes = (
"453 73 OFFCURVE",
"420 54 OFFCURVE",
"392 32 CURVE",
"398 0 LINE",
"496 0 LINE",
"491 91 LINE"
);
},
{
closed = 1;
nodes = (
"608 0 LINE",
"748 0 LINE",
"749 55 LINE",
"607 79 LINE"
);
},
{
closed = 1;
nodes = (
"35 666 LINE",
"490 0 LINE",
"723 0 LINE",
"267 666 LINE"
);
},
{
closed = 1;
nodes = (
"549 666 LINE",
"368 377 LINE",
"477 345 LINE",
"688 666 LINE"
);
},
{
closed = 1;
nodes = (
"23 0 LINE",
"180 0 LINE",
"408 348 LINE",
"302 400 LINE"
);
}
);
width = 727;
}
);
unicode = 0058;
},
{
color = 3;
glyphname = Y;
layers = (
{
anchors = (
{
name = top;
position = "{370, 650}";
}
);
layerId = "E25E64E2-9639-43F9-BB85-44020EE7B81E";
name = Regular;
paths = (
{
closed = 1;
nodes = (
"25 666 LINE",
"254 234 LINE",
"419 322 LINE",
"398 364 LINE",
"372 363 LINE",
"344 452 LINE",
"230 666 LINE"
);
},
{
closed = 1;
nodes = (
"-3 666 LINE",
"-4 611 LINE",
"134 587 LINE",
"137 666 LINE"
);
},
{
closed = 1;
nodes = (
"207 666 LINE",
"212 575 LINE",
"250 593 OFFCURVE",
"283 612 OFFCURVE",
"311 634 CURVE",
"305 666 LINE"
);
},
{
closed = 1;
nodes = (
"532 666 LINE",
"344 293 LINE",
"437 248 LINE",
"661 666 LINE"
);
},
{
closed = 1;
nodes = (
"431 666 LINE",
"430 611 LINE",
"568 587 LINE",
"571 666 LINE"
);
},
{
closed = 1;
nodes = (
"602 666 LINE",
"607 575 LINE",
"645 593 OFFCURVE",
"678 612 OFFCURVE",
"706 634 CURVE",
"700 666 LINE"
);
},
{
closed = 1;
nodes = (
"250 0 LINE",
"452 0 LINE",
"452 334 LINE",
"250 334 LINE"
);
},
{
closed = 1;
nodes = (
"227 73 OFFCURVE",
"194 54 OFFCURVE",
"166 32 CURVE",
"172 0 LINE",
"266 0 LINE",
"265 91 LINE"
);
},
{
closed = 1;
nodes = (
"396 0 LINE",
"536 0 LINE",
"537 55 LINE",
"399 79 LINE"
);
}
);
width = 697;
}
);
leftKerningGroup = Y;
leftMetricsKey = V;
rightKerningGroup = Y;
rightMetricsKey = V;
unicode = 0059;
},
{
color = 3;
glyphname = Z;
layers = (
{
layerId = "E25E64E2-9639-43F9-BB85-44020EE7B81E";
name = Regular;
paths = (
{
closed = 1;
nodes = (
"104 548 LINE",
"574 588 LINE",
"603 666 LINE",
"67 666 LINE"
);
},
{
closed = 1;
nodes = (
"537 623 LINE",
"432 611 LINE",
"31 90 LINE",
"89 -1 LINE",
"147 39 LINE",
"241 47 LINE",
"648 578 LINE",
"603 666 LINE"
);
},
{
closed = 1;
nodes = (
"154 97 LINE",
"89 -1 LINE",
"627 0 LINE",
"610 118 LINE"
);
},
{
closed = 1;
nodes = (
"251 602 LINE",
"67 666 LINE",
"60 588 OFFCURVE",
"60 491 OFFCURVE",
"73 416 CURVE",
"187 416 LINE"
);
},
{
closed = 1;
nodes = (
"432 17 LINE",
"627 0 LINE",
"641 86 OFFCURVE",
"650 151 OFFCURVE",
"653 235 CURVE",
"531 252 LINE"
);
}
);
width = 689;
}
);
leftKerningGroup = Z;
rightKerningGroup = Z;
unicode = 005A;
},
{
color = 3;
glyphname = bracketleft;
layers = (
{
layerId = "E25E64E2-9639-43F9-BB85-44020EE7B81E";
name = Regular;
paths = (
{
closed = 1;
nodes = (
"84 712 LINE",
"84 -122 LINE",
"408 -122 LINE",
"414 -58 LINE",
"284 -20 LINE",
"284 610 LINE",
"414 648 LINE",
"408 712 LINE"
);
}
);
width = 440;
}
);
unicode = 005B;
},
{
color = 3;
glyphname = backslash;
layers = (
{
layerId = "E25E64E2-9639-43F9-BB85-44020EE7B81E";
name = Regular;
paths = (
{
closed = 1;
nodes = (
"415 -70 LINE",
"107 739 LINE",
"-39 681 LINE",
"267 -126 LINE"
);
}
);
width = 417;
}
);
unicode = 005C;
},
{
color = 3;
glyphname = bracketright;
layers = (
{
layerId = "E25E64E2-9639-43F9-BB85-44020EE7B81E";
name = Regular;
paths = (
{
closed = 1;
nodes = (
"26 648 LINE",
"156 610 LINE",
"156 -20 LINE",
"26 -58 LINE",
"32 -122 LINE",
"356 -122 LINE",
"356 712 LINE",
"32 712 LINE"
);
}
);
width = 440;
}
);
unicode = 005D;
},
{
color = 3;
glyphname = asciicircum;
layers = (
{
layerId = "E25E64E2-9639-43F9-BB85-44020EE7B81E";
name = Regular;
paths = (
{
closed = 1;
nodes = (
"8 379 LINE",
"106 319 LINE",
"238 520 LINE",
"245 520 LINE",
"384 320 LINE",
"477 380 LINE",
"289 650 LINE",
"191 650 LINE"
);
}
);
width = 483;
}
);
unicode = 005E;
},
{
color = 3;
glyphname = underscore;
layers = (
{
layerId = "E25E64E2-9639-43F9-BB85-44020EE7B81E";
name = Regular;
paths = (
{
closed = 1;
nodes = (
"10 -124 LINE",
"10 -221 LINE",
"522 -221 LINE",
"522 -124 LINE"
);
}
);
width = 532;
}
);
unicode = 005F;
},
{
color = 3;
glyphname = a;
layers = (
{
anchors = (
{
name = top;
position = "{271, 468}";
}
);
layerId = "E25E64E2-9639-43F9-BB85-44020EE7B81E";
name = Regular;
paths = (
{
closed = 1;
nodes = (
"49 209 OFFCURVE",
"24 159 OFFCURVE",
"24 117 CURVE SMOOTH",
"24 46 OFFCURVE",
"96 -32 OFFCURVE",
"219 -12 CURVE",
"342 69 LINE",
"325 111 LINE",
"300 104 OFFCURVE",
"266 94 OFFCURVE",
"235 90 CURVE",
"225 101 OFFCURVE",
"220 119 OFFCURVE",
"220 132 CURVE SMOOTH",
"220 167 OFFCURVE",
"258 178 OFFCURVE",
"299 178 CURVE",
"331 178 LINE",
"331 244 LINE",
"109 239 LINE"
);
},
{
closed = 1;
nodes = (
"51 402 OFFCURVE",
"57 342 OFFCURVE",
"72 293 CURVE",
"186 294 LINE",
"215 406 LINE",
"224 411 OFFCURVE",
"239 415 OFFCURVE",
"252 416 CURVE",
"273 405 OFFCURVE",
"297 381 OFFCURVE",
"297 318 CURVE SMOOTH",
"297 73 LINE",
"316 70 LINE",
"343 14 OFFCURVE",
"389 -17 OFFCURVE",
"435 -17 CURVE",
"578 65 LINE",
"575 110 LINE",
"551 109 OFFCURVE",
"538 108 OFFCURVE",
"522 108 CURVE SMOOTH",
"506 108 OFFCURVE",
"498 120 OFFCURVE",
"498 134 CURVE",
"498 329 LINE",
"498 385 OFFCURVE",
"496 415 OFFCURVE",
"486 431 CURVE SMOOTH",
"445 485 OFFCURVE",
"392 505 OFFCURVE",
"333 505 CURVE SMOOTH",
"273 505 OFFCURVE",
"150 486 OFFCURVE",
"59 454 CURVE"
);
}
);
width = 581;
}
);
leftKerningGroup = a;
rightKerningGroup = a;
unicode = 0061;
},
{
color = 3;
glyphname = b;
layers = (
{
layerId = "E25E64E2-9639-43F9-BB85-44020EE7B81E";
name = Regular;
paths = (
{
closed = 1;
nodes = (
"195 737 LINE",
"53 679 LINE",
"53 19 LINE",
"254 40 LINE",
"254 683 LINE"
);
},
{
closed = 1;
nodes = (
"187 328 LINE",
"222 349 OFFCURVE",
"251 363 OFFCURVE",
"278 363 CURVE SMOOTH",
"337 363 OFFCURVE",
"369 302 OFFCURVE",
"369 232 CURVE SMOOTH",
"369 177 OFFCURVE",
"350 119 OFFCURVE",
"316 84 CURVE",
"256 76 OFFCURVE",
"203 96 OFFCURVE",
"160 145 CURVE",
"52 19 LINE",
"125 -4 OFFCURVE",
"208 -18 OFFCURVE",
"274 -18 CURVE SMOOTH",
"484 -18 OFFCURVE",
"576 125 OFFCURVE",
"576 266 CURVE SMOOTH",
"576 398 OFFCURVE",
"496 516 OFFCURVE",
"356 494 CURVE",
"178 360 LINE"
);
},
{
closed = 1;
nodes = (
"-22 648 LINE",
"103 617 LINE",
"190 651 LINE",
"195 737 LINE",
"115 733 OFFCURVE",
"40 720 OFFCURVE",
"-24 698 CURVE"
);
}
);
width = 590;
}
);
leftKerningGroup = b;
rightKerningGroup = o;
rightMetricsKey = o;
unicode = 0062;
},
{
color = 3;
glyphname = c;
layers = (
{
anchors = (
{
name = bottom;
position = "{255, 0}";
},
{
name = top;
position = "{271, 468}";
}
);
layerId = "E25E64E2-9639-43F9-BB85-44020EE7B81E";
name = Regular;
paths = (
{
closed = 1;
nodes = (
"444 140 LINE",
"404 120 OFFCURVE",
"369 108 OFFCURVE",
"333 108 CURVE SMOOTH",
"245 108 OFFCURVE",
"199 176 OFFCURVE",
"199 269 CURVE SMOOTH",
"199 306 OFFCURVE",
"207 366 OFFCURVE",
"243 403 CURVE",
"276 376 OFFCURVE",
"298 333 OFFCURVE",
"319 274 CURVE",
"484 353 LINE",
"464 455 OFFCURVE",
"367 504 OFFCURVE",
"269 504 CURVE SMOOTH",
"123 504 OFFCURVE",
"8 399 OFFCURVE",
"8 240 CURVE SMOOTH",
"8 55 OFFCURVE",
"167 -43 OFFCURVE",
"322 -12 CURVE",
"470 81 LINE"
);
}
);
width = 479;
}
);
leftKerningGroup = o;
leftMetricsKey = o;
rightKerningGroup = c;
unicode = 0063;
},
{
color = 3;
glyphname = d;
layers = (
{
anchors = (
{
name = center;
position = "{54, 47}";
},
{
name = topright;
position = "{104, 130}";
}
);
layerId = "E25E64E2-9639-43F9-BB85-44020EE7B81E";
name = Regular;
paths = (
{
closed = 1;
nodes = (
"604 110 LINE",
"580 109 OFFCURVE",
"567 108 OFFCURVE",
"551 108 CURVE SMOOTH",
"536 108 OFFCURVE",
"527 120 OFFCURVE",
"527 134 CURVE SMOOTH",
"527 683 LINE",
"468 737 LINE",
"326 679 LINE",
"326 73 LINE",
"345 70 LINE",
"372 14 OFFCURVE",
"417 -17 OFFCURVE",
"463 -17 CURVE",
"607 65 LINE"
);
},
{
closed = 1;
nodes = (
"415 168 LINE",
"372 137 OFFCURVE",
"330 124 OFFCURVE",
"303 124 CURVE SMOOTH",
"245 124 OFFCURVE",
"217 184 OFFCURVE",
"217 254 CURVE SMOOTH",
"217 310 OFFCURVE",
"235 369 OFFCURVE",
"268 401 CURVE",
"332 397 OFFCURVE",
"386 365 OFFCURVE",
"423 315 CURVE",
"445 456 LINE",
"388 485 OFFCURVE",
"335 499 OFFCURVE",
"279 499 CURVE SMOOTH",
"94 499 OFFCURVE",
"8 367 OFFCURVE",
"8 234 CURVE SMOOTH",
"8 102 OFFCURVE",
"89 -19 OFFCURVE",
"229 -17 CURVE",
"407 119 LINE"
);
},
{
closed = 1;
nodes = (
"376 617 LINE",
"463 651 LINE",
"468 737 LINE",
"388 733 OFFCURVE",
"313 720 OFFCURVE",
"249 698 CURVE",
"251 648 LINE"
);
}
);
width = 609;
}
);
leftKerningGroup = o;
leftMetricsKey = o;
rightKerningGroup = l;
unicode = 0064;
},
{
color = 3;
glyphname = e;
layers = (
{
anchors = (
{
name = bottom;
position = "{272, 0}";
},
{
name = ogonek;
position = "{481, 18}";
},
{
name = top;
position = "{267, 468}";
}
);
layerId = "E25E64E2-9639-43F9-BB85-44020EE7B81E";
name = Regular;
paths = (
{
closed = 1;
nodes = (
"461 147 LINE",
"413 121 OFFCURVE",
"376 108 OFFCURVE",
"334 108 CURVE SMOOTH",
"251 108 OFFCURVE",
"192 159 OFFCURVE",
"192 257 CURVE SMOOTH",
"192 313 OFFCURVE",
"211 385 OFFCURVE",
"252 413 CURVE",
"303 407 OFFCURVE",
"333 331 OFFCURVE",
"323 271 CURVE",
"503 278 LINE",
"504 448 OFFCURVE",
"370 504 OFFCURVE",
"272 504 CURVE SMOOTH",
"138 504 OFFCURVE",
"8 401 OFFCURVE",
"8 236 CURVE SMOOTH",
"8 55 OFFCURVE",
"167 -42 OFFCURVE",
"331 -11 CURVE",
"489 85 LINE"
);
},
{
closed = 1;
nodes = (
"134 220 LINE",
"444 219 LINE",
"503 278 LINE",
"395 318 LINE",
"118 299 LINE"
);
}
);
width = 516;
}
);
leftKerningGroup = o;
leftMetricsKey = o;
rightKerningGroup = e;
unicode = 0065;
},
{
color = 3;
glyphname = f;
layers = (
{
layerId = "E25E64E2-9639-43F9-BB85-44020EE7B81E";
name = Regular;
paths = (
{
closed = 1;
nodes = (
"460 702 LINE",
"407 734 OFFCURVE",
"346 751 OFFCURVE",
"299 751 CURVE SMOOTH",
"179 751 OFFCURVE",
"82 651 OFFCURVE",
"82 526 CURVE SMOOTH",
"82 0 LINE",
"284 0 LINE",
"284 437 LINE",
"285 467 LINE",
"208 634 LINE",
"267 603 OFFCURVE",
"316 568 OFFCURVE",
"358 527 CURVE"
);
},
{
closed = 1;
nodes = (
"225 351 LINE",
"228 426 LINE",
"146 499 LINE",
"99 469 OFFCURVE",
"51 439 OFFCURVE",
"3 406 CURVE",
"4 350 LINE"
);
},
{
closed = 1;
nodes = (
"140 0 LINE",
"148 88 LINE",
"106 79 OFFCURVE",
"58 61 OFFCURVE",
"16 35 CURVE",
"17 0 LINE"
);
},
{
closed = 1;
nodes = (
"374 0 LINE",
"375 49 LINE",
"333 76 OFFCURVE",
"288 94 OFFCURVE",
"244 107 CURVE",
"211 0 LINE"
);
},
{
closed = 1;
nodes = (
"227 349 LINE",
"345 349 LINE",
"397 418 LINE",
"396 474 LINE",
"227 474 LINE"
);
}
);
width = 405;
}
);
leftKerningGroup = f;
leftMetricsKey = n;
rightKerningGroup = f;
unicode = 0066;
},
{
color = 3;
glyphname = g;
layers = (
{
anchors = (
{
name = top;
position = "{268, 468}";
}
);
layerId = "E25E64E2-9639-43F9-BB85-44020EE7B81E";
name = Regular;
paths = (
{
closed = 1;
nodes = (
"409 564 OFFCURVE",
"388 439 OFFCURVE",
"413 352 CURVE",
"435 375 LINE",
"475 411 OFFCURVE",
"526 424 OFFCURVE",
"587 413 CURVE",
"556 567 LINE"
);
},
{
closed = 1;
nodes = (
"429 156 OFFCURVE",
"516 241 OFFCURVE",
"516 331 CURVE SMOOTH",
"516 425 OFFCURVE",
"422 506 OFFCURVE",
"272 506 CURVE SMOOTH",
"111 506 OFFCURVE",
"25 413 OFFCURVE",
"25 326 CURVE SMOOTH",
"25 245 OFFCURVE",
"98 156 OFFCURVE",
"266 156 CURVE SMOOTH"
);
},
{
closed = 1;
nodes = (
"294 435 OFFCURVE",
"323 374 OFFCURVE",
"323 320 CURVE SMOOTH",
"323 283 OFFCURVE",
"312 246 OFFCURVE",
"295 236 CURVE",
"242 224 OFFCURVE",
"218 274 OFFCURVE",
"218 329 CURVE SMOOTH",
"218 366 OFFCURVE",
"227 410 OFFCURVE",
"241 419 CURVE"
);
},
{
closed = 1;
nodes = (
"164 44 LINE",
"7 -94 LINE",
"23 -216 OFFCURVE",
"141 -252 OFFCURVE",
"236 -252 CURVE SMOOTH",
"455 -252 OFFCURVE",
"612 -65 OFFCURVE",
"541 75 CURVE",
"441 104 OFFCURVE",
"319 126 OFFCURVE",
"201 127 CURVE",
"221 146 OFFCURVE",
"245 164 OFFCURVE",
"273 180 CURVE",
"206 197 LINE",
"141 167 OFFCURVE",
"90 129 OFFCURVE",
"39 78 CURVE",
"61 -4 LINE",
"195 -11 OFFCURVE",
"327 -32 OFFCURVE",
"416 -62 CURVE",
"388 -92 OFFCURVE",
"326 -109 OFFCURVE",
"270 -109 CURVE SMOOTH",
"210 -109 OFFCURVE",
"158 -91 OFFCURVE",
"158 -49 CURVE SMOOTH",
"158 -20 OFFCURVE",
"190 12 OFFCURVE",
"260 51 CURVE"
);
}
);
width = 591;
}
);
leftKerningGroup = g;
rightKerningGroup = g;
unicode = 0067;
},
{
color = 9;
glyphname = h;
layers = (
{
layerId = "E25E64E2-9639-43F9-BB85-44020EE7B81E";
name = Regular;
paths = (
{
closed = 1;
nodes = (
"133 617 LINE",
"220 651 LINE",
"225 737 LINE",
"145 733 OFFCURVE",
"70 720 OFFCURVE",
"6 698 CURVE",
"8 648 LINE"
);
},
{
closed = 1;
nodes = (
"83 0 LINE",
"284 0 LINE",
"284 683 LINE",
"225 737 LINE",
"83 679 LINE"
);
},
{
closed = 1;
nodes = (
"132 0 LINE",
"140 88 LINE",
"98 79 OFFCURVE",
"50 61 OFFCURVE",
"8 35 CURVE",
"9 0 LINE"
);
},
{
closed = 1;
nodes = (
"336 0 LINE",
"337 49 LINE",
"295 80 OFFCURVE",
"250 102 OFFCURVE",
"206 115 CURVE",
"173 0 LINE"
);
},
{
closed = 1;
nodes = (
"645 0 LINE",
"646 49 LINE",
"604 80 OFFCURVE",
"559 102 OFFCURVE",
"515 115 CURVE",
"482 0 LINE"
);
},
{
closed = 1;
nodes = (
"381 0 LINE",
"582 0 LINE",
"582 294 LINE SMOOTH",
"582 383 OFFCURVE",
"580 408 OFFCURVE",
"570 425 CURVE SMOOTH",
"529 489 OFFCURVE",
"455 500 OFFCURVE",
"416 498 CURVE",
"331 468 OFFCURVE",
"242 405 OFFCURVE",
"162 315 CURVE",
"163 294 LINE",
"211 330 OFFCURVE",
"264 366 OFFCURVE",
"311 369 CURVE SMOOTH",
"357 372 OFFCURVE",
"381 336 OFFCURVE",
"381 281 CURVE SMOOTH"
);
}
);
width = 658;
}
);
leftKerningGroup = l;
leftMetricsKey = n;
rightKerningGroup = n;
rightMetricsKey = n;
unicode = 0068;
},
{
color = 3;
glyphname = i;
layers = (
{
anchors = (
{
name = ogonek;
position = "{46, 0}";
}
);
layerId = "E25E64E2-9639-43F9-BB85-44020EE7B81E";
name = Regular;
paths = (
{
closed = 1;
nodes = (
"235 574 OFFCURVE",
"271 616 OFFCURVE",
"296 664 CURVE",
"264 711 OFFCURVE",
"220 752 OFFCURVE",
"170 780 CURVE",
"124 745 OFFCURVE",
"87 699 OFFCURVE",
"59 645 CURVE",
"93 603 OFFCURVE",
"140 567 OFFCURVE",
"192 543 CURVE"
);
},
{
closed = 1;
nodes = (
"131 383 LINE",
"218 417 LINE",
"223 503 LINE",
"143 500 OFFCURVE",
"68 487 OFFCURVE",
"4 464 CURVE",
"6 415 LINE"
);
},
{
closed = 1;
nodes = (
"81 0 LINE",
"282 0 LINE",
"282 450 LINE",
"223 503 LINE",
"81 445 LINE"
);
},
{
closed = 1;
nodes = (
"353 0 LINE",
"354 49 LINE",
"312 80 OFFCURVE",
"251 102 OFFCURVE",
"207 115 CURVE",
"174 0 LINE"
);
},
{
closed = 1;
nodes = (
"129 0 LINE",
"137 88 LINE",
"95 79 OFFCURVE",
"47 61 OFFCURVE",
"5 35 CURVE",
"6 0 LINE"
);
}
);
width = 366;
}
);
leftKerningGroup = n;
leftMetricsKey = n;
rightKerningGroup = i;
rightMetricsKey = n;
unicode = 0069;
},
{
color = 3;
glyphname = j;
layers = (
{
anchors = (
{
name = top;
position = "{30, 100}";
}
);
layerId = "E25E64E2-9639-43F9-BB85-44020EE7B81E";
name = Regular;
paths = (
{
closed = 1;
nodes = (
"236 574 OFFCURVE",
"272 615 OFFCURVE",
"297 664 CURVE",
"265 710 OFFCURVE",
"221 751 OFFCURVE",
"171 780 CURVE",
"125 745 OFFCURVE",
"88 699 OFFCURVE",
"60 645 CURVE",
"94 603 OFFCURVE",
"141 567 OFFCURVE",
"193 543 CURVE"
);
},
{
closed = 1;
nodes = (
"224 503 LINE",
"82 445 LINE",
"82 -69 LINE SMOOTH",
"82 -133 OFFCURVE",
"37 -164 OFFCURVE",
"-13 -181 CURVE",
"4 -222 LINE",
"210 -210 OFFCURVE",
"283 -114 OFFCURVE",
"283 -39 CURVE SMOOTH",
"283 450 LINE"
);
},
{
closed = 1;
nodes = (
"132 383 LINE",
"219 417 LINE",
"224 503 LINE",
"144 500 OFFCURVE",
"69 487 OFFCURVE",
"5 464 CURVE",
"7 415 LINE"
);
}
);
width = 346;
}
);
leftKerningGroup = j;
rightKerningGroup = j;
unicode = 006A;
},
{
color = 9;
glyphname = k;
layers = (
{
anchors = (
{
name = bottom;
position = "{328, 0}";
}
);
layerId = "E25E64E2-9639-43F9-BB85-44020EE7B81E";
name = Regular;
paths = (
{
closed = 1;
nodes = (
"132 617 LINE",
"219 651 LINE",
"224 737 LINE",
"144 733 OFFCURVE",
"69 720 OFFCURVE",
"5 698 CURVE",
"7 648 LINE"
);
},
{
closed = 1;
nodes = (
"83 0 LINE",
"284 0 LINE",
"284 683 LINE",
"225 737 LINE",
"83 679 LINE"
);
},
{
closed = 1;
nodes = (
"131 0 LINE",
"139 88 LINE",
"97 79 OFFCURVE",
"49 61 OFFCURVE",
"7 35 CURVE",
"8 0 LINE"
);
},
{
closed = 1;
nodes = (
"326 415 LINE",
"453 384 LINE",
"540 418 LINE",
"545 503 LINE",
"465 500 OFFCURVE",
"388 487 OFFCURVE",
"324 464 CURVE"
);
},
{
closed = 1;
nodes = (
"545 503 LINE",
"411 444 LINE",
"250 225 LINE",
"386 166 LINE",
"596 430 LINE"
);
},
{
closed = 1;
nodes = (
"609 55 OFFCURVE",
"594 66 OFFCURVE",
"581 76 CURVE SMOOTH",
"443 268 LINE",
"269 208 LINE",
"369 49 LINE SMOOTH",
"383 28 OFFCURVE",
"394 11 OFFCURVE",
"409 -3 CURVE",
"623 -3 LINE",
"627 45 LINE"
);
}
);
width = 644;
}
);
leftKerningGroup = l;
leftMetricsKey = n;
rightKerningGroup = k;
unicode = 006B;
},
{
color = 3;
glyphname = l;
layers = (
{
anchors = (
{
name = bottom;
position = "{193, 0}";
},
{
name = top;
position = "{175, 735}";
},
{
name = topright;
position = "{356, 468}";
}
);
layerId = "E25E64E2-9639-43F9-BB85-44020EE7B81E";
name = Regular;
paths = (
{
closed = 1;
nodes = (
"81 0 LINE",
"282 0 LINE",
"282 683 LINE",
"223 737 LINE",
"81 679 LINE"
);
},
{
closed = 1;
nodes = (
"131 617 LINE",
"218 651 LINE",
"223 737 LINE",
"143 733 OFFCURVE",
"68 720 OFFCURVE",
"4 698 CURVE",
"6 648 LINE"
);
},
{
closed = 1;
nodes = (
"353 0 LINE",
"354 49 LINE",
"312 80 OFFCURVE",
"251 102 OFFCURVE",
"207 115 CURVE",
"174 0 LINE"
);
},
{
closed = 1;
nodes = (
"129 0 LINE",
"137 88 LINE",
"95 79 OFFCURVE",
"47 61 OFFCURVE",
"5 35 CURVE",
"6 0 LINE"
);
}
);
width = 369;
}
);
leftKerningGroup = l;
leftMetricsKey = n;
rightKerningGroup = l;
unicode = 006C;
},
{
color = 9;
glyphname = m;
layers = (
{
layerId = "E25E64E2-9639-43F9-BB85-44020EE7B81E";
name = Regular;
paths = (
{
closed = 1;
nodes = (
"133 383 LINE",
"220 417 LINE",
"225 503 LINE",
"145 500 OFFCURVE",
"70 487 OFFCURVE",
"6 464 CURVE",
"8 415 LINE"
);
},
{
closed = 1;
nodes = (
"83 0 LINE",
"284 0 LINE",
"284 442 LINE",
"225 503 LINE",
"83 445 LINE"
);
},
{
closed = 1;
nodes = (
"380 0 LINE",
"581 0 LINE",
"581 294 LINE SMOOTH",
"581 383 OFFCURVE",
"579 408 OFFCURVE",
"569 425 CURVE SMOOTH",
"528 489 OFFCURVE",
"454 500 OFFCURVE",
"415 498 CURVE",
"330 468 OFFCURVE",
"241 405 OFFCURVE",
"161 315 CURVE",
"162 294 LINE",
"210 330 OFFCURVE",
"263 366 OFFCURVE",
"310 369 CURVE SMOOTH",
"356 372 OFFCURVE",
"380 336 OFFCURVE",
"380 281 CURVE SMOOTH"
);
},
{
closed = 1;
nodes = (
"677 0 LINE",
"878 0 LINE",
"878 294 LINE SMOOTH",
"878 383 OFFCURVE",
"876 408 OFFCURVE",
"866 425 CURVE SMOOTH",
"825 489 OFFCURVE",
"751 500 OFFCURVE",
"712 498 CURVE",
"627 468 OFFCURVE",
"538 405 OFFCURVE",
"458 315 CURVE",
"459 294 LINE",
"507 330 OFFCURVE",
"560 366 OFFCURVE",
"607 369 CURVE SMOOTH",
"653 372 OFFCURVE",
"677 336 OFFCURVE",
"677 281 CURVE SMOOTH"
);
},
{
closed = 1;
nodes = (
"132 0 LINE",
"140 88 LINE",
"98 79 OFFCURVE",
"50 61 OFFCURVE",
"8 35 CURVE",
"9 0 LINE"
);
},
{
closed = 1;
nodes = (
"338 0 LINE",
"339 49 LINE",
"297 80 OFFCURVE",
"252 102 OFFCURVE",
"208 115 CURVE",
"175 0 LINE"
);
},
{
closed = 1;
nodes = (
"635 0 LINE",
"637 49 LINE",
"595 80 OFFCURVE",
"549 102 OFFCURVE",
"505 115 CURVE",
"472 0 LINE"
);
},
{
closed = 1;
nodes = (
"955 0 LINE",
"957 49 LINE",
"915 80 OFFCURVE",
"853 102 OFFCURVE",
"809 115 CURVE",
"776 0 LINE"
);
}
);
width = 968;
}
);
leftKerningGroup = n;
leftMetricsKey = n;
rightKerningGroup = n;
rightMetricsKey = n;
unicode = 006D;
},
{
color = 9;
glyphname = n;
layers = (
{
anchors = (
{
name = bottom;
position = "{337, 0}";
},
{
name = top;
position = "{333, 468}";
}
);
layerId = "E25E64E2-9639-43F9-BB85-44020EE7B81E";
name = Regular;
paths = (
{
closed = 1;
nodes = (
"133 383 LINE",
"220 417 LINE",
"225 503 LINE",
"145 500 OFFCURVE",
"70 487 OFFCURVE",
"6 464 CURVE",
"8 415 LINE"
);
},
{
closed = 1;
nodes = (
"83 0 LINE",
"284 0 LINE",
"284 442 LINE",
"225 503 LINE",
"83 445 LINE"
);
},
{
closed = 1;
nodes = (
"132 0 LINE",
"140 88 LINE",
"98 79 OFFCURVE",
"50 61 OFFCURVE",
"8 35 CURVE",
"9 0 LINE"
);
},
{
closed = 1;
nodes = (
"338 0 LINE",
"339 49 LINE",
"297 80 OFFCURVE",
"252 102 OFFCURVE",
"208 115 CURVE",
"175 0 LINE"
);
},
{
closed = 1;
nodes = (
"653 0 LINE",
"655 49 LINE",
"613 80 OFFCURVE",
"551 102 OFFCURVE",
"507 115 CURVE",
"474 0 LINE"
);
},
{
closed = 1;
nodes = (
"382 0 LINE",
"583 0 LINE",
"583 294 LINE SMOOTH",
"583 383 OFFCURVE",
"581 408 OFFCURVE",
"571 425 CURVE SMOOTH",
"530 489 OFFCURVE",
"456 500 OFFCURVE",
"417 498 CURVE",
"332 468 OFFCURVE",
"243 405 OFFCURVE",
"163 315 CURVE",
"164 294 LINE",
"212 330 OFFCURVE",
"265 366 OFFCURVE",
"312 369 CURVE SMOOTH",
"358 372 OFFCURVE",
"382 336 OFFCURVE",
"382 281 CURVE SMOOTH"
);
}
);
width = 666;
}
);
leftKerningGroup = n;
rightKerningGroup = n;
unicode = 006E;
},
{
color = 3;
glyphname = o;
layers = (
{
anchors = (
{
name = top;
position = "{267, 468}";
}
);
layerId = "E25E64E2-9639-43F9-BB85-44020EE7B81E";
name = Regular;
paths = (
{
closed = 1;
nodes = (
"8 76 OFFCURVE",
"137 -20 OFFCURVE",
"272 -20 CURVE SMOOTH",
"407 -20 OFFCURVE",
"526 74 OFFCURVE",
"526 241 CURVE SMOOTH",
"526 413 OFFCURVE",
"399 504 OFFCURVE",
"267 504 CURVE SMOOTH",
"133 504 OFFCURVE",
"8 412 OFFCURVE",
"8 245 CURVE SMOOTH"
);
},
{
closed = 1;
nodes = (
"288 79 OFFCURVE",
"282 78 OFFCURVE",
"275 78 CURVE SMOOTH",
"227 78 OFFCURVE",
"210 148 OFFCURVE",
"210 239 CURVE SMOOTH",
"210 309 OFFCURVE",
"219 366 OFFCURVE",
"234 389 CURVE",
"241 394 OFFCURVE",
"251 396 OFFCURVE",
"261 396 CURVE SMOOTH",
"307 396 OFFCURVE",
"324 322 OFFCURVE",
"324 229 CURVE SMOOTH",
"324 158 OFFCURVE",
"316 99 OFFCURVE",
"296 82 CURVE"
);
}
);
width = 539;
}
);
leftKerningGroup = o;
rightKerningGroup = o;
unicode = 006F;
},
{
color = 3;
glyphname = p;
layers = (
{
layerId = "E25E64E2-9639-43F9-BB85-44020EE7B81E";
name = Regular;
paths = (
{
closed = 1;
nodes = (
"79 -201 LINE",
"280 -201 LINE",
"280 450 LINE",
"221 503 LINE",
"79 445 LINE"
);
},
{
closed = 1;
nodes = (
"137 -201 LINE",
"145 -113 LINE",
"103 -130 OFFCURVE",
"55 -148 OFFCURVE",
"13 -165 CURVE",
"14 -201 LINE"
);
},
{
closed = 1;
nodes = (
"378 -201 LINE",
"379 -152 LINE",
"337 -129 OFFCURVE",
"292 -107 OFFCURVE",
"248 -86 CURVE",
"215 -201 LINE"
);
},
{
closed = 1;
nodes = (
"213 327 LINE",
"248 349 OFFCURVE",
"278 363 OFFCURVE",
"304 363 CURVE SMOOTH",
"361 363 OFFCURVE",
"388 300 OFFCURVE",
"388 232 CURVE SMOOTH",
"388 176 OFFCURVE",
"370 119 OFFCURVE",
"342 87 CURVE",
"284 87 OFFCURVE",
"213 107 OFFCURVE",
"177 136 CURVE",
"99 65 LINE",
"174 25 OFFCURVE",
"273 -1 OFFCURVE",
"348 -1 CURVE SMOOTH",
"521 -1 OFFCURVE",
"602 132 OFFCURVE",
"602 265 CURVE SMOOTH",
"602 398 OFFCURVE",
"522 516 OFFCURVE",
"382 494 CURVE",
"204 359 LINE"
);
},
{
closed = 1;
nodes = (
"130 383 LINE",
"226 455 LINE",
"222 503 LINE",
"142 500 OFFCURVE",
"67 487 OFFCURVE",
"3 464 CURVE",
"5 415 LINE"
);
}
);
width = 619;
}
);
leftKerningGroup = n;
leftMetricsKey = n;
rightKerningGroup = o;
rightMetricsKey = o;
unicode = 0070;
},
{
color = 9;
glyphname = q;
layers = (
{
layerId = "E25E64E2-9639-43F9-BB85-44020EE7B81E";
name = Regular;
paths = (
{
closed = 1;
nodes = (
"336 -201 LINE",
"537 -201 LINE",
"537 462 LINE",
"365 424 LINE",
"336 418 LINE"
);
},
{
closed = 1;
nodes = (
"359 -201 LINE",
"364 -113 LINE",
"322 -122 OFFCURVE",
"274 -140 OFFCURVE",
"232 -165 CURVE",
"233 -201 LINE"
);
},
{
closed = 1;
nodes = (
"589 -201 LINE",
"590 -152 LINE",
"548 -121 OFFCURVE",
"503 -99 OFFCURVE",
"459 -86 CURVE",
"426 -201 LINE"
);
},
{
closed = 1;
nodes = (
"424 174 LINE",
"381 143 OFFCURVE",
"339 130 OFFCURVE",
"312 130 CURVE SMOOTH",
"255 130 OFFCURVE",
"226 190 OFFCURVE",
"226 260 CURVE SMOOTH",
"226 316 OFFCURVE",
"244 376 OFFCURVE",
"277 407 CURVE",
"341 404 OFFCURVE",
"395 371 OFFCURVE",
"432 322 CURVE",
"537 462 LINE",
"473 486 OFFCURVE",
"382 504 OFFCURVE",
"311 504 CURVE SMOOTH",
"111 504 OFFCURVE",
"17 377 OFFCURVE",
"17 239 CURVE SMOOTH",
"17 110 OFFCURVE",
"98 -13 OFFCURVE",
"238 -10 CURVE",
"416 126 LINE"
);
}
);
width = 602;
}
);
leftKerningGroup = o;
leftMetricsKey = o;
unicode = 0071;
},
{
color = 9;
glyphname = r;
layers = (
{
anchors = (
{
name = bottom;
position = "{197, 0}";
},
{
name = top;
position = "{277, 468}";
}
);
layerId = "E25E64E2-9639-43F9-BB85-44020EE7B81E";
name = Regular;
paths = (
{
closed = 1;
nodes = (
"133 383 LINE",
"220 417 LINE",
"225 503 LINE",
"145 500 OFFCURVE",
"70 487 OFFCURVE",
"6 464 CURVE",
"8 415 LINE"
);
},
{
closed = 1;
nodes = (
"83 0 LINE",
"284 0 LINE",
"284 414 LINE",
"225 503 LINE",
"83 445 LINE"
);
},
{
closed = 1;
nodes = (
"132 0 LINE",
"140 88 LINE",
"98 79 OFFCURVE",
"50 61 OFFCURVE",
"8 35 CURVE",
"9 0 LINE"
);
},
{
closed = 1;
nodes = (
"394 0 LINE",
"395 49 LINE",
"353 76 OFFCURVE",
"304 94 OFFCURVE",
"260 107 CURVE",
"227 0 LINE"
);
},
{
closed = 1;
nodes = (
"195 311 LINE",
"159 246 LINE",
"281 336 LINE",
"327 329 OFFCURVE",
"369 293 OFFCURVE",
"404 263 CURVE",
"529 416 LINE",
"509 484 OFFCURVE",
"422 518 OFFCURVE",
"354 497 CURVE"
);
}
);
width = 517;
}
);
leftKerningGroup = n;
leftMetricsKey = n;
rightKerningGroup = r;
unicode = 0072;
},
{
color = 3;
glyphname = s;
layers = (
{
layerId = "E25E64E2-9639-43F9-BB85-44020EE7B81E";
name = Regular;
paths = (
{
closed = 1;
nodes = (
"15 34 LINE",
"89 -4 OFFCURVE",
"168 -20 OFFCURVE",
"234 -20 CURVE SMOOTH",
"371 -20 OFFCURVE",
"450 49 OFFCURVE",
"450 138 CURVE SMOOTH",
"450 291 OFFCURVE",
"211 309 OFFCURVE",
"211 384 CURVE SMOOTH",
"211 398 OFFCURVE",
"218 414 OFFCURVE",
"254 421 CURVE",
"295 419 OFFCURVE",
"350 403 OFFCURVE",
"390 379 CURVE",
"427 470 LINE",
"380 494 OFFCURVE",
"316 504 OFFCURVE",
"263 504 CURVE SMOOTH",
"124 504 OFFCURVE",
"32 436 OFFCURVE",
"32 342 CURVE SMOOTH",
"32 192 OFFCURVE",
"267 174 OFFCURVE",
"267 103 CURVE SMOOTH",
"267 93 OFFCURVE",
"262 80 OFFCURVE",
"252 72 CURVE",
"193 98 OFFCURVE",
"134 135 OFFCURVE",
"78 180 CURVE"
);
},
{
closed = 1;
nodes = (
"412 326 LINE",
"427 373 OFFCURVE",
"432 422 OFFCURVE",
"427 470 CURVE",
"250 480 LINE",
"313 326 LINE"
);
}
);
width = 472;
}
);
leftKerningGroup = s;
rightKerningGroup = s;
unicode = 0073;
},
{
color = 3;
glyphname = t;
layers = (
{
anchors = (
{
name = bottom;
position = "{199, 0}";
},
{
name = center;
position = "{219, 234}";
},
{
name = topright;
position = "{417, 468}";
}
);
layerId = "E25E64E2-9639-43F9-BB85-44020EE7B81E";
name = Regular;
paths = (
{
closed = 1;
nodes = (
"391 129 LINE",
"368 127 OFFCURVE",
"338 125 OFFCURVE",
"315 125 CURVE SMOOTH",
"289 125 OFFCURVE",
"276 134 OFFCURVE",
"276 164 CURVE SMOOTH",
"276 443 LINE",
"236 613 LINE",
"146 613 LINE",
"75 450 LINE",
"75 99 LINE SMOOTH",
"75 35 OFFCURVE",
"144 -20 OFFCURVE",
"218 -17 CURVE",
"395 76 LINE"
);
},
{
closed = 1;
nodes = (
"218 351 LINE",
"222 426 LINE",
"194 540 LINE",
"112 496 OFFCURVE",
"46 452 OFFCURVE",
"-4 406 CURVE",
"-3 350 LINE"
);
},
{
closed = 1;
nodes = (
"232 349 LINE",
"354 349 LINE",
"405 417 LINE",
"405 474 LINE",
"232 474 LINE"
);
}
);
width = 421;
}
);
leftKerningGroup = t;
rightKerningGroup = t;
unicode = 0074;
},
{
color = 3;
glyphname = u;
layers = (
{
anchors = (
{
name = ogonek;
position = "{590, 10}";
},
{
name = top;
position = "{307, 468}";
}
);
layerId = "E25E64E2-9639-43F9-BB85-44020EE7B81E";
name = Regular;
paths = (
{
closed = 1;
nodes = (
"127 383 LINE",
"214 417 LINE",
"219 503 LINE",
"139 500 OFFCURVE",
"64 487 OFFCURVE",
"0 464 CURVE",
"2 415 LINE"
);
},
{
closed = 1;
nodes = (
"497 188 LINE",
"448 153 OFFCURVE",
"397 119 OFFCURVE",
"349 116 CURVE SMOOTH",
"300 112 OFFCURVE",
"278 140 OFFCURVE",
"278 194 CURVE SMOOTH",
"278 450 LINE",
"219 503 LINE",
"77 449 LINE",
"77 191 LINE SMOOTH",
"77 102 OFFCURVE",
"79 77 OFFCURVE",
"90 60 CURVE SMOOTH",
"131 -4 OFFCURVE",
"204 -21 OFFCURVE",
"243 -17 CURVE",
"330 13 OFFCURVE",
"421 78 OFFCURVE",
"498 167 CURVE"
);
},
{
closed = 1;
nodes = (
"423 383 LINE",
"510 417 LINE",
"515 503 LINE",
"443 501 OFFCURVE",
"376 489 OFFCURVE",
"320 468 CURVE",
"322 419 LINE"
);
},
{
closed = 1;
nodes = (
"627 109 OFFCURVE",
"614 108 OFFCURVE",
"598 108 CURVE SMOOTH",
"582 108 OFFCURVE",
"574 120 OFFCURVE",
"574 134 CURVE",
"574 450 LINE",
"515 503 LINE",
"373 449 LINE",
"373 77 LINE",
"392 74 LINE",
"419 18 OFFCURVE",
"464 -16 OFFCURVE",
"510 -17 CURVE",
"654 65 LINE",
"651 110 LINE"
);
}
);
width = 656;
}
);
leftKerningGroup = u;
rightKerningGroup = u;
rightMetricsKey = d;
unicode = 0075;
},
{
color = 9;
glyphname = v;
layers = (
{
layerId = "E25E64E2-9639-43F9-BB85-44020EE7B81E";
name = Regular;
paths = (
{
closed = 1;
nodes = (
"-31 426 LINE",
"160 296 LINE",
"213 482 LINE",
"-31 482 LINE"
);
},
{
closed = 1;
nodes = (
"220 -12 OFFCURVE",
"311 -11 OFFCURVE",
"359 3 CURVE",
"430 158 OFFCURVE",
"492 326 OFFCURVE",
"561 482 CURVE",
"344 482 LINE",
"337 385 OFFCURVE",
"326 275 OFFCURVE",
"313 178 CURVE",
"302 178 LINE",
"288 244 LINE",
"214 482 LINE",
"8 451 LINE",
"179 -4 LINE"
);
},
{
closed = 1;
nodes = (
"390 482 LINE",
"510 392 LINE",
"532 401 OFFCURVE",
"551 414 OFFCURVE",
"569 429 CURVE",
"568 482 LINE"
);
}
);
width = 565;
}
);
leftKerningGroup = v;
rightKerningGroup = v;
unicode = 0076;
},
{
color = 9;
glyphname = w;
layers = (
{
anchors = (
{
name = top;
position = "{76, 100}";
}
);
layerId = "E25E64E2-9639-43F9-BB85-44020EE7B81E";
name = Regular;
paths = (
{
closed = 1;
nodes = (
"-31 426 LINE",
"152 296 LINE",
"201 482 LINE",
"-31 482 LINE"
);
},
{
closed = 1;
nodes = (
"795 482 LINE",
"575 482 LINE",
"576 161 LINE",
"565 161 LINE",
"477 480 LINE",
"274 476 LINE",
"447 -4 LINE",
"488 -12 OFFCURVE",
"571 -11 OFFCURVE",
"620 4 CURVE"
);
},
{
closed = 1;
nodes = (
"627 482 LINE",
"747 392 LINE",
"769 401 OFFCURVE",
"788 414 OFFCURVE",
"806 429 CURVE",
"805 482 LINE"
);
},
{
closed = 1;
nodes = (
"363 298 LINE",
"314 161 LINE",
"302 161 LINE",
"202 482 LINE",
"0 451 LINE",
"165 -4 LINE",
"206 -12 OFFCURVE",
"297 -11 OFFCURVE",
"346 4 CURVE",
"421 176 LINE",
"440 273 LINE"
);
}
);
width = 803;
}
);
leftKerningGroup = v;
leftMetricsKey = v;
rightKerningGroup = v;
rightMetricsKey = v;
unicode = 0077;
},
{
color = 9;
glyphname = x;
layers = (
{
layerId = "E25E64E2-9639-43F9-BB85-44020EE7B81E";
name = Regular;
paths = (
{
closed = 1;
nodes = (
"13 426 LINE",
"211 296 LINE",
"248 482 LINE",
"13 482 LINE"
);
},
{
closed = 1;
nodes = (
"402 482 LINE",
"502 408 LINE",
"581 437 LINE",
"580 482 LINE"
);
},
{
closed = 1;
nodes = (
"365 0 LINE",
"580 0 LINE",
"248 482 LINE",
"46 445 LINE"
);
},
{
closed = 1;
nodes = (
"570 434 LINE",
"552 482 LINE",
"365 482 LINE",
"334 314 LINE",
"363 218 LINE"
);
},
{
closed = 1;
nodes = (
"7 38 LINE",
"33 0 LINE",
"234 0 LINE",
"266 174 LINE",
"223 259 LINE"
);
},
{
closed = 1;
nodes = (
"127 0 LINE",
"135 88 LINE",
"3 44 LINE",
"4 0 LINE"
);
},
{
closed = 1;
nodes = (
"595 0 LINE",
"596 49 LINE",
"554 80 OFFCURVE",
"509 102 OFFCURVE",
"465 115 CURVE",
"430 0 LINE"
);
}
);
width = 602;
}
);
leftKerningGroup = x;
rightKerningGroup = x;
unicode = 0078;
},
{
color = 9;
glyphname = y;
layers = (
{
anchors = (
{
name = top;
position = "{306, 468}";
}
);
layerId = "E25E64E2-9639-43F9-BB85-44020EE7B81E";
name = Regular;
paths = (
{
closed = 1;
nodes = (
"-32 426 LINE",
"168 296 LINE",
"221 482 LINE",
"-32 482 LINE"
);
},
{
closed = 1;
nodes = (
"315 -145 OFFCURVE",
"394 -47 OFFCURVE",
"449 92 CURVE SMOOTH",
"498 220 OFFCURVE",
"530 361 OFFCURVE",
"565 482 CURVE",
"357 482 LINE",
"343 385 OFFCURVE",
"323 281 OFFCURVE",
"304 186 CURVE",
"288 186 LINE",
"283 254 LINE",
"222 482 LINE",
"22 449 LINE",
"168 50 LINE",
"207 40 OFFCURVE",
"241 31 OFFCURVE",
"281 22 CURVE",
"205 -8 OFFCURVE",
"126 -34 OFFCURVE",
"45 -56 CURVE",
"148 -234 LINE"
);
},
{
closed = 1;
nodes = (
"400 482 LINE",
"520 392 LINE",
"542 401 OFFCURVE",
"569 414 OFFCURVE",
"587 429 CURVE",
"586 482 LINE"
);
}
);
width = 584;
}
);
leftKerningGroup = v;
leftMetricsKey = v;
rightKerningGroup = y;
rightMetricsKey = v;
unicode = 0079;
},
{
color = 9;
glyphname = z;
layers = (
{
anchors = (
{
name = top;
position = "{275, 468}";
}
);
layerId = "E25E64E2-9639-43F9-BB85-44020EE7B81E";
name = Regular;
paths = (
{
closed = 1;
nodes = (
"44 367 LINE",
"423 436 LINE",
"462 482 LINE",
"43 482 LINE"
);
},
{
closed = 1;
nodes = (
"456 160 LINE",
"402 144 LINE",
"125 76 LINE",
"98 33 LINE",
"474 -21 LINE",
"488 45 OFFCURVE",
"501 109 OFFCURVE",
"514 177 CURVE"
);
},
{
closed = 1;
nodes = (
"153 297 LINE",
"225 450 LINE",
"44 482 LINE",
"35 428 OFFCURVE",
"36 350 OFFCURVE",
"46 297 CURVE"
);
},
{
closed = 1;
nodes = (
"463 503 LINE",
"403 465 LINE",
"323 473 LINE",
"10 37 LINE",
"76 -18 LINE",
"154 36 LINE",
"227 38 LINE",
"526 442 LINE"
);
}
);
width = 537;
}
);
leftKerningGroup = z;
rightKerningGroup = z;
unicode = 007A;
},
{
color = 3;
glyphname = braceleft;
layers = (
{
layerId = "E25E64E2-9639-43F9-BB85-44020EE7B81E";
name = Regular;
paths = (
{
closed = 1;
nodes = (
"481 -24 LINE",
"359 -12 LINE",
"375 149 LINE SMOOTH",
"381 202 OFFCURVE",
"357 254 OFFCURVE",
"317 295 CURVE",
"317 304 LINE",
"357 344 OFFCURVE",
"381 397 OFFCURVE",
"375 449 CURVE SMOOTH",
"359 608 LINE",
"484 608 LINE",
"478 729 LINE",
"253 715 OFFCURVE",
"161 616 OFFCURVE",
"161 537 CURVE SMOOTH",
"161 443 LINE SMOOTH",
"161 374 OFFCURVE",
"154 333 OFFCURVE",
"68 327 CURVE",
"62 268 LINE",
"156 262 OFFCURVE",
"161 223 OFFCURVE",
"161 142 CURVE SMOOTH",
"161 34 LINE SMOOTH",
"161 -36 OFFCURVE",
"267 -135 OFFCURVE",
"471 -145 CURVE"
);
}
);
width = 565;
}
);
unicode = 007B;
},
{
color = 3;
glyphname = bar;
layers = (
{
layerId = "E25E64E2-9639-43F9-BB85-44020EE7B81E";
name = Regular;
paths = (
{
closed = 1;
nodes = (
"239 -225 LINE",
"238 735 LINE",
"93 735 LINE",
"93 -225 LINE"
);
}
);
width = 333;
}
);
unicode = 007C;
},
{
color = 3;
glyphname = braceright;
layers = (
{
layerId = "E25E64E2-9639-43F9-BB85-44020EE7B81E";
name = Regular;
paths = (
{
closed = 1;
nodes = (
"299 -135 OFFCURVE",
"405 -36 OFFCURVE",
"405 34 CURVE SMOOTH",
"405 142 LINE SMOOTH",
"405 223 OFFCURVE",
"410 262 OFFCURVE",
"504 268 CURVE",
"498 327 LINE",
"412 333 OFFCURVE",
"405 374 OFFCURVE",
"405 443 CURVE SMOOTH",
"405 537 LINE SMOOTH",
"405 616 OFFCURVE",
"313 715 OFFCURVE",
"88 729 CURVE",
"82 608 LINE",
"207 608 LINE",
"191 449 LINE SMOOTH",
"185 397 OFFCURVE",
"210 344 OFFCURVE",
"249 304 CURVE",
"249 295 LINE",
"210 254 OFFCURVE",
"185 202 OFFCURVE",
"191 149 CURVE SMOOTH",
"207 -12 LINE",
"85 -24 LINE",
"95 -145 LINE"
);
}
);
width = 567;
}
);
unicode = 007D;
},
{
color = 3;
glyphname = cent;
layers = (
{
components = (
{
name = c;
transform = "{1, 0, 0, 0.945, 0, 15}";
}
);
layerId = "E25E64E2-9639-43F9-BB85-44020EE7B81E";
name = Regular;
paths = (
{
closed = 1;
nodes = (
"218 469 LINE",
"328 469 LINE",
"328 597 LINE",
"218 597 LINE"
);
},
{
closed = 1;
nodes = (
"218 -117 LINE",
"328 -117 LINE",
"328 11 LINE",
"218 11 LINE"
);
}
);
width = 495;
}
);
leftMetricsKey = c;
rightMetricsKey = c;
unicode = 00A2;
},
{
color = 3;
glyphname = sterling;
layers = (
{
layerId = "E25E64E2-9639-43F9-BB85-44020EE7B81E";
name = Regular;
paths = (
{
closed = 1;
nodes = (
"167 670 OFFCURVE",
"67 555 OFFCURVE",
"67 449 CURVE SMOOTH",
"67 317 OFFCURVE",
"221 211 OFFCURVE",
"56 0 CURVE",
"173 0 LINE",
"414 179 OFFCURVE",
"281 365 OFFCURVE",
"281 485 CURVE SMOOTH",
"281 518 OFFCURVE",
"290 546 OFFCURVE",
"325 565 CURVE",
"392 552 OFFCURVE",
"444 529 OFFCURVE",
"502 473 CURVE",
"565 615 LINE",
"508 647 OFFCURVE",
"422 670 OFFCURVE",
"344 670 CURVE SMOOTH"
);
},
{
closed = 1;
nodes = (
"79 73 OFFCURVE",
"46 54 OFFCURVE",
"18 32 CURVE",
"24 0 LINE",
"118 0 LINE",
"117 91 LINE"
);
},
{
closed = 1;
nodes = (
"259 106 LINE",
"139 0 LINE",
"584 0 LINE",
"567 127 LINE"
);
},
{
closed = 1;
nodes = (
"441 298 LINE",
"435 335 LINE",
"280 335 LINE",
"243 317 LINE",
"55 317 LINE",
"12 276 LINE",
"18 239 LINE",
"224 239 LINE",
"262 257 LINE",
"398 257 LINE"
);
},
{
closed = 1;
nodes = (
"566 466 OFFCURVE",
"570 569 OFFCURVE",
"566 615 CURVE",
"341 617 LINE",
"453 415 LINE",
"552 415 LINE"
);
},
{
closed = 1;
nodes = (
"482 249 LINE",
"366 8 LINE",
"583 0 LINE",
"589 48 OFFCURVE",
"585 189 OFFCURVE",
"573 241 CURVE"
);
}
);
width = 617;
}
);
unicode = 00A3;
},
{
color = 3;
glyphname = currency;
layers = (
{
layerId = "E25E64E2-9639-43F9-BB85-44020EE7B81E";
name = Regular;
paths = (
{
closed = 1;
nodes = (
"65 244 OFFCURVE",
"144 156 OFFCURVE",
"255 156 CURVE SMOOTH",
"346 156 OFFCURVE",
"443 227 OFFCURVE",
"443 357 CURVE SMOOTH",
"443 487 OFFCURVE",
"355 554 OFFCURVE",
"257 554 CURVE SMOOTH",
"163 554 OFFCURVE",
"65 478 OFFCURVE",
"65 357 CURVE SMOOTH"
);
},
{
closed = 1;
nodes = (
"291 260 OFFCURVE",
"278 259 OFFCURVE",
"270 259 CURVE SMOOTH",
"206 259 OFFCURVE",
"177 312 OFFCURVE",
"177 364 CURVE SMOOTH",
"177 397 OFFCURVE",
"189 429 OFFCURVE",
"208 447 CURVE",
"220 449 OFFCURVE",
"229 450 OFFCURVE",
"239 450 CURVE SMOOTH",
"306 450 OFFCURVE",
"331 399 OFFCURVE",
"331 348 CURVE SMOOTH",
"331 314 OFFCURVE",
"319 281 OFFCURVE",
"302 263 CURVE"
);
},
{
closed = 1;
nodes = (
"132 259 LINE",
"50 170 LINE",
"104 121 LINE",
"181 213 LINE"
);
},
{
closed = 1;
nodes = (
"330 212 LINE",
"412 123 LINE",
"464 174 LINE",
"382 263 LINE"
);
},
{
closed = 1;
nodes = (
"177 500 LINE",
"99 587 LINE",
"44 538 LINE",
"125 447 LINE"
);
},
{
closed = 1;
nodes = (
"380 446 LINE",
"466 539 LINE",
"410 586 LINE",
"333 495 LINE"
);
}
);
width = 510;
}
);
unicode = 00A4;
},
{
color = 3;
glyphname = yen;
layers = (
{
components = (
{
name = Y;
transform = "{1, 0, 0, 1, -24, 0}";
}
);
layerId = "E25E64E2-9639-43F9-BB85-44020EE7B81E";
name = Regular;
paths = (
{
closed = 1;
nodes = (
"563 274 LINE",
"557 311 LINE",
"135 311 LINE",
"92 272 LINE",
"98 235 LINE",
"520 235 LINE"
);
},
{
closed = 1;
nodes = (
"563 156 LINE",
"557 193 LINE",
"135 193 LINE",
"92 154 LINE",
"98 117 LINE",
"520 117 LINE"
);
}
);
width = 685;
}
);
leftMetricsKey = y;
rightMetricsKey = Y;
unicode = 00A5;
},
{
color = 3;
glyphname = brokenbar;
layers = (
{
layerId = "E25E64E2-9639-43F9-BB85-44020EE7B81E";
name = Regular;
paths = (
{
closed = 1;
nodes = (
"238 358 LINE",
"238 616 LINE",
"93 616 LINE",
"93 358 LINE"
);
},
{
closed = 1;
nodes = (
"238 -76 LINE",
"238 182 LINE",
"93 182 LINE",
"93 -76 LINE"
);
}
);
width = 332;
}
);
leftMetricsKey = bar;
rightMetricsKey = bar;
unicode = 00A6;
},
{
color = 3;
glyphname = section;
layers = (
{
layerId = "E25E64E2-9639-43F9-BB85-44020EE7B81E";
name = Regular;
paths = (
{
closed = 1;
nodes = (
"477 535 OFFCURVE",
"481 590 OFFCURVE",
"477 636 CURVE",
"300 638 LINE",
"364 484 LINE",
"463 484 LINE"
);
},
{
closed = 1;
nodes = (
"383 116 LINE",
"463 146 OFFCURVE",
"508 198 OFFCURVE",
"508 265 CURVE SMOOTH",
"508 356 OFFCURVE",
"425 403 OFFCURVE",
"345 443 CURVE SMOOTH",
"281 475 OFFCURVE",
"239 493 OFFCURVE",
"239 532 CURVE SMOOTH",
"239 557 OFFCURVE",
"258 580 OFFCURVE",
"286 588 CURVE",
"340 585 OFFCURVE",
"400 563 OFFCURVE",
"436 535 CURVE",
"477 636 LINE",
"426 660 OFFCURVE",
"358 671 OFFCURVE",
"306 671 CURVE SMOOTH",
"172 671 OFFCURVE",
"76 602 OFFCURVE",
"76 502 CURVE SMOOTH",
"76 431 OFFCURVE",
"126 379 OFFCURVE",
"224 331 CURVE SMOOTH",
"283 302 OFFCURVE",
"365 274 OFFCURVE",
"365 217 CURVE SMOOTH",
"365 197 OFFCURVE",
"354 179 OFFCURVE",
"325 159 CURVE"
);
},
{
closed = 1;
nodes = (
"241 408 LINE",
"130 380 OFFCURVE",
"67 321 OFFCURVE",
"67 243 CURVE SMOOTH",
"67 157 OFFCURVE",
"145 113 OFFCURVE",
"240 65 CURVE SMOOTH",
"292 40 OFFCURVE",
"337 24 OFFCURVE",
"337 -11 CURVE SMOOTH",
"337 -28 OFFCURVE",
"325 -46 OFFCURVE",
"306 -56 CURVE",
"249 -28 OFFCURVE",
"196 0 OFFCURVE",
"145 48 CURVE",
"66 -89 LINE",
"138 -132 OFFCURVE",
"219 -150 OFFCURVE",
"280 -150 CURVE SMOOTH",
"397 -150 OFFCURVE",
"482 -83 OFFCURVE",
"482 9 CURVE SMOOTH",
"482 84 OFFCURVE",
"426 138 OFFCURVE",
"357 171 CURVE SMOOTH",
"294 201 OFFCURVE",
"209 221 OFFCURVE",
"209 277 CURVE SMOOTH",
"209 307 OFFCURVE",
"233 329 OFFCURVE",
"267 350 CURVE"
);
}
);
width = 549;
}
);
leftMetricsKey = S;
rightMetricsKey = S;
unicode = 00A7;
},
{
color = 3;
glyphname = copyright;
layers = (
{
layerId = "E25E64E2-9639-43F9-BB85-44020EE7B81E";
name = Regular;
paths = (
{
closed = 1;
nodes = (
"584 -26 OFFCURVE",
"745 129 OFFCURVE",
"745 330 CURVE SMOOTH",
"745 533 OFFCURVE",
"580 692 OFFCURVE",
"381 692 CURVE SMOOTH",
"182 692 OFFCURVE",
"24 533 OFFCURVE",
"24 332 CURVE SMOOTH",
"24 129 OFFCURVE",
"185 -26 OFFCURVE",
"385 -26 CURVE SMOOTH"
);
},
{
closed = 1;
nodes = (
"226 57 OFFCURVE",
"109 175 OFFCURVE",
"109 329 CURVE SMOOTH",
"109 487 OFFCURVE",
"233 609 OFFCURVE",
"385 609 CURVE SMOOTH",
"537 609 OFFCURVE",
"661 486 OFFCURVE",
"661 332 CURVE SMOOTH",
"661 181 OFFCURVE",
"542 57 OFFCURVE",
"382 57 CURVE SMOOTH"
);
},
{
closed = 1;
nodes = (
"538 255 LINE",
"513 247 OFFCURVE",
"495 242 OFFCURVE",
"468 242 CURVE SMOOTH",
"384 242 OFFCURVE",
"339 289 OFFCURVE",
"339 351 CURVE SMOOTH",
"339 383 OFFCURVE",
"351 426 OFFCURVE",
"376 453 CURVE",
"411 427 OFFCURVE",
"426 395 OFFCURVE",
"441 346 CURVE",
"568 407 LINE",
"533 501 OFFCURVE",
"469 529 OFFCURVE",
"398 529 CURVE SMOOTH",
"283 529 OFFCURVE",
"190 454 OFFCURVE",
"190 330 CURVE SMOOTH",
"190 189 OFFCURVE",
"310 122 OFFCURVE",
"431 137 CURVE",
"556 208 LINE"
);
}
);
width = 769;
}
);
unicode = 00A9;
},
{
color = 3;
glyphname = ordfeminine;
layers = (
{
layerId = "E25E64E2-9639-43F9-BB85-44020EE7B81E";
name = Regular;
paths = (
{
closed = 1;
nodes = (
"50 440 OFFCURVE",
"34 408 OFFCURVE",
"34 380 CURVE SMOOTH",
"34 331 OFFCURVE",
"80 286 OFFCURVE",
"165 300 CURVE",
"249 359 LINE",
"236 380 LINE",
"220 376 OFFCURVE",
"190 370 OFFCURVE",
"171 369 CURVE",
"164 374 OFFCURVE",
"160 382 OFFCURVE",
"160 391 CURVE SMOOTH",
"160 411 OFFCURVE",
"183 421 OFFCURVE",
"209 419 CURVE SMOOTH",
"240 416 LINE",
"239 461 LINE",
"88 460 LINE"
);
},
{
closed = 1;
nodes = (
"52 563 OFFCURVE",
"55 520 OFFCURVE",
"61 487 CURVE",
"144 488 LINE",
"165 564 LINE",
"172 565 OFFCURVE",
"183 567 OFFCURVE",
"193 567 CURVE",
"207 561 OFFCURVE",
"224 546 OFFCURVE",
"224 506 CURVE SMOOTH",
"224 353 LINE",
"231 353 LINE",
"250 315 OFFCURVE",
"281 297 OFFCURVE",
"314 296 CURVE",
"413 354 LINE",
"412 383 LINE",
"396 383 OFFCURVE",
"387 382 OFFCURVE",
"376 382 CURVE SMOOTH",
"365 382 OFFCURVE",
"360 391 OFFCURVE",
"360 400 CURVE",
"360 513 LINE SMOOTH",
"360 548 OFFCURVE",
"359 566 OFFCURVE",
"353 577 CURVE SMOOTH",
"331 608 OFFCURVE",
"300 625 OFFCURVE",
"256 628 CURVE SMOOTH",
"193 628 OFFCURVE",
"118 617 OFFCURVE",
"55 596 CURVE"
);
},
{
closed = 1;
nodes = (
"31 255 LINE",
"31 188 LINE",
"423 188 LINE",
"423 255 LINE"
);
}
);
width = 453;
}
);
unicode = 00AA;
},
{
color = 3;
glyphname = guillemetleft;
layers = (
{
layerId = "E25E64E2-9639-43F9-BB85-44020EE7B81E";
name = Regular;
paths = (
{
closed = 1;
nodes = (
"52 207 LINE",
"228 29 LINE",
"327 99 LINE",
"233 253 LINE",
"320 415 LINE",
"228 480 LINE",
"52 299 LINE"
);
},
{
closed = 1;
nodes = (
"330 207 LINE",
"506 29 LINE",
"605 99 LINE",
"511 253 LINE",
"598 415 LINE",
"506 480 LINE",
"330 299 LINE"
);
}
);
width = 657;
}
);
leftMetricsKey = guilsinglleft;
rightMetricsKey = guilsinglleft;
unicode = 00AB;
},
{
color = 3;
glyphname = logicalnot;
layers = (
{
layerId = "E25E64E2-9639-43F9-BB85-44020EE7B81E";
name = Regular;
paths = (
{
closed = 1;
nodes = (
"52 282 LINE",
"52 172 LINE",
"540 172 LINE",
"540 282 LINE"
);
},
{
closed = 1;
nodes = (
"540 282 LINE",
"423 282 LINE",
"423 0 LINE",
"540 0 LINE"
);
}
);
width = 592;
}
);
leftMetricsKey = minus;
rightMetricsKey = minus;
unicode = 00AC;
},
{
color = 3;
glyphname = softhyphen;
layers = (
{
layerId = "E25E64E2-9639-43F9-BB85-44020EE7B81E";
name = Regular;
paths = (
{
closed = 1;
nodes = (
"419 213 LINE",
"444 262 LINE",
"379 365 LINE",
"59 365 LINE",
"34 316 LINE",
"99 213 LINE"
);
}
);
width = 500;
}
);
unicode = 00AD;
},
{
color = 3;
glyphname = registered;
layers = (
{
layerId = "E25E64E2-9639-43F9-BB85-44020EE7B81E";
name = Regular;
paths = (
{
closed = 1;
nodes = (
"563 663 OFFCURVE",
"447 778 OFFCURVE",
"290 778 CURVE SMOOTH",
"131 778 OFFCURVE",
"11 662 OFFCURVE",
"11 503 CURVE SMOOTH",
"11 348 OFFCURVE",
"124 229 OFFCURVE",
"287 229 CURVE SMOOTH",
"452 229 OFFCURVE",
"563 352 OFFCURVE",
"563 505 CURVE SMOOTH"
);
},
{
closed = 1;
nodes = (
"497 379 OFFCURVE",
"409 291 OFFCURVE",
"282 291 CURVE SMOOTH",
"163 291 OFFCURVE",
"77 370 OFFCURVE",
"77 498 CURVE SMOOTH",
"77 628 OFFCURVE",
"167 717 OFFCURVE",
"287 717 CURVE SMOOTH",
"408 717 OFFCURVE",
"497 629 OFFCURVE",
"497 503 CURVE SMOOTH"
);
},
{
closed = 1;
nodes = (
"146 640 LINE",
"146 614 LINE",
"200 606 LINE",
"201 640 LINE"
);
},
{
closed = 1;
nodes = (
"178 379 LINE",
"261 379 LINE",
"261 640 LINE",
"178 640 LINE"
);
},
{
closed = 1;
nodes = (
"315 592 OFFCURVE",
"324 575 OFFCURVE",
"324 555 CURVE SMOOTH",
"324 530 OFFCURVE",
"311 514 OFFCURVE",
"280 514 CURVE SMOOTH",
"271 514 OFFCURVE",
"259 516 OFFCURVE",
"248 518 CURVE",
"248 477 LINE",
"311 477 LINE SMOOTH",
"377 477 OFFCURVE",
"414 516 OFFCURVE",
"414 558 CURVE SMOOTH",
"414 604 OFFCURVE",
"370 640 OFFCURVE",
"297 640 CURVE",
"210 640 LINE",
"255 595 LINE",
"300 602 LINE"
);
},
{
closed = 1;
nodes = (
"174 412 OFFCURVE",
"154 403 OFFCURVE",
"142 394 CURVE",
"145 379 LINE",
"184 379 LINE",
"186 418 LINE"
);
},
{
closed = 1;
nodes = (
"235 379 LINE",
"292 379 LINE",
"293 403 LINE",
"236 412 LINE"
);
},
{
closed = 1;
nodes = (
"269 495 LINE",
"330 379 LINE",
"425 379 LINE",
"351 499 LINE"
);
},
{
closed = 1;
nodes = (
"377 379 LINE",
"435 379 LINE",
"435 403 LINE",
"378 412 LINE"
);
}
);
width = 575;
}
);
unicode = 00AE;
},
{
color = 3;
glyphname = degree;
layers = (
{
layerId = "E25E64E2-9639-43F9-BB85-44020EE7B81E";
name = Regular;
paths = (
{
closed = 1;
nodes = (
"192 467 OFFCURVE",
"184 466 OFFCURVE",
"177 466 CURVE SMOOTH",
"142 466 OFFCURVE",
"126 496 OFFCURVE",
"126 525 CURVE SMOOTH",
"126 541 OFFCURVE",
"131 557 OFFCURVE",
"139 569 CURVE",
"148 573 OFFCURVE",
"157 575 OFFCURVE",
"165 575 CURVE SMOOTH",
"198 575 OFFCURVE",
"215 544 OFFCURVE",
"215 514 CURVE SMOOTH",
"215 497 OFFCURVE",
"210 481 OFFCURVE",
"200 469 CURVE"
);
},
{
closed = 1;
nodes = (
"30 436 OFFCURVE",
"97 380 OFFCURVE",
"174 380 CURVE SMOOTH",
"256 380 OFFCURVE",
"314 435 OFFCURVE",
"314 521 CURVE SMOOTH",
"314 601 OFFCURVE",
"252 663 OFFCURVE",
"170 663 CURVE SMOOTH",
"91 663 OFFCURVE",
"30 601 OFFCURVE",
"30 521 CURVE SMOOTH"
);
}
);
width = 374;
}
);
unicode = 00B0;
},
{
color = 3;
glyphname = plusminus;
layers = (
{
layerId = "E25E64E2-9639-43F9-BB85-44020EE7B81E";
name = Regular;
paths = (
{
closed = 1;
nodes = (
"339 451 LINE",
"339 626 LINE",
"222 626 LINE",
"222 451 LINE",
"52 451 LINE",
"52 342 LINE",
"222 342 LINE",
"222 167 LINE",
"339 167 LINE",
"339 342 LINE",
"509 342 LINE",
"509 451 LINE"
);
},
{
closed = 1;
nodes = (
"53 109 LINE",
"53 0 LINE",
"506 0 LINE",
"506 109 LINE"
);
}
);
width = 561;
}
);
leftMetricsKey = minus;
rightMetricsKey = minus;
unicode = 00B1;
},
{
color = 3;
glyphname = twosuperior;
layers = (
{
layerId = "E25E64E2-9639-43F9-BB85-44020EE7B81E";
name = Regular;
paths = (
{
closed = 1;
nodes = (
"110 593 LINE",
"149 706 LINE",
"33 707 LINE",
"30 682 OFFCURVE",
"38 617 OFFCURVE",
"45 593 CURVE"
);
},
{
closed = 1;
nodes = (
"50 415 LINE",
"291 415 LINE",
"309 524 LINE",
"177 489 LINE",
"173 496 LINE",
"254 544 OFFCURVE",
"297 595 OFFCURVE",
"297 645 CURVE SMOOTH",
"297 703 OFFCURVE",
"244 751 OFFCURVE",
"166 751 CURVE SMOOTH",
"124 751 OFFCURVE",
"74 737 OFFCURVE",
"33 707 CURVE",
"92 687 LINE",
"105 695 OFFCURVE",
"120 699 OFFCURVE",
"131 699 CURVE SMOOTH",
"160 699 OFFCURVE",
"180 673 OFFCURVE",
"180 644 CURVE SMOOTH",
"180 614 OFFCURVE",
"157 579 OFFCURVE",
"98 527 CURVE SMOOTH",
"30 468 LINE"
);
}
);
width = 336;
}
);
unicode = 00B2;
},
{
color = 3;
glyphname = threesuperior;
layers = (
{
layerId = "E25E64E2-9639-43F9-BB85-44020EE7B81E";
name = Regular;
paths = (
{
closed = 1;
nodes = (
"163 725 LINE",
"42 717 LINE",
"40 694 OFFCURVE",
"43 638 OFFCURVE",
"50 614 CURVE",
"105 614 LINE"
);
},
{
closed = 1;
nodes = (
"114 592 LINE",
"118 540 LINE",
"254 581 LINE",
"254 585 LINE",
"286 600 OFFCURVE",
"301 627 OFFCURVE",
"301 654 CURVE SMOOTH",
"301 703 OFFCURVE",
"251 751 OFFCURVE",
"172 751 CURVE SMOOTH",
"126 751 OFFCURVE",
"70 735 OFFCURVE",
"42 717 CURVE",
"61 678 LINE",
"81 692 OFFCURVE",
"113 696 OFFCURVE",
"129 696 CURVE SMOOTH",
"167 696 OFFCURVE",
"189 671 OFFCURVE",
"189 643 CURVE SMOOTH",
"189 619 OFFCURVE",
"171 592 OFFCURVE",
"126 592 CURVE SMOOTH"
);
},
{
closed = 1;
nodes = (
"30 432 LINE",
"71 413 OFFCURVE",
"124 405 OFFCURVE",
"165 405 CURVE SMOOTH",
"241 405 OFFCURVE",
"316 435 OFFCURVE",
"316 503 CURVE SMOOTH",
"316 557 OFFCURVE",
"267 593 OFFCURVE",
"213 584 CURVE",
"215 594 LINE",
"114 592 LINE",
"107 592 LINE",
"110 538 LINE",
"143 538 LINE SMOOTH",
"177 538 OFFCURVE",
"195 517 OFFCURVE",
"195 495 CURVE SMOOTH",
"195 481 OFFCURVE",
"187 466 OFFCURVE",
"169 458 CURVE",
"136 475 OFFCURVE",
"93 508 OFFCURVE",
"56 541 CURVE"
);
}
);
width = 345;
}
);
unicode = 00B3;
},
{
color = 3;
glyphname = foursuperior;
layers = (
{
layerId = "E25E64E2-9639-43F9-BB85-44020EE7B81E";
name = Regular;
paths = (
{
closed = 1;
nodes = (
"82 528 LINE",
"205 692 LINE",
"230 693 LINE",
"207 738 LINE",
"169 751 LINE",
"-4 540 LINE",
"20 485 LINE",
"304 485 LINE",
"324 507 LINE",
"324 547 LINE",
"60 544 LINE"
);
},
{
closed = 1;
nodes = (
"158 415 LINE",
"267 415 LINE",
"267 734 LINE",
"168 751 LINE",
"178 684 LINE",
"158 566 LINE"
);
},
{
closed = 1;
nodes = (
"303 415 LINE",
"303 445 LINE",
"244 459 LINE",
"242 415 LINE"
);
},
{
closed = 1;
nodes = (
"166 415 LINE",
"164 464 LINE",
"140 458 OFFCURVE",
"104 443 OFFCURVE",
"85 430 CURVE",
"88 415 LINE"
);
}
);
width = 344;
}
);
unicode = 2074;
},
{
color = 3;
glyphname = micro;
layers = (
{
layerId = "E25E64E2-9639-43F9-BB85-44020EE7B81E";
name = Regular;
paths = (
{
closed = 1;
nodes = (
"594 109 OFFCURVE",
"581 108 OFFCURVE",
"565 108 CURVE SMOOTH",
"549 108 OFFCURVE",
"541 120 OFFCURVE",
"541 134 CURVE",
"541 494 LINE",
"472 496 OFFCURVE",
"379 483 OFFCURVE",
"340 474 CURVE",
"340 77 LINE",
"359 74 LINE",
"386 18 OFFCURVE",
"431 -17 OFFCURVE",
"477 -17 CURVE",
"621 65 LINE",
"618 110 LINE"
);
},
{
closed = 1;
nodes = (
"45 -227 LINE",
"119 -249 OFFCURVE",
"227 -212 OFFCURVE",
"248 -183 CURVE",
"148 28 LINE",
"172 1 OFFCURVE",
"193 -12 OFFCURVE",
"218 -13 CURVE",
"295 17 OFFCURVE",
"386 76 OFFCURVE",
"467 167 CURVE",
"466 188 LINE",
"415 151 OFFCURVE",
"364 119 OFFCURVE",
"317 116 CURVE SMOOTH",
"269 113 OFFCURVE",
"245 140 OFFCURVE",
"245 194 CURVE SMOOTH",
"245 494 LINE",
"176 496 OFFCURVE",
"83 483 OFFCURVE",
"44 474 CURVE"
);
},
{
closed = 1;
nodes = (
"124 17 LINE",
"184 17 LINE",
"184 49 LINE",
"124 49 LINE"
);
}
);
width = 623;
}
);
rightMetricsKey = u;
unicode = 00B5;
},
{
color = 3;
glyphname = paragraph;
layers = (
{
layerId = "E25E64E2-9639-43F9-BB85-44020EE7B81E";
name = Regular;
paths = (
{
closed = 1;
nodes = (
"337 692 LINE",
"98 706 OFFCURVE",
"0 585 OFFCURVE",
"0 470 CURVE SMOOTH",
"0 372 OFFCURVE",
"72 273 OFFCURVE",
"188 241 CURVE",
"226 278 LINE",
"206 318 OFFCURVE",
"193 358 OFFCURVE",
"193 403 CURVE SMOOTH",
"193 518 OFFCURVE",
"278 594 OFFCURVE",
"384 588 CURVE SMOOTH",
"696 573 LINE",
"703 646 LINE"
);
},
{
closed = 1;
nodes = (
"318 -165 LINE",
"318 -82 LINE",
"318 -82 OFFCURVE",
"236 -99 OFFCURVE",
"188 -121 CURVE",
"194 -165 LINE"
);
},
{
closed = 1;
nodes = (
"692 -165 LINE",
"693 -112 LINE",
"555 -96 LINE",
"552 -165 LINE"
);
},
{
closed = 1;
nodes = (
"295 -166 LINE",
"419 -166 LINE",
"419 609 LINE",
"295 609 LINE"
);
},
{
closed = 1;
nodes = (
"490 -166 LINE",
"614 -166 LINE",
"614 609 LINE",
"490 609 LINE"
);
}
);
width = 721;
}
);
rightMetricsKey = l;
unicode = 00B6;
},
{
color = 3;
glyphname = periodcentered;
layers = (
{
layerId = "E25E64E2-9639-43F9-BB85-44020EE7B81E";
name = Regular;
paths = (
{
closed = 1;
nodes = (
"192 205 OFFCURVE",
"232 257 OFFCURVE",
"249 301 CURVE",
"225 333 OFFCURVE",
"174 379 OFFCURVE",
"130 397 CURVE",
"92 375 OFFCURVE",
"54 323 OFFCURVE",
"30 275 CURVE",
"56 239 OFFCURVE",
"115 195 OFFCURVE",
"154 179 CURVE"
);
}
);
width = 309;
}
);
unicode = 00B7;
},
{
color = 3;
glyphname = onesuperior;
layers = (
{
layerId = "E25E64E2-9639-43F9-BB85-44020EE7B81E";
name = Regular;
paths = (
{
closed = 1;
nodes = (
"169 670 LINE",
"176 719 LINE",
"165 743 LINE",
"16 662 LINE",
"36 620 LINE"
);
},
{
closed = 1;
nodes = (
"215 711 LINE",
"164 743 LINE",
"161 702 LINE"
);
},
{
closed = 1;
nodes = (
"94 415 LINE",
"215 415 LINE",
"215 711 LINE",
"94 700 LINE"
);
},
{
closed = 1;
nodes = (
"102 415 LINE",
"101 466 LINE",
"77 461 OFFCURVE",
"42 443 OFFCURVE",
"28 430 CURVE",
"31 415 LINE"
);
},
{
closed = 1;
nodes = (
"271 415 LINE",
"271 444 LINE",
"204 466 LINE",
"202 415 LINE"
);
}
);
width = 286;
}
);
unicode = 00B9;
},
{
color = 3;
glyphname = ordmasculine;
layers = (
{
layerId = "E25E64E2-9639-43F9-BB85-44020EE7B81E";
name = Regular;
paths = (
{
closed = 1;
nodes = (
"28 349 OFFCURVE",
"114 284 OFFCURVE",
"208 284 CURVE SMOOTH",
"301 284 OFFCURVE",
"386 346 OFFCURVE",
"386 456 CURVE SMOOTH",
"386 565 OFFCURVE",
"302 631 OFFCURVE",
"211 631 CURVE SMOOTH",
"124 631 OFFCURVE",
"28 570 OFFCURVE",
"28 457 CURVE SMOOTH"
);
},
{
closed = 1;
nodes = (
"225 363 OFFCURVE",
"222 362 OFFCURVE",
"216 362 CURVE SMOOTH",
"187 362 OFFCURVE",
"169 387 OFFCURVE",
"169 455 CURVE SMOOTH",
"169 499 OFFCURVE",
"177 533 OFFCURVE",
"187 539 CURVE",
"192 540 OFFCURVE",
"196 542 OFFCURVE",
"202 542 CURVE SMOOTH",
"231 542 OFFCURVE",
"246 509 OFFCURVE",
"246 441 CURVE SMOOTH",
"246 394 OFFCURVE",
"237 367 OFFCURVE",
"229 363 CURVE"
);
},
{
closed = 1;
nodes = (
"16 255 LINE",
"16 188 LINE",
"400 188 LINE",
"400 255 LINE"
);
}
);
width = 442;
}
);
unicode = 00BA;
},
{
color = 3;
glyphname = guillemetright;
layers = (
{
layerId = "E25E64E2-9639-43F9-BB85-44020EE7B81E";
name = Regular;
paths = (
{
closed = 1;
nodes = (
"605 299 LINE",
"429 480 LINE",
"337 415 LINE",
"424 253 LINE",
"330 99 LINE",
"429 29 LINE",
"605 207 LINE"
);
},
{
closed = 1;
nodes = (
"327 299 LINE",
"151 480 LINE",
"59 415 LINE",
"146 253 LINE",
"52 99 LINE",
"151 29 LINE",
"327 207 LINE"
);
}
);
width = 657;
}
);
leftMetricsKey = "=|";
rightMetricsKey = "=|guillemetleft";
unicode = 00BB;
},
{
color = 3;
glyphname = AE;
layers = (
{
anchors = (
{
name = top;
position = "{540, 650}";
}
);
layerId = "E25E64E2-9639-43F9-BB85-44020EE7B81E";
name = Regular;
paths = (
{
closed = 1;
nodes = (
"275 666 LINE",
"274 611 LINE",
"404 589 LINE",
"466 666 LINE"
);
},
{
closed = 1;
nodes = (
"942 666 LINE",
"525 666 LINE",
"600 568 LINE",
"929 547 LINE"
);
},
{
closed = 1;
nodes = (
"380 655 LINE",
"44 0 LINE",
"174 0 LINE",
"488 630 LINE"
);
},
{
closed = 1;
nodes = (
"432 666 LINE",
"432 0 LINE",
"634 0 LINE",
"634 666 LINE"
);
},
{
closed = 1;
nodes = (
"207 254 LINE",
"207 162 LINE",
"540 162 LINE",
"540 254 LINE"
);
},
{
closed = 1;
nodes = (
"62 76 OFFCURVE",
"21 55 OFFCURVE",
"-6 33 CURVE",
"0 0 LINE",
"94 0 LINE",
"93 92 LINE"
);
},
{
closed = 1;
nodes = (
"147 0 LINE",
"287 0 LINE",
"288 55 LINE",
"150 79 LINE"
);
},
{
closed = 1;
nodes = (
"415 76 OFFCURVE",
"374 55 OFFCURVE",
"347 33 CURVE",
"353 0 LINE",
"447 0 LINE",
"446 92 LINE"
);
},
{
closed = 1;
nodes = (
"607 106 LINE",
"532 0 LINE",
"917 0 LINE",
"928 127 LINE"
);
},
{
closed = 1;
nodes = (
"605 373 LINE",
"605 288 LINE",
"845 278 LINE",
"845 393 LINE"
);
},
{
closed = 1;
nodes = (
"755 8 LINE",
"934 0 LINE",
"942 64 OFFCURVE",
"948 159 OFFCURVE",
"946 218 CURVE",
"831 227 LINE"
);
},
{
closed = 1;
nodes = (
"921 451 LINE",
"936 520 OFFCURVE",
"944 620 OFFCURVE",
"942 666 CURVE",
"767 657 LINE",
"806 451 LINE"
);
}
);
width = 982;
}
);
leftKerningGroup = A;
leftMetricsKey = A;
rightKerningGroup = E;
rightMetricsKey = E;
unicode = 00C6;
},
{
color = 3;
glyphname = multiply;
layers = (
{
layerId = "E25E64E2-9639-43F9-BB85-44020EE7B81E";
name = Regular;
paths = (
{
closed = 1;
nodes = (
"279 319 LINE",
"137 463 LINE",
"55 382 LINE",
"197 238 LINE",
"57 96 LINE",
"136 18 LINE",
"275 160 LINE",
"416 17 LINE",
"498 99 LINE",
"356 241 LINE",
"497 383 LINE",
"417 461 LINE"
);
}
);
width = 553;
}
);
unicode = 00D7;
},
{
color = 3;
glyphname = Oslash;
layers = (
{
components = (
{
name = O;
}
);
layerId = "E25E64E2-9639-43F9-BB85-44020EE7B81E";
name = Regular;
paths = (
{
closed = 1;
nodes = (
"175 -93 LINE",
"623 706 LINE",
"544 751 LINE",
"96 -50 LINE"
);
}
);
width = 713;
}
);
leftKerningGroup = O;
leftMetricsKey = O;
rightKerningGroup = O;
rightMetricsKey = O;
unicode = 00D8;
},
{
color = 3;
glyphname = Thorn;
layers = (
{
layerId = "E25E64E2-9639-43F9-BB85-44020EE7B81E";
name = Regular;
paths = (
{
closed = 1;
nodes = (
"35 650 LINE",
"34 595 LINE",
"172 571 LINE",
"175 650 LINE"
);
},
{
closed = 1;
nodes = (
"300 650 LINE",
"301 558 LINE",
"332 574 OFFCURVE",
"373 595 OFFCURVE",
"400 617 CURVE",
"394 650 LINE"
);
},
{
closed = 1;
nodes = (
"322 0 LINE",
"322 650 LINE",
"112 650 LINE",
"112 0 LINE"
);
},
{
closed = 1;
nodes = (
"126 0 LINE",
"125 92 LINE",
"94 76 OFFCURVE",
"53 55 OFFCURVE",
"26 33 CURVE",
"32 0 LINE"
);
},
{
closed = 1;
nodes = (
"410 0 LINE",
"411 55 LINE",
"273 79 LINE",
"270 0 LINE"
);
},
{
closed = 1;
nodes = (
"569 141 OFFCURVE",
"649 234 OFFCURVE",
"649 329 CURVE SMOOTH",
"649 427 OFFCURVE",
"563 526 OFFCURVE",
"396 526 CURVE SMOOTH",
"186 526 LINE",
"305 411 LINE",
"396 422 LINE",
"430 394 OFFCURVE",
"446 358 OFFCURVE",
"446 324 CURVE SMOOTH",
"446 273 OFFCURVE",
"412 231 OFFCURVE",
"357 231 CURVE SMOOTH",
"334 231 OFFCURVE",
"312 238 OFFCURVE",
"289 251 CURVE",
"286 139 LINE",
"408 140 LINE SMOOTH"
);
}
);
width = 661;
}
);
leftKerningGroup = I;
leftMetricsKey = I;
rightMetricsKey = P;
unicode = 00DE;
},
{
color = 3;
glyphname = germandbls;
layers = (
{
layerId = "E25E64E2-9639-43F9-BB85-44020EE7B81E";
name = Regular;
paths = (
{
closed = 1;
nodes = (
"260 687 OFFCURVE",
"82 645 OFFCURVE",
"82 477 CURVE SMOOTH",
"82 0 LINE",
"283 0 LINE",
"283 437 LINE",
"279 561 LINE",
"300 573 OFFCURVE",
"334 576 OFFCURVE",
"354 573 CURVE",
"411 511 OFFCURVE",
"375 411 OFFCURVE",
"324 343 CURVE",
"340 219 OFFCURVE",
"478 212 OFFCURVE",
"478 139 CURVE SMOOTH",
"478 126 OFFCURVE",
"473 115 OFFCURVE",
"462 102 CURVE",
"426 112 OFFCURVE",
"388 138 OFFCURVE",
"359 167 CURVE",
"317 4 LINE",
"364 -10 OFFCURVE",
"420 -19 OFFCURVE",
"465 -19 CURVE SMOOTH",
"580 -19 OFFCURVE",
"668 40 OFFCURVE",
"668 142 CURVE SMOOTH",
"668 277 OFFCURVE",
"512 315 OFFCURVE",
"498 381 CURVE",
"547 422 OFFCURVE",
"569 462 OFFCURVE",
"569 506 CURVE SMOOTH",
"569 600 OFFCURVE",
"471 687 OFFCURVE",
"335 687 CURVE SMOOTH"
);
},
{
closed = 1;
nodes = (
"217 343 LINE",
"220 418 LINE",
"138 491 LINE",
"83 469 OFFCURVE",
"35 439 OFFCURVE",
"-5 398 CURVE",
"-4 342 LINE"
);
},
{
closed = 1;
nodes = (
"132 0 LINE",
"140 88 LINE",
"98 79 OFFCURVE",
"50 61 OFFCURVE",
"8 35 CURVE",
"9 0 LINE"
);
}
);
width = 681;
}
);
leftKerningGroup = f;
leftMetricsKey = f;
unicode = 00DF;
},
{
color = 3;
glyphname = ae;
layers = (
{
anchors = (
{
name = bottom;
position = "{105, 0}";
},
{
name = ogonek;
position = "{141, 10}";
},
{
name = top;
position = "{105, 94}";
}
);
layerId = "E25E64E2-9639-43F9-BB85-44020EE7B81E";
name = Regular;
paths = (
{
closed = 1;
nodes = (
"52 396 OFFCURVE",
"54 343 OFFCURVE",
"65 293 CURVE",
"187 287 LINE",
"216 399 LINE",
"225 405 OFFCURVE",
"240 408 OFFCURVE",
"253 409 CURVE",
"274 398 OFFCURVE",
"297 375 OFFCURVE",
"298 312 CURVE SMOOTH",
"299 201 LINE",
"426 151 LINE",
"463 415 LINE",
"433 459 OFFCURVE",
"395 497 OFFCURVE",
"351 500 CURVE SMOOTH",
"261 500 OFFCURVE",
"154 480 OFFCURVE",
"60 447 CURVE"
);
},
{
closed = 1;
nodes = (
"49 209 OFFCURVE",
"24 159 OFFCURVE",
"24 117 CURVE SMOOTH",
"24 46 OFFCURVE",
"96 -32 OFFCURVE",
"219 -12 CURVE",
"369 73 LINE",
"353 121 LINE",
"328 114 OFFCURVE",
"266 94 OFFCURVE",
"235 90 CURVE",
"225 101 OFFCURVE",
"220 119 OFFCURVE",
"220 132 CURVE SMOOTH",
"220 167 OFFCURVE",
"258 178 OFFCURVE",
"299 178 CURVE",
"331 178 LINE",
"331 244 LINE",
"109 239 LINE"
);
},
{
closed = 1;
nodes = (
"419 220 LINE",
"729 219 LINE",
"788 278 LINE",
"680 318 LINE",
"403 299 LINE"
);
},
{
closed = 1;
nodes = (
"754 147 LINE",
"706 121 OFFCURVE",
"670 108 OFFCURVE",
"626 108 CURVE SMOOTH",
"544 108 OFFCURVE",
"484 155 OFFCURVE",
"484 258 CURVE SMOOTH",
"484 316 OFFCURVE",
"503 385 OFFCURVE",
"545 413 CURVE",
"596 407 OFFCURVE",
"626 331 OFFCURVE",
"616 271 CURVE",
"796 278 LINE",
"797 448 OFFCURVE",
"663 504 OFFCURVE",
"565 504 CURVE SMOOTH",
"510 504 OFFCURVE",
"455 486 OFFCURVE",
"410 453 CURVE",
"369 239 LINE",
"301 236 LINE",
"301 55 OFFCURVE",
"460 -42 OFFCURVE",
"624 -11 CURVE",
"782 85 LINE"
);
}
);
width = 809;
}
);
leftKerningGroup = a;
leftMetricsKey = a;
rightKerningGroup = e;
rightMetricsKey = e;
unicode = 00E6;
},
{
color = 3;
glyphname = eth;
layers = (
{
layerId = "E25E64E2-9639-43F9-BB85-44020EE7B81E";
name = Regular;
paths = (
{
closed = 1;
nodes = (
"194 711 LINE",
"268 597 OFFCURVE",
"304 503 OFFCURVE",
"330 428 CURVE",
"376 422 LINE",
"338 456 OFFCURVE",
"288 475 OFFCURVE",
"236 475 CURVE SMOOTH",
"126 475 OFFCURVE",
"16 394 OFFCURVE",
"16 240 CURVE SMOOTH",
"16 63 OFFCURVE",
"159 -28 OFFCURVE",
"293 -28 CURVE SMOOTH",
"435 -28 OFFCURVE",
"552 76 OFFCURVE",
"552 255 CURVE SMOOTH",
"552 420 OFFCURVE",
"452 636 OFFCURVE",
"332 779 CURVE"
);
},
{
closed = 1;
nodes = (
"253 75 OFFCURVE",
"223 150 OFFCURVE",
"223 225 CURVE SMOOTH",
"223 285 OFFCURVE",
"242 348 OFFCURVE",
"271 376 CURVE",
"323 365 OFFCURVE",
"348 342 OFFCURVE",
"398 294 CURVE",
"332 396 LINE",
"380 301 OFFCURVE",
"369 133 OFFCURVE",
"320 74 CURVE"
);
},
{
closed = 1;
nodes = (
"523 627 LINE",
"466 741 LINE",
"148 609 LINE",
"154 564 LINE",
"230 513 LINE"
);
}
);
width = 557;
}
);
leftKerningGroup = o;
leftMetricsKey = d;
unicode = 00F0;
},
{
color = 3;
glyphname = divide;
layers = (
{
layerId = "E25E64E2-9639-43F9-BB85-44020EE7B81E";
name = Regular;
paths = (
{
closed = 1;
nodes = (
"52 320 LINE",
"52 210 LINE",
"542 210 LINE",
"542 320 LINE"
);
},
{
closed = 1;
nodes = (
"379 116 OFFCURVE",
"344 155 OFFCURVE",
"292 178 CURVE",
"253 156 OFFCURVE",
"213 120 OFFCURVE",
"205 63 CURVE",
"224 28 OFFCURVE",
"256 -4 OFFCURVE",
"308 -20 CURVE",
"354 3 OFFCURVE",
"379 42 OFFCURVE",
"391 78 CURVE"
);
},
{
closed = 1;
nodes = (
"379 485 OFFCURVE",
"344 524 OFFCURVE",
"292 547 CURVE",
"253 525 OFFCURVE",
"213 488 OFFCURVE",
"205 432 CURVE",
"224 397 OFFCURVE",
"256 365 OFFCURVE",
"308 349 CURVE",
"354 372 OFFCURVE",
"379 410 OFFCURVE",
"391 447 CURVE"
);
}
);
width = 594;
}
);
leftMetricsKey = minus;
rightMetricsKey = minus;
unicode = 00F7;
},
{
color = 9;
glyphname = oslash;
layers = (
{
anchors = (
{
name = top;
position = "{267, 468}";
}
);
layerId = "E25E64E2-9639-43F9-BB85-44020EE7B81E";
name = Regular;
paths = (
{
closed = 1;
nodes = (
"114 102 LINE",
"23 -28 LINE",
"128 -97 LINE",
"218 33 LINE"
);
},
{
closed = 1;
nodes = (
"444 376 LINE",
"524 498 LINE",
"417 566 LINE",
"337 446 LINE"
);
},
{
closed = 1;
nodes = (
"8 76 OFFCURVE",
"137 -20 OFFCURVE",
"272 -20 CURVE SMOOTH",
"407 -20 OFFCURVE",
"526 74 OFFCURVE",
"526 241 CURVE SMOOTH",
"526 413 OFFCURVE",
"399 504 OFFCURVE",
"267 504 CURVE SMOOTH",
"133 504 OFFCURVE",
"8 412 OFFCURVE",
"8 245 CURVE SMOOTH"
);
},
{
closed = 1;
nodes = (
"288 79 OFFCURVE",
"282 78 OFFCURVE",
"275 78 CURVE SMOOTH",
"227 78 OFFCURVE",
"210 148 OFFCURVE",
"210 239 CURVE SMOOTH",
"210 309 OFFCURVE",
"219 366 OFFCURVE",
"234 389 CURVE",
"241 394 OFFCURVE",
"251 396 OFFCURVE",
"261 396 CURVE SMOOTH",
"307 396 OFFCURVE",
"324 322 OFFCURVE",
"324 229 CURVE SMOOTH",
"324 158 OFFCURVE",
"316 99 OFFCURVE",
"296 82 CURVE"
);
}
);
width = 551;
}
);
leftKerningGroup = o;
leftMetricsKey = o;
rightKerningGroup = o;
rightMetricsKey = o;
unicode = 00F8;
},
{
color = 3;
glyphname = thorn;
layers = (
{
layerId = "E25E64E2-9639-43F9-BB85-44020EE7B81E";
name = Regular;
paths = (
{
closed = 1;
nodes = (
"-22 646 LINE",
"118 598 LINE",
"204 651 LINE",
"210 737 LINE",
"124 732 OFFCURVE",
"45 719 OFFCURVE",
"-24 695 CURVE"
);
},
{
closed = 1;
nodes = (
"210 737 LINE",
"67 679 LINE",
"67 11 LINE",
"269 40 LINE",
"269 683 LINE"
);
},
{
closed = 1;
nodes = (
"66 -201 LINE",
"267 -201 LINE",
"267 442 LINE",
"208 495 LINE",
"66 437 LINE"
);
},
{
closed = 1;
nodes = (
"124 -201 LINE",
"132 -113 LINE",
"90 -130 OFFCURVE",
"42 -148 OFFCURVE",
"0 -165 CURVE",
"1 -201 LINE"
);
},
{
closed = 1;
nodes = (
"364 -201 LINE",
"365 -152 LINE",
"323 -129 OFFCURVE",
"278 -107 OFFCURVE",
"234 -86 CURVE",
"201 -201 LINE"
);
},
{
closed = 1;
nodes = (
"203 328 LINE",
"238 349 OFFCURVE",
"267 363 OFFCURVE",
"294 363 CURVE SMOOTH",
"353 363 OFFCURVE",
"385 302 OFFCURVE",
"385 232 CURVE SMOOTH",
"385 177 OFFCURVE",
"366 119 OFFCURVE",
"332 84 CURVE",
"272 76 OFFCURVE",
"219 96 OFFCURVE",
"176 145 CURVE",
"68 19 LINE",
"141 -4 OFFCURVE",
"224 -18 OFFCURVE",
"290 -18 CURVE SMOOTH",
"500 -18 OFFCURVE",
"592 125 OFFCURVE",
"592 266 CURVE SMOOTH",
"592 398 OFFCURVE",
"512 516 OFFCURVE",
"372 494 CURVE",
"194 360 LINE"
);
}
);
width = 605;
}
);
leftKerningGroup = b;
leftMetricsKey = b;
rightKerningGroup = o;
rightMetricsKey = p;
unicode = 00FE;
},
{
color = 3;
glyphname = Dcroat;
layers = (
{
components = (
{
name = D;
}
);
layerId = "E25E64E2-9639-43F9-BB85-44020EE7B81E";
name = Regular;
paths = (
{
closed = 1;
nodes = (
"443 305 LINE",
"437 342 LINE",
"55 342 LINE",
"12 299 LINE",
"18 262 LINE",
"400 262 LINE"
);
}
);
width = 784;
}
);
leftKerningGroup = I;
rightKerningGroup = O;
rightMetricsKey = D;
unicode = 0110;
},
{
color = 3;
glyphname = dcroat;
layers = (
{
components = (
{
name = d;
}
);
layerId = "E25E64E2-9639-43F9-BB85-44020EE7B81E";
name = Regular;
paths = (
{
closed = 1;
nodes = (
"617 566 LINE",
"611 603 LINE",
"259 603 LINE",
"216 563 LINE",
"222 526 LINE",
"574 526 LINE"
);
}
);
width = 626;
}
);
leftKerningGroup = o;
leftMetricsKey = d;
rightKerningGroup = l;
unicode = 0111;
},
{
color = 3;
glyphname = eogonek;
layers = (
{
components = (
{
name = e;
}
);
layerId = "E25E64E2-9639-43F9-BB85-44020EE7B81E";
name = Regular;
paths = (
{
closed = 1;
nodes = (
"437 86 LINE",
"265 40 OFFCURVE",
"179 -42 OFFCURVE",
"179 -120 CURVE SMOOTH",
"179 -188 OFFCURVE",
"244 -248 OFFCURVE",
"339 -236 CURVE",
"469 -165 LINE",
"443 -111 LINE",
"368 -155 OFFCURVE",
"313 -137 OFFCURVE",
"313 -84 CURVE SMOOTH",
"313 -31 OFFCURVE",
"370 10 OFFCURVE",
"449 60 CURVE SMOOTH",
"489 85 LINE"
);
}
);
width = 530;
}
);
leftKerningGroup = o;
leftMetricsKey = e;
rightKerningGroup = e;
unicode = 0119;
},
{
color = 3;
glyphname = Imacron;
layers = (
{
components = (
{
name = I;
transform = "{1, 0, 0, 1, 3, 0}";
}
);
layerId = "E25E64E2-9639-43F9-BB85-44020EE7B81E";
name = Regular;
paths = (
{
closed = 1;
nodes = (
"116 846 OFFCURVE",
"73 841 OFFCURVE",
"34 821 CURVE",
"40 737 LINE",
"368 737 LINE",
"415 787 LINE",
"410 846 LINE",
"147 846 LINE"
);
}
);
width = 441;
}
);
leftKerningGroup = I;
leftMetricsKey = I;
rightKerningGroup = I;
rightMetricsKey = I;
unicode = 012A;
},
{
color = 3;
glyphname = imacron;
layers = (
{
components = (
{
name = dotlessi;
transform = "{1, 0, 0, 1, 5, 0}";
}
);
layerId = "E25E64E2-9639-43F9-BB85-44020EE7B81E";
name = Regular;
paths = (
{
closed = 1;
nodes = (
"95 673 OFFCURVE",
"52 667 OFFCURVE",
"13 648 CURVE",
"19 564 LINE",
"306 564 LINE",
"353 614 LINE",
"348 673 LINE",
"126 673 LINE"
);
}
);
width = 366;
}
);
leftKerningGroup = n;
leftMetricsKey = i;
rightKerningGroup = i;
rightMetricsKey = i;
unicode = 012B;
},
{
color = 3;
glyphname = dotlessi;
layers = (
{
anchors = (
{
name = ogonek;
position = "{338, 10}";
},
{
name = top;
position = "{169, 468}";
}
);
layerId = "E25E64E2-9639-43F9-BB85-44020EE7B81E";
name = Regular;
paths = (
{
closed = 1;
nodes = (
"131 375 LINE",
"218 409 LINE",
"223 495 LINE",
"143 492 OFFCURVE",
"68 479 OFFCURVE",
"4 456 CURVE",
"6 407 LINE"
);
},
{
closed = 1;
nodes = (
"81 0 LINE",
"282 0 LINE",
"282 442 LINE",
"223 495 LINE",
"81 437 LINE"
);
},
{
closed = 1;
nodes = (
"336 0 LINE",
"337 49 LINE",
"295 80 OFFCURVE",
"250 102 OFFCURVE",
"206 115 CURVE",
"173 0 LINE"
);
},
{
closed = 1;
nodes = (
"130 0 LINE",
"138 88 LINE",
"96 79 OFFCURVE",
"48 61 OFFCURVE",
"6 35 CURVE",
"7 0 LINE"
);
}
);
width = 349;
}
);
leftKerningGroup = n;
leftMetricsKey = i;
rightKerningGroup = i;
rightMetricsKey = i;
unicode = 0131;
},
{
color = 3;
glyphname = Lslash;
layers = (
{
components = (
{
name = L;
transform = "{1, 0, 0, 1, 19, 0}";
}
);
layerId = "E25E64E2-9639-43F9-BB85-44020EE7B81E";
name = Regular;
paths = (
{
closed = 1;
nodes = (
"26 283 LINE",
"53 221 LINE",
"436 388 LINE",
"453 439 LINE",
"437 464 LINE"
);
}
);
width = 658;
}
);
leftKerningGroup = I;
leftMetricsKey = L;
rightKerningGroup = L;
rightMetricsKey = L;
unicode = 0141;
},
{
color = 3;
glyphname = lslash;
layers = (
{
components = (
{
name = l;
transform = "{1, 0, 0, 1, 24, 0}";
}
);
layerId = "E25E64E2-9639-43F9-BB85-44020EE7B81E";
name = Regular;
paths = (
{
closed = 1;
nodes = (
"3 327 LINE",
"39 255 LINE",
"394 429 LINE",
"394 490 LINE",
"367 506 LINE"
);
}
);
width = 456;
}
);
leftKerningGroup = l;
leftMetricsKey = l;
rightKerningGroup = l;
unicode = 0142;
},
{
color = 3;
glyphname = OE;
layers = (
{
layerId = "E25E64E2-9639-43F9-BB85-44020EE7B81E";
name = Regular;
paths = (
{
closed = 1;
nodes = (
"513 150 LINE",
"496 112 OFFCURVE",
"439 87 OFFCURVE",
"391 87 CURVE SMOOTH",
"284 87 OFFCURVE",
"235 209 OFFCURVE",
"235 340 CURVE SMOOTH",
"235 436 OFFCURVE",
"261 526 OFFCURVE",
"307 566 CURVE",
"328 573 OFFCURVE",
"349 575 OFFCURVE",
"371 575 CURVE SMOOTH",
"415 575 OFFCURVE",
"472 564 OFFCURVE",
"495 520 CURVE",
"551 645 LINE",
"502 671 OFFCURVE",
"447 685 OFFCURVE",
"386 685 CURVE SMOOTH",
"198 685 OFFCURVE",
"28 554 OFFCURVE",
"28 330 CURVE SMOOTH",
"28 91 OFFCURVE",
"214 -18 OFFCURVE",
"385 -18 CURVE SMOOTH",
"446 -18 OFFCURVE",
"509 -6 OFFCURVE",
"562 25 CURVE"
);
},
{
closed = 1;
nodes = (
"666 0 LINE",
"666 666 LINE",
"456 666 LINE",
"456 0 LINE"
);
},
{
closed = 1;
nodes = (
"952 547 LINE",
"980 666 LINE",
"548 666 LINE",
"623 568 LINE"
);
},
{
closed = 1;
nodes = (
"630 106 LINE",
"554 0 LINE",
"972 0 LINE",
"959 127 LINE"
);
},
{
closed = 1;
nodes = (
"793 8 LINE",
"972 0 LINE",
"980 64 OFFCURVE",
"986 159 OFFCURVE",
"984 218 CURVE",
"869 227 LINE"
);
},
{
closed = 1;
nodes = (
"959 451 LINE",
"974 520 OFFCURVE",
"982 620 OFFCURVE",
"980 666 CURVE",
"805 657 LINE",
"844 451 LINE"
);
},
{
closed = 1;
nodes = (
"628 373 LINE",
"628 288 LINE",
"868 278 LINE",
"868 393 LINE"
);
}
);
width = 1005;
}
);
leftKerningGroup = O;
leftMetricsKey = O;
rightKerningGroup = E;
rightMetricsKey = E;
unicode = 0152;
},
{
color = 3;
glyphname = oe;
layers = (
{
anchors = (
{
name = bottom;
position = "{604, 0}";
},
{
name = ogonek;
position = "{814, 18}";
},
{
name = top;
position = "{600, 468}";
}
);
layerId = "E25E64E2-9639-43F9-BB85-44020EE7B81E";
name = Regular;
paths = (
{
closed = 1;
nodes = (
"288 79 OFFCURVE",
"282 78 OFFCURVE",
"275 78 CURVE SMOOTH",
"227 78 OFFCURVE",
"210 148 OFFCURVE",
"210 238 CURVE SMOOTH",
"210 309 OFFCURVE",
"219 366 OFFCURVE",
"234 389 CURVE",
"241 394 OFFCURVE",
"251 396 OFFCURVE",
"260 396 CURVE SMOOTH",
"307 396 OFFCURVE",
"324 323 OFFCURVE",
"324 229 CURVE SMOOTH",
"324 158 OFFCURVE",
"316 99 OFFCURVE",
"296 82 CURVE"
);
},
{
closed = 1;
nodes = (
"458 423 LINE",
"409 477 OFFCURVE",
"339 504 OFFCURVE",
"267 504 CURVE SMOOTH",
"133 504 OFFCURVE",
"8 412 OFFCURVE",
"8 245 CURVE SMOOTH",
"8 76 OFFCURVE",
"137 -20 OFFCURVE",
"272 -20 CURVE SMOOTH",
"343 -20 OFFCURVE",
"411 7 OFFCURVE",
"458 58 CURVE"
);
},
{
closed = 1;
nodes = (
"378 95 LINE",
"437 14 OFFCURVE",
"543 -32 OFFCURVE",
"655 -11 CURVE",
"812 85 LINE",
"784 147 LINE",
"736 121 OFFCURVE",
"701 108 OFFCURVE",
"655 108 CURVE SMOOTH",
"568 108 OFFCURVE",
"511 158 OFFCURVE",
"511 253 CURVE SMOOTH",
"511 314 OFFCURVE",
"534 385 OFFCURVE",
"575 413 CURVE",
"626 407 OFFCURVE",
"656 331 OFFCURVE",
"646 271 CURVE",
"826 278 LINE",
"827 448 OFFCURVE",
"693 504 OFFCURVE",
"595 504 CURVE SMOOTH",
"510 504 OFFCURVE",
"428 462 OFFCURVE",
"378 390 CURVE"
);
},
{
closed = 1;
nodes = (
"457 220 LINE",
"767 219 LINE",
"826 278 LINE",
"718 318 LINE",
"441 299 LINE"
);
}
);
width = 839;
}
);
leftKerningGroup = o;
leftMetricsKey = o;
rightKerningGroup = e;
rightMetricsKey = e;
unicode = 0153;
},
{
color = 3;
glyphname = pi;
layers = (
{
layerId = "E25E64E2-9639-43F9-BB85-44020EE7B81E";
name = Regular;
paths = (
{
closed = 1;
nodes = (
"127 463 OFFCURVE",
"55 405 OFFCURVE",
"30 372 CURVE",
"68 310 LINE",
"169 378 LINE",
"756 341 LINE",
"795 370 LINE",
"791 474 LINE",
"167 474 LINE"
);
},
{
closed = 1;
nodes = (
"696 0 LINE",
"654 442 LINE",
"484 439 LINE",
"488 34 LINE",
"546 -1 LINE"
);
},
{
closed = 1;
nodes = (
"114 -8 OFFCURVE",
"185 -19 OFFCURVE",
"233 -19 CURVE SMOOTH",
"385 -19 OFFCURVE",
"410 89 OFFCURVE",
"414 231 CURVE SMOOTH",
"420 448 LINE",
"226 450 LINE",
"216 192 LINE SMOOTH",
"214 140 OFFCURVE",
"211 88 OFFCURVE",
"198 70 CURVE",
"163 99 OFFCURVE",
"128 131 OFFCURVE",
"98 162 CURVE",
"41 20 LINE"
);
}
);
width = 817;
}
);
unicode = 03C0;
},
{
color = 3;
glyphname = endash;
layers = (
{
layerId = "E25E64E2-9639-43F9-BB85-44020EE7B81E";
name = Regular;
paths = (
{
closed = 1;
nodes = (
"117 328 OFFCURVE",
"74 321 OFFCURVE",
"35 302 CURVE",
"41 217 LINE",
"486 217 LINE",
"533 270 LINE",
"528 328 LINE",
"148 328 LINE"
);
}
);
width = 586;
}
);
leftMetricsKey = hyphen;
rightMetricsKey = hyphen;
unicode = 2013;
},
{
color = 3;
glyphname = emdash;
layers = (
{
layerId = "E25E64E2-9639-43F9-BB85-44020EE7B81E";
name = Regular;
paths = (
{
closed = 1;
nodes = (
"117 328 OFFCURVE",
"74 321 OFFCURVE",
"35 302 CURVE",
"41 217 LINE",
"947 217 LINE",
"994 270 LINE",
"989 328 LINE",
"148 328 LINE"
);
}
);
width = 1047;
}
);
leftMetricsKey = hyphen;
rightMetricsKey = hyphen;
unicode = 2014;
},
{
color = 3;
glyphname = quoteleft;
layers = (
{
layerId = "E25E64E2-9639-43F9-BB85-44020EE7B81E";
name = Regular;
paths = (
{
closed = 1;
nodes = (
"189 754 LINE",
"92 710 OFFCURVE",
"22 631 OFFCURVE",
"22 553 CURVE SMOOTH",
"22 515 OFFCURVE",
"40 456 OFFCURVE",
"119 426 CURVE",
"169 439 OFFCURVE",
"211 492 OFFCURVE",
"221 533 CURVE",
"162 589 LINE",
"171 638 OFFCURVE",
"195 672 OFFCURVE",
"230 704 CURVE"
);
}
);
width = 270;
}
);
unicode = 2018;
},
{
color = 3;
glyphname = quoteright;
layers = (
{
layerId = "E25E64E2-9639-43F9-BB85-44020EE7B81E";
name = Regular;
paths = (
{
closed = 1;
nodes = (
"81 426 LINE",
"178 470 OFFCURVE",
"248 549 OFFCURVE",
"248 627 CURVE SMOOTH",
"248 664 OFFCURVE",
"230 725 OFFCURVE",
"151 754 CURVE",
"101 742 OFFCURVE",
"59 688 OFFCURVE",
"49 648 CURVE",
"108 592 LINE",
"99 543 OFFCURVE",
"75 508 OFFCURVE",
"40 476 CURVE"
);
}
);
width = 270;
}
);
unicode = 2019;
},
{
color = 3;
glyphname = dagger;
layers = (
{
layerId = "E25E64E2-9639-43F9-BB85-44020EE7B81E";
name = Regular;
paths = (
{
closed = 1;
nodes = (
"178 641 LINE",
"213 -180 LINE",
"354 -180 LINE",
"400 685 LINE",
"220 689 LINE"
);
},
{
closed = 1;
nodes = (
"545 432 LINE",
"539 469 LINE",
"77 469 LINE",
"34 408 LINE",
"40 371 LINE",
"502 371 LINE"
);
}
);
width = 579;
}
);
unicode = 2020;
},
{
color = 3;
glyphname = daggerdbl;
layers = (
{
layerId = "E25E64E2-9639-43F9-BB85-44020EE7B81E";
name = Regular;
paths = (
{
closed = 1;
nodes = (
"180 641 LINE",
"215 -180 LINE",
"356 -180 LINE",
"402 685 LINE",
"222 689 LINE"
);
},
{
closed = 1;
nodes = (
"547 432 LINE",
"541 469 LINE",
"79 469 LINE",
"36 408 LINE",
"42 371 LINE",
"504 371 LINE"
);
},
{
closed = 1;
nodes = (
"545 200 LINE",
"539 237 LINE",
"77 237 LINE",
"34 177 LINE",
"40 140 LINE",
"502 140 LINE"
);
}
);
width = 581;
}
);
leftMetricsKey = dagger;
rightMetricsKey = dagger;
unicode = 2021;
},
{
color = 3;
glyphname = bullet;
layers = (
{
layerId = "E25E64E2-9639-43F9-BB85-44020EE7B81E";
name = Regular;
paths = (
{
closed = 1;
nodes = (
"344 328 OFFCURVE",
"277 388 OFFCURVE",
"199 422 CURVE",
"121 378 OFFCURVE",
"63 315 OFFCURVE",
"49 224 CURVE",
"86 155 OFFCURVE",
"145 109 OFFCURVE",
"226 81 CURVE",
"299 119 OFFCURVE",
"346 177 OFFCURVE",
"370 251 CURVE"
);
}
);
width = 419;
}
);
unicode = 2022;
},
{
color = 3;
glyphname = ellipsis;
layers = (
{
layerId = "E25E64E2-9639-43F9-BB85-44020EE7B81E";
name = Regular;
paths = (
{
closed = 1;
nodes = (
"292 140 OFFCURVE",
"248 179 OFFCURVE",
"197 202 CURVE",
"145 174 OFFCURVE",
"107 132 OFFCURVE",
"99 73 CURVE",
"123 28 OFFCURVE",
"161 -2 OFFCURVE",
"214 -20 CURVE",
"261 5 OFFCURVE",
"292 42 OFFCURVE",
"307 91 CURVE"
);
},
{
closed = 1;
nodes = (
"600 140 OFFCURVE",
"556 179 OFFCURVE",
"505 202 CURVE",
"453 174 OFFCURVE",
"415 132 OFFCURVE",
"407 73 CURVE",
"431 28 OFFCURVE",
"469 -2 OFFCURVE",
"522 -20 CURVE",
"569 5 OFFCURVE",
"600 42 OFFCURVE",
"615 91 CURVE"
);
},
{
closed = 1;
nodes = (
"908 140 OFFCURVE",
"864 179 OFFCURVE",
"813 202 CURVE",
"761 174 OFFCURVE",
"723 132 OFFCURVE",
"715 73 CURVE",
"739 28 OFFCURVE",
"777 -2 OFFCURVE",
"830 -20 CURVE",
"877 5 OFFCURVE",
"908 42 OFFCURVE",
"923 91 CURVE"
);
}
);
width = 943;
}
);
leftMetricsKey = period;
rightMetricsKey = period;
unicode = 2026;
},
{
color = 3;
glyphname = perthousand;
layers = (
{
layerId = "E25E64E2-9639-43F9-BB85-44020EE7B81E";
name = Regular;
paths = (
{
closed = 1;
nodes = (
"236 -38 LINE",
"645 538 LINE",
"570 596 LINE",
"162 22 LINE"
);
},
{
closed = 1;
nodes = (
"225 357 OFFCURVE",
"220 356 OFFCURVE",
"214 356 CURVE SMOOTH",
"168 356 OFFCURVE",
"149 410 OFFCURVE",
"149 450 CURVE SMOOTH",
"149 471 OFFCURVE",
"156 491 OFFCURVE",
"167 507 CURVE",
"175 510 OFFCURVE",
"182 512 OFFCURVE",
"188 512 CURVE SMOOTH",
"224 512 OFFCURVE",
"252 472 OFFCURVE",
"252 422 CURVE SMOOTH",
"252 403 OFFCURVE",
"248 378 OFFCURVE",
"230 358 CURVE"
);
},
{
closed = 1;
nodes = (
"36 336 OFFCURVE",
"114 258 OFFCURVE",
"205 258 CURVE SMOOTH",
"299 258 OFFCURVE",
"367 335 OFFCURVE",
"367 435 CURVE SMOOTH",
"367 527 OFFCURVE",
"293 613 OFFCURVE",
"200 613 CURVE SMOOTH",
"108 613 OFFCURVE",
"36 527 OFFCURVE",
"36 435 CURVE SMOOTH"
);
},
{
closed = 1;
nodes = (
"655 77 OFFCURVE",
"651 76 OFFCURVE",
"646 76 CURVE SMOOTH",
"604 76 OFFCURVE",
"579 122 OFFCURVE",
"579 167 CURVE SMOOTH",
"579 184 OFFCURVE",
"583 207 OFFCURVE",
"597 227 CURVE",
"605 230 OFFCURVE",
"612 232 OFFCURVE",
"618 232 CURVE SMOOTH",
"656 232 OFFCURVE",
"682 187 OFFCURVE",
"682 142 CURVE SMOOTH",
"682 121 OFFCURVE",
"678 98 OFFCURVE",
"660 78 CURVE"
);
},
{
closed = 1;
nodes = (
"466 56 OFFCURVE",
"544 -21 OFFCURVE",
"635 -21 CURVE SMOOTH",
"729 -21 OFFCURVE",
"797 55 OFFCURVE",
"797 155 CURVE SMOOTH",
"797 247 OFFCURVE",
"723 333 OFFCURVE",
"630 333 CURVE SMOOTH",
"538 333 OFFCURVE",
"466 247 OFFCURVE",
"466 155 CURVE SMOOTH"
);
},
{
closed = 1;
nodes = (
"1022 77 OFFCURVE",
"1018 76 OFFCURVE",
"1013 76 CURVE SMOOTH",
"971 76 OFFCURVE",
"946 122 OFFCURVE",
"946 167 CURVE SMOOTH",
"946 182 OFFCURVE",
"950 207 OFFCURVE",
"964 227 CURVE",
"972 230 OFFCURVE",
"979 232 OFFCURVE",
"985 232 CURVE SMOOTH",
"1023 232 OFFCURVE",
"1049 187 OFFCURVE",
"1049 142 CURVE SMOOTH",
"1049 123 OFFCURVE",
"1045 98 OFFCURVE",
"1027 78 CURVE"
);
},
{
closed = 1;
nodes = (
"833 56 OFFCURVE",
"911 -21 OFFCURVE",
"1002 -21 CURVE SMOOTH",
"1096 -21 OFFCURVE",
"1164 55 OFFCURVE",
"1164 155 CURVE SMOOTH",
"1164 247 OFFCURVE",
"1090 333 OFFCURVE",
"997 333 CURVE SMOOTH",
"905 333 OFFCURVE",
"833 247 OFFCURVE",
"833 155 CURVE SMOOTH"
);
}
);
width = 1200;
}
);
leftMetricsKey = percent;
rightMetricsKey = percent;
unicode = 2030;
},
{
color = 3;
glyphname = guilsinglleft;
layers = (
{
layerId = "E25E64E2-9639-43F9-BB85-44020EE7B81E";
name = Regular;
paths = (
{
closed = 1;
nodes = (
"52 207 LINE",
"228 29 LINE",
"327 99 LINE",
"231 253 LINE",
"320 415 LINE",
"228 480 LINE",
"52 299 LINE"
);
}
);
width = 379;
}
);
unicode = 2039;
},
{
color = 3;
glyphname = guilsinglright;
layers = (
{
layerId = "E25E64E2-9639-43F9-BB85-44020EE7B81E";
name = Regular;
paths = (
{
closed = 1;
nodes = (
"151 480 LINE",
"59 415 LINE",
"148 253 LINE",
"52 99 LINE",
"151 29 LINE",
"327 207 LINE",
"327 299 LINE"
);
}
);
width = 379;
}
);
leftMetricsKey = "=|";
rightMetricsKey = "=|guilsinglleft";
unicode = 203A;
},
{
color = 3;
glyphname = fraction;
layers = (
{
layerId = "E25E64E2-9639-43F9-BB85-44020EE7B81E";
name = Regular;
paths = (
{
closed = 1;
nodes = (
"-133 10 LINE",
"458 628 LINE",
"387 698 LINE",
"-205 78 LINE"
);
}
);
width = 204;
}
);
unicode = 2044;
},
{
color = 3;
glyphname = euro;
layers = (
{
anchors = (
{
name = bottom;
position = "{424, 0}";
},
{
name = top;
position = "{424, 650}";
}
);
layerId = "E25E64E2-9639-43F9-BB85-44020EE7B81E";
name = Regular;
paths = (
{
closed = 1;
nodes = (
"622 141 LINE",
"476 103 LINE",
"341 113 OFFCURVE",
"285 196 OFFCURVE",
"285 325 CURVE SMOOTH",
"285 422 OFFCURVE",
"317 502 OFFCURVE",
"374 553 CURVE",
"450 558 OFFCURVE",
"523 533 OFFCURVE",
"596 472 CURVE",
"655 607 LINE",
"603 647 OFFCURVE",
"526 670 OFFCURVE",
"442 670 CURVE SMOOTH",
"204 670 OFFCURVE",
"86 485 OFFCURVE",
"86 310 CURVE SMOOTH",
"86 164 OFFCURVE",
"168 -32 OFFCURVE",
"468 -22 CURVE",
"652 51 LINE"
);
},
{
closed = 1;
nodes = (
"616 442 LINE",
"633 487 OFFCURVE",
"646 540 OFFCURVE",
"656 607 CURVE",
"494 613 LINE",
"526 442 LINE"
);
},
{
closed = 1;
nodes = (
"589 378 LINE",
"583 405 LINE",
"40 405 LINE",
"-1 356 LINE",
"5 329 LINE",
"548 329 LINE"
);
},
{
closed = 1;
nodes = (
"549 247 LINE",
"543 274 LINE",
"18 274 LINE",
"-23 225 LINE",
"-17 198 LINE",
"508 198 LINE"
);
}
);
width = 668;
}
);
rightMetricsKey = C;
unicode = 20AC;
},
{
color = 3;
glyphname = ruble;
layers = (
{
layerId = "E25E64E2-9639-43F9-BB85-44020EE7B81E";
name = Regular;
paths = (
{
closed = 1;
nodes = (
"38 666 LINE",
"313 563 LINE",
"430 578 LINE",
"459 556 OFFCURVE",
"474 486 OFFCURVE",
"474 440 CURVE SMOOTH",
"474 379 OFFCURVE",
"444 325 OFFCURVE",
"377 325 CURVE SMOOTH",
"299 325 LINE",
"296 229 LINE",
"414 229 LINE SMOOTH",
"572 229 OFFCURVE",
"685 321 OFFCURVE",
"685 446 CURVE SMOOTH",
"685 563 OFFCURVE",
"588 676 OFFCURVE",
"405 674 CURVE SMOOTH"
);
},
{
closed = 1;
nodes = (
"97 73 OFFCURVE",
"64 54 OFFCURVE",
"36 32 CURVE",
"42 0 LINE",
"136 0 LINE",
"135 91 LINE"
);
},
{
closed = 1;
nodes = (
"306 0 LINE",
"446 0 LINE",
"447 55 LINE",
"309 79 LINE"
);
},
{
closed = 1;
nodes = (
"113 666 LINE",
"113 0 LINE",
"323 0 LINE",
"323 666 LINE"
);
},
{
closed = 1;
nodes = (
"38 666 LINE",
"37 611 LINE",
"167 589 LINE",
"169 666 LINE"
);
},
{
closed = 1;
nodes = (
"429 155 LINE",
"423 196 LINE",
"69 196 LINE",
"26 153 LINE",
"32 116 LINE",
"386 116 LINE"
);
},
{
closed = 1;
nodes = (
"429 276 LINE",
"423 322 LINE",
"69 322 LINE",
"26 274 LINE",
"32 237 LINE",
"386 237 LINE"
);
}
);
width = 698;
}
);
leftKerningGroup = I;
leftMetricsKey = P;
rightMetricsKey = P;
unicode = 20BD;
},
{
color = 3;
glyphname = trademark;
layers = (
{
anchors = (
{
name = bottom;
position = "{171, 359}";
},
{
name = center;
position = "{218, 502}";
},
{
name = top;
position = "{171, 645}";
}
);
layerId = "E25E64E2-9639-43F9-BB85-44020EE7B81E";
name = Regular;
paths = (
{
closed = 1;
nodes = (
"134 726 LINE",
"134 448 LINE",
"260 448 LINE",
"260 726 LINE"
);
},
{
closed = 1;
nodes = (
"121 484 OFFCURVE",
"98 474 OFFCURVE",
"85 462 CURVE",
"88 448 LINE",
"141 448 LINE",
"140 495 LINE"
);
},
{
closed = 1;
nodes = (
"239 448 LINE",
"307 448 LINE",
"308 474 LINE",
"241 487 LINE"
);
},
{
closed = 1;
nodes = (
"211 734 OFFCURVE",
"184 734 OFFCURVE",
"2 737 CURVE",
"34 677 LINE",
"196 688 LINE",
"358 677 LINE",
"391 737 LINE"
);
},
{
closed = 1;
nodes = (
"377 598 LINE",
"385 618 OFFCURVE",
"393 713 OFFCURVE",
"391 737 CURVE",
"286 732 LINE",
"309 598 LINE SMOOTH"
);
},
{
closed = 1;
nodes = (
"106 732 LINE",
"2 737 LINE",
"-1 713 OFFCURVE",
"7 618 OFFCURVE",
"15 598 CURVE",
"84 598 LINE"
);
},
{
closed = 1;
nodes = (
"424 735 LINE",
"423 709 LINE",
"490 696 LINE",
"492 735 LINE"
);
},
{
closed = 1;
nodes = (
"459 735 LINE",
"446 449 LINE",
"524 449 LINE",
"530 589 LINE",
"523 675 LINE",
"602 735 LINE"
);
},
{
closed = 1;
nodes = (
"434 485 OFFCURVE",
"418 475 OFFCURVE",
"405 463 CURVE",
"408 449 LINE",
"454 449 LINE",
"454 496 LINE"
);
},
{
closed = 1;
nodes = (
"503 449 LINE",
"571 449 LINE",
"571 475 LINE SMOOTH",
"504 488 LINE"
);
},
{
closed = 1;
nodes = (
"494 715 LINE",
"607 446 LINE",
"688 456 LINE",
"691 526 LINE",
"602 735 LINE"
);
},
{
closed = 1;
nodes = (
"639 465 LINE",
"688 456 LINE",
"797 719 LINE",
"750 735 LINE"
);
},
{
closed = 1;
nodes = (
"750 735 LINE",
"765 671 LINE",
"758 585 LINE",
"767 449 LINE",
"879 449 LINE",
"864 735 LINE"
);
},
{
closed = 1;
nodes = (
"854 735 LINE",
"854 688 LINE",
"874 699 OFFCURVE",
"890 709 OFFCURVE",
"903 721 CURVE",
"900 735 LINE"
);
},
{
closed = 1;
nodes = (
"754 485 OFFCURVE",
"738 475 OFFCURVE",
"725 463 CURVE",
"728 449 LINE",
"774 449 LINE",
"774 496 LINE"
);
},
{
closed = 1;
nodes = (
"849 449 LINE",
"917 449 LINE",
"917 475 LINE",
"850 488 LINE"
);
}
);
width = 939;
}
);
leftMetricsKey = T;
rightMetricsKey = M;
unicode = 2122;
},
{
color = 3;
glyphname = Ohm;
layers = (
{
layerId = "E25E64E2-9639-43F9-BB85-44020EE7B81E";
name = Regular;
paths = (
{
closed = 1;
nodes = (
"442 12 LINE",
"592 77 OFFCURVE",
"716 208 OFFCURVE",
"716 367 CURVE SMOOTH",
"716 551 OFFCURVE",
"548 670 OFFCURVE",
"377 670 CURVE SMOOTH",
"202 670 OFFCURVE",
"28 545 OFFCURVE",
"28 358 CURVE SMOOTH",
"28 195 OFFCURVE",
"158 83 OFFCURVE",
"321 18 CURVE",
"358 91 LINE",
"272 185 OFFCURVE",
"240 297 OFFCURVE",
"240 384 CURVE SMOOTH",
"240 498 OFFCURVE",
"293 573 OFFCURVE",
"383 573 CURVE SMOOTH",
"474 573 OFFCURVE",
"525 499 OFFCURVE",
"525 387 CURVE SMOOTH",
"525 303 OFFCURVE",
"494 190 OFFCURVE",
"411 87 CURVE"
);
},
{
closed = 1;
nodes = (
"253 86 OFFCURVE",
"116 63 OFFCURVE",
"58 32 CURVE",
"64 0 LINE",
"358 0 LINE",
"358 91 LINE"
);
},
{
closed = 1;
nodes = (
"411 0 LINE",
"691 0 LINE",
"692 55 LINE",
"411 87 LINE"
);
}
);
width = 744;
}
);
leftMetricsKey = O;
rightMetricsKey = O;
unicode = 2126;
},
{
color = 3;
glyphname = partialdiff;
layers = (
{
layerId = "E25E64E2-9639-43F9-BB85-44020EE7B81E";
name = Regular;
paths = (
{
closed = 1;
nodes = (
"413 405 LINE",
"263 476 LINE",
"142 476 OFFCURVE",
"43 355 OFFCURVE",
"43 217 CURVE SMOOTH",
"43 74 OFFCURVE",
"141 -33 OFFCURVE",
"294 -33 CURVE SMOOTH",
"443 -33 OFFCURVE",
"561 81 OFFCURVE",
"561 289 CURVE SMOOTH",
"561 480 OFFCURVE",
"463 677 OFFCURVE",
"197 761 CURVE",
"156 676 LINE",
"298 625 OFFCURVE",
"375 478 OFFCURVE",
"375 319 CURVE SMOOTH",
"375 218 OFFCURVE",
"347 119 OFFCURVE",
"294 70 CURVE",
"244 79 OFFCURVE",
"226 137 OFFCURVE",
"229 193 CURVE SMOOTH",
"234 276 OFFCURVE",
"293 365 OFFCURVE",
"413 357 CURVE"
);
}
);
width = 600;
}
);
unicode = 2202;
},
{
color = 3;
glyphname = increment;
layers = (
{
layerId = "E25E64E2-9639-43F9-BB85-44020EE7B81E";
name = Regular;
paths = (
{
closed = 1;
nodes = (
"40 37 LINE",
"46 0 LINE",
"669 0 LINE",
"711 38 LINE",
"706 76 LINE",
"89 76 LINE"
);
},
{
closed = 1;
nodes = (
"40 37 LINE",
"167 31 LINE",
"371 604 LINE",
"264 629 LINE"
);
},
{
closed = 1;
nodes = (
"264 629 LINE",
"517 0 LINE",
"705 76 LINE",
"446 674 LINE"
);
}
);
width = 743;
}
);
unicode = 2206;
},
{
color = 9;
glyphname = product;
layers = (
{
layerId = "E25E64E2-9639-43F9-BB85-44020EE7B81E";
name = Regular;
paths = (
{
closed = 1;
nodes = (
"100 735 OFFCURVE",
"60 727 OFFCURVE",
"22 708 CURVE",
"36 627 LINE",
"775 627 LINE",
"820 676 LINE",
"816 735 LINE",
"131 735 LINE"
);
},
{
closed = 1;
nodes = (
"134 680 LINE",
"134 -100 LINE",
"344 -100 LINE",
"344 680 LINE"
);
},
{
closed = 1;
nodes = (
"489 680 LINE",
"489 -100 LINE",
"699 -100 LINE",
"699 680 LINE"
);
},
{
closed = 1;
nodes = (
"110 -27 OFFCURVE",
"77 -46 OFFCURVE",
"49 -68 CURVE",
"55 -100 LINE",
"149 -100 LINE",
"148 -9 LINE"
);
},
{
closed = 1;
nodes = (
"292 -100 LINE",
"432 -100 LINE",
"433 -45 LINE",
"295 -21 LINE"
);
},
{
closed = 1;
nodes = (
"647 -100 LINE",
"787 -100 LINE",
"788 -45 LINE",
"650 -21 LINE"
);
}
);
width = 842;
}
);
leftMetricsKey = H;
rightMetricsKey = H;
unicode = 220F;
},
{
color = 3;
glyphname = summation;
layers = (
{
layerId = "E25E64E2-9639-43F9-BB85-44020EE7B81E";
name = Regular;
paths = (
{
closed = 1;
nodes = (
"629 735 LINE",
"30 735 LINE",
"30 655 LINE",
"299 613 LINE",
"612 600 LINE"
);
},
{
closed = 1;
nodes = (
"606 482 LINE",
"620 533 OFFCURVE",
"632 689 OFFCURVE",
"628 735 CURVE",
"402 726 LINE",
"483 482 LINE"
);
},
{
closed = 1;
nodes = (
"30 655 LINE",
"229 236 LINE",
"392 308 LINE",
"201 724 LINE"
);
},
{
closed = 1;
nodes = (
"46 -27 LINE",
"133 -92 LINE",
"392 308 LINE",
"307 377 LINE"
);
},
{
closed = 1;
nodes = (
"275 14 LINE",
"46 -28 LINE",
"46 -100 LINE",
"657 -100 LINE",
"640 27 LINE"
);
},
{
closed = 1;
nodes = (
"430 -91 LINE",
"656 -100 LINE",
"660 -54 OFFCURVE",
"648 102 OFFCURVE",
"634 153 CURVE",
"511 153 LINE"
);
}
);
width = 719;
}
);
unicode = 2211;
},
{
color = 3;
glyphname = minus;
layers = (
{
layerId = "E25E64E2-9639-43F9-BB85-44020EE7B81E";
name = Regular;
paths = (
{
closed = 1;
nodes = (
"52 320 LINE",
"52 210 LINE",
"542 210 LINE",
"542 320 LINE"
);
}
);
width = 594;
}
);
unicode = 2212;
},
{
color = 3;
glyphname = bulletoperator;
layers = (
{
layerId = "E25E64E2-9639-43F9-BB85-44020EE7B81E";
name = Regular;
paths = (
{
closed = 1;
nodes = (
"192 192 OFFCURVE",
"232 244 OFFCURVE",
"249 288 CURVE",
"225 320 OFFCURVE",
"174 366 OFFCURVE",
"130 384 CURVE",
"92 362 OFFCURVE",
"54 310 OFFCURVE",
"30 262 CURVE",
"56 226 OFFCURVE",
"115 182 OFFCURVE",
"154 166 CURVE"
);
}
);
width = 309;
}
);
unicode = 2219;
},
{
color = 3;
glyphname = radical;
layers = (
{
layerId = "E25E64E2-9639-43F9-BB85-44020EE7B81E";
name = Regular;
paths = (
{
closed = 1;
nodes = (
"317 474 LINE",
"451 -57 LINE",
"347 -56 LINE",
"598 751 LINE",
"739 703 LINE",
"493 -84 LINE",
"453 -98 OFFCURVE",
"360 -103 OFFCURVE",
"316 -101 CURVE",
"177 388 LINE",
"270 336 LINE",
"112 233 LINE",
"41 334 LINE",
"195 474 LINE"
);
}
);
width = 805;
}
);
unicode = 221A;
},
{
color = 3;
glyphname = infinity;
layers = (
{
layerId = "E25E64E2-9639-43F9-BB85-44020EE7B81E";
name = Regular;
paths = (
{
closed = 1;
nodes = (
"130 536 OFFCURVE",
"30 454 OFFCURVE",
"30 322 CURVE SMOOTH",
"30 192 OFFCURVE",
"128 132 OFFCURVE",
"208 132 CURVE SMOOTH",
"298 132 OFFCURVE",
"365 209 OFFCURVE",
"411 301 CURVE",
"367 353 LINE",
"338 304 OFFCURVE",
"298 279 OFFCURVE",
"258 279 CURVE SMOOTH",
"207 279 OFFCURVE",
"167 318 OFFCURVE",
"167 375 CURVE SMOOTH",
"167 387 OFFCURVE",
"171 394 OFFCURVE",
"175 402 CURVE",
"232 434 OFFCURVE",
"291 357 OFFCURVE",
"352 275 CURVE",
"409 202 OFFCURVE",
"469 131 OFFCURVE",
"560 131 CURVE SMOOTH",
"648 131 OFFCURVE",
"753 197 OFFCURVE",
"753 338 CURVE SMOOTH",
"753 460 OFFCURVE",
"674 534 OFFCURVE",
"588 534 CURVE SMOOTH",
"496 534 OFFCURVE",
"431 446 OFFCURVE",
"382 366 CURVE",
"419 319 LINE",
"457 367 OFFCURVE",
"515 398 OFFCURVE",
"555 398 CURVE SMOOTH",
"600 398 OFFCURVE",
"626 357 OFFCURVE",
"626 323 CURVE SMOOTH",
"626 310 OFFCURVE",
"623 293 OFFCURVE",
"613 280 CURVE",
"556 250 OFFCURVE",
"504 326 OFFCURVE",
"447 394 CURVE SMOOTH",
"392 458 OFFCURVE",
"323 536 OFFCURVE",
"227 536 CURVE SMOOTH"
);
}
);
width = 775;
}
);
unicode = 221E;
},
{
color = 3;
glyphname = integral;
layers = (
{
layerId = "E25E64E2-9639-43F9-BB85-44020EE7B81E";
name = Regular;
paths = (
{
closed = 1;
nodes = (
"434 -39 OFFCURVE",
"281 -179 OFFCURVE",
"146 -179 CURVE SMOOTH",
"98 -180 OFFCURVE",
"45 -162 OFFCURVE",
"-33 -130 CURVE",
"61 45 LINE",
"111 -5 OFFCURVE",
"162 -50 OFFCURVE",
"227 -70 CURVE",
"42 454 LINE",
"42 611 OFFCURVE",
"194 750 OFFCURVE",
"330 751 CURVE SMOOTH",
"385 751 OFFCURVE",
"432 737 OFFCURVE",
"508 702 CURVE",
"414 527 LINE",
"365 577 OFFCURVE",
"314 621 OFFCURVE",
"249 642 CURVE",
"434 118 LINE"
);
}
);
width = 475;
}
);
unicode = 222B;
},
{
color = 3;
glyphname = notequal;
layers = (
{
components = (
{
name = equal;
}
);
layerId = "E25E64E2-9639-43F9-BB85-44020EE7B81E";
name = Regular;
paths = (
{
closed = 1;
nodes = (
"168 -6 LINE",
"478 496 LINE",
"428 524 LINE",
"118 23 LINE"
);
}
);
width = 576;
}
);
leftMetricsKey = minus;
rightMetricsKey = minus;
unicode = 2260;
},
{
color = 3;
glyphname = lessequal;
layers = (
{
layerId = "E25E64E2-9639-43F9-BB85-44020EE7B81E";
name = Regular;
paths = (
{
closed = 1;
nodes = (
"62 407 LINE",
"70 337 LINE",
"479 149 LINE",
"526 235 LINE",
"217 374 LINE",
"216 380 LINE",
"526 532 LINE",
"478 615 LINE"
);
},
{
closed = 1;
nodes = (
"52 97 LINE",
"52 0 LINE",
"542 0 LINE",
"542 97 LINE"
);
}
);
width = 594;
}
);
leftMetricsKey = minus;
rightMetricsKey = minus;
unicode = 2264;
},
{
color = 3;
glyphname = greaterequal;
layers = (
{
layerId = "E25E64E2-9639-43F9-BB85-44020EE7B81E";
name = Regular;
paths = (
{
closed = 1;
nodes = (
"68 532 LINE",
"378 380 LINE",
"377 374 LINE",
"68 235 LINE",
"115 149 LINE",
"524 337 LINE",
"532 407 LINE",
"117 615 LINE"
);
},
{
closed = 1;
nodes = (
"52 0 LINE",
"542 0 LINE",
"542 97 LINE",
"52 97 LINE"
);
}
);
width = 594;
}
);
leftMetricsKey = minus;
rightMetricsKey = minus;
unicode = 2265;
},
{
color = 3;
glyphname = lozenge;
layers = (
{
layerId = "E25E64E2-9639-43F9-BB85-44020EE7B81E";
name = Regular;
paths = (
{
closed = 1;
nodes = (
"148 413 LINE",
"34 368 LINE",
"234 -8 LINE",
"336 0 LINE",
"516 367 LINE",
"398 410 LINE",
"285 159 LINE",
"279 158 LINE"
);
},
{
closed = 1;
nodes = (
"402 322 LINE",
"516 367 LINE",
"316 743 LINE",
"214 735 LINE",
"34 368 LINE",
"152 325 LINE",
"265 576 LINE",
"271 577 LINE"
);
}
);
width = 550;
}
);
unicode = 25CA;
},
{
color = 3;
glyphname = f_b.liga;
layers = (
{
components = (
{
name = b;
transform = "{1, 0, 0, 1, 402, 0}";
}
);
layerId = "E25E64E2-9639-43F9-BB85-44020EE7B81E";
name = Regular;
paths = (
{
closed = 1;
nodes = (
"597 737 LINE",
"304 737 LINE SMOOTH",
"182 737 OFFCURVE",
"82 650 OFFCURVE",
"82 523 CURVE SMOOTH",
"82 0 LINE",
"284 0 LINE",
"284 437 LINE",
"285 467 LINE",
"230 613 LINE",
"540 573 LINE"
);
},
{
closed = 1;
nodes = (
"225 351 LINE",
"228 426 LINE",
"146 499 LINE",
"99 469 OFFCURVE",
"51 439 OFFCURVE",
"3 406 CURVE",
"4 350 LINE SMOOTH"
);
},
{
closed = 1;
nodes = (
"227 349 LINE",
"337 349 LINE",
"389 418 LINE",
"388 474 LINE",
"227 474 LINE"
);
},
{
closed = 1;
nodes = (
"140 0 LINE",
"148 88 LINE",
"106 79 OFFCURVE",
"58 61 OFFCURVE",
"16 35 CURVE",
"17 0 LINE"
);
},
{
closed = 1;
nodes = (
"366 0 LINE",
"367 49 LINE",
"325 80 OFFCURVE",
"280 102 OFFCURVE",
"236 115 CURVE",
"203 0 LINE"
);
}
);
width = 1022;
}
);
leftKerningGroup = f;
leftMetricsKey = f;
rightKerningGroup = o;
rightMetricsKey = b;
},
{
color = 3;
glyphname = f_h.liga;
layers = (
{
components = (
{
name = h;
transform = "{1, 0, 0, 1, 404, 0}";
}
);
layerId = "E25E64E2-9639-43F9-BB85-44020EE7B81E";
name = Regular;
paths = (
{
closed = 1;
nodes = (
"225 351 LINE",
"228 426 LINE",
"146 499 LINE",
"99 469 OFFCURVE",
"51 439 OFFCURVE",
"3 406 CURVE",
"4 350 LINE"
);
},
{
closed = 1;
nodes = (
"140 0 LINE",
"148 88 LINE",
"106 79 OFFCURVE",
"58 61 OFFCURVE",
"16 35 CURVE",
"17 0 LINE"
);
},
{
closed = 1;
nodes = (
"366 0 LINE",
"367 49 LINE",
"325 80 OFFCURVE",
"280 102 OFFCURVE",
"236 115 CURVE",
"203 0 LINE"
);
},
{
closed = 1;
nodes = (
"227 349 LINE",
"337 349 LINE",
"389 418 LINE",
"388 474 LINE",
"227 474 LINE"
);
},
{
closed = 1;
nodes = (
"626 737 LINE",
"304 737 LINE SMOOTH",
"182 737 OFFCURVE",
"82 650 OFFCURVE",
"82 523 CURVE SMOOTH",
"82 0 LINE",
"284 0 LINE",
"284 437 LINE",
"285 467 LINE",
"230 613 LINE",
"543 573 LINE"
);
}
);
width = 1060;
}
);
leftKerningGroup = f;
leftMetricsKey = f;
rightKerningGroup = n;
rightMetricsKey = h;
},
{
color = 3;
glyphname = f_k.liga;
layers = (
{
components = (
{
name = k;
transform = "{1, 0, 0, 1, 403, 0}";
}
);
layerId = "E25E64E2-9639-43F9-BB85-44020EE7B81E";
name = Regular;
paths = (
{
closed = 1;
nodes = (
"225 351 LINE",
"228 426 LINE",
"146 499 LINE",
"99 469 OFFCURVE",
"51 439 OFFCURVE",
"3 406 CURVE",
"4 350 LINE"
);
},
{
closed = 1;
nodes = (
"227 474 LINE",
"227 349 LINE",
"337 349 LINE",
"389 418 LINE",
"388 474 LINE"
);
},
{
closed = 1;
nodes = (
"140 0 LINE",
"148 88 LINE",
"106 79 OFFCURVE",
"58 61 OFFCURVE",
"16 35 CURVE",
"17 0 LINE"
);
},
{
closed = 1;
nodes = (
"366 0 LINE",
"367 49 LINE",
"325 80 OFFCURVE",
"280 102 OFFCURVE",
"236 115 CURVE",
"203 0 LINE"
);
},
{
closed = 1;
nodes = (
"626 737 LINE",
"304 737 LINE SMOOTH",
"182 737 OFFCURVE",
"82 650 OFFCURVE",
"82 523 CURVE SMOOTH",
"82 0 LINE",
"284 0 LINE",
"284 437 LINE",
"285 467 LINE",
"230 613 LINE",
"543 573 LINE"
);
}
);
width = 1059;
}
);
leftKerningGroup = f;
leftMetricsKey = f;
rightKerningGroup = k;
rightMetricsKey = k;
},
{
color = 3;
glyphname = f_l.liga;
layers = (
{
components = (
{
name = l;
transform = "{1, 0, 0, 1, 404, 0}";
}
);
layerId = "E25E64E2-9639-43F9-BB85-44020EE7B81E";
name = Regular;
paths = (
{
closed = 1;
nodes = (
"225 351 LINE",
"228 426 LINE",
"146 499 LINE",
"99 469 OFFCURVE",
"51 439 OFFCURVE",
"3 406 CURVE",
"4 350 LINE"
);
},
{
closed = 1;
nodes = (
"227 474 LINE",
"227 349 LINE",
"337 349 LINE",
"389 418 LINE",
"388 474 LINE"
);
},
{
closed = 1;
nodes = (
"140 0 LINE",
"148 88 LINE",
"106 79 OFFCURVE",
"58 61 OFFCURVE",
"16 35 CURVE",
"17 0 LINE"
);
},
{
closed = 1;
nodes = (
"366 0 LINE",
"367 49 LINE",
"325 80 OFFCURVE",
"280 102 OFFCURVE",
"236 115 CURVE",
"203 0 LINE"
);
},
{
closed = 1;
nodes = (
"626 737 LINE",
"304 737 LINE SMOOTH",
"182 737 OFFCURVE",
"82 650 OFFCURVE",
"82 523 CURVE SMOOTH",
"82 0 LINE",
"284 0 LINE",
"284 437 LINE",
"285 467 LINE",
"230 613 LINE",
"543 573 LINE"
);
}
);
width = 773;
}
);
leftKerningGroup = f;
leftMetricsKey = f;
rightKerningGroup = l;
rightMetricsKey = l;
},
{
color = 3;
glyphname = acutecomb;
layers = (
{
anchors = (
{
name = _top;
position = "{0, 474}";
}
);
layerId = "E25E64E2-9639-43F9-BB85-44020EE7B81E";
name = Regular;
paths = (
{
closed = 1;
nodes = (
"50 589 OFFCURVE",
"113 654 OFFCURVE",
"173 702 CURVE",
"53 808 LINE",
"-104 611 LINE",
"-6 535 LINE"
);
}
);
width = 0;
}
);
unicode = 0301;
},
{
color = 3;
glyphname = brevecomb;
layers = (
{
anchors = (
{
name = _top;
position = "{-0, 474}";
}
);
layerId = "E25E64E2-9639-43F9-BB85-44020EE7B81E";
name = Regular;
paths = (
{
closed = 1;
nodes = (
"55 721 LINE",
"55 675 OFFCURVE",
"27 651 OFFCURVE",
"-4 651 CURVE SMOOTH",
"-34 651 OFFCURVE",
"-64 673 OFFCURVE",
"-67 721 CURVE",
"-176 719 LINE",
"-170 604 OFFCURVE",
"-83 549 OFFCURVE",
"3 549 CURVE SMOOTH",
"92 549 OFFCURVE",
"176 606 OFFCURVE",
"178 719 CURVE"
);
}
);
width = 0;
}
);
unicode = 0306;
},
{
color = 3;
glyphname = caroncomb;
layers = (
{
anchors = (
{
name = _top;
position = "{0, 474}";
}
);
layerId = "E25E64E2-9639-43F9-BB85-44020EE7B81E";
name = Regular;
paths = (
{
closed = 1;
nodes = (
"-217 698 LINE",
"-67 541 LINE",
"72 543 LINE",
"209 715 LINE",
"128 785 LINE",
"5 642 LINE",
"-121 784 LINE"
);
}
);
width = 0;
}
);
unicode = 030C;
},
{
color = 3;
glyphname = acutecomb.case;
layers = (
{
anchors = (
{
name = _top;
position = "{1, 650}";
}
);
layerId = "E25E64E2-9639-43F9-BB85-44020EE7B81E";
name = Regular;
paths = (
{
closed = 1;
nodes = (
"-99 684 LINE",
"-16 719 OFFCURVE",
"81 752 OFFCURVE",
"165 784 CURVE",
"99 922 LINE",
"-150 773 LINE"
);
}
);
width = 0;
}
);
},
{
color = 3;
glyphname = brevecomb.case;
layers = (
{
anchors = (
{
name = _top;
position = "{-1, 650}";
}
);
layerId = "E25E64E2-9639-43F9-BB85-44020EE7B81E";
name = Regular;
paths = (
{
closed = 1;
nodes = (
"55 894 LINE",
"51 847 OFFCURVE",
"25 827 OFFCURVE",
"-5 827 CURVE SMOOTH",
"-32 827 OFFCURVE",
"-61 844 OFFCURVE",
"-67 895 CURVE",
"-176 892 LINE",
"-167 784 OFFCURVE",
"-89 728 OFFCURVE",
"4 728 CURVE SMOOTH",
"88 728 OFFCURVE",
"167 775 OFFCURVE",
"178 893 CURVE"
);
}
);
width = 0;
}
);
},
{
color = 3;
glyphname = caroncomb.case;
layers = (
{
anchors = (
{
name = _top;
position = "{-0, 510}";
}
);
layerId = "E25E64E2-9639-43F9-BB85-44020EE7B81E";
name = Regular;
paths = (
{
closed = 1;
nodes = (
"-223 720 LINE",
"-72 573 LINE",
"59 575 LINE",
"214 731 LINE",
"137 795 LINE",
"0 671 LINE",
"-135 797 LINE"
);
}
);
width = 0;
}
);
},
{
color = 3;
glyphname = circumflexcomb.case;
layers = (
{
anchors = (
{
name = _top;
position = "{-0, 510}";
}
);
layerId = "E25E64E2-9639-43F9-BB85-44020EE7B81E";
name = Regular;
paths = (
{
closed = 1;
nodes = (
"-153 567 LINE",
"0 683 LINE",
"161 567 LINE",
"225 629 LINE",
"68 804 LINE",
"-63 804 LINE",
"-221 629 LINE"
);
}
);
width = 0;
}
);
},
{
color = 3;
glyphname = gravecomb.case;
layers = (
{
anchors = (
{
name = _top;
position = "{-0, 650}";
}
);
layerId = "E25E64E2-9639-43F9-BB85-44020EE7B81E";
name = Regular;
paths = (
{
closed = 1;
nodes = (
"-97 922 LINE",
"-163 784 LINE",
"-79 752 OFFCURVE",
"18 719 OFFCURVE",
"101 684 CURVE",
"152 773 LINE"
);
}
);
width = 0;
}
);
},
{
color = 3;
glyphname = hungarumlautcomb.case;
layers = (
{
anchors = (
{
name = _top;
position = "{-1, 474}";
}
);
layerId = "E25E64E2-9639-43F9-BB85-44020EE7B81E";
name = Regular;
paths = (
{
closed = 1;
nodes = (
"-109 532 LINE",
"-55 575 OFFCURVE",
"7 628 OFFCURVE",
"65 669 CURVE",
"-34 765 LINE",
"-189 603 LINE"
);
},
{
closed = 1;
nodes = (
"110 514 LINE",
"164 558 OFFCURVE",
"226 610 OFFCURVE",
"284 651 CURVE",
"185 747 LINE",
"30 585 LINE"
);
}
);
width = 0;
}
);
},
{
color = 3;
glyphname = macroncomb.case;
layers = (
{
anchors = (
{
name = _top;
position = "{1, 650}";
}
);
layerId = "E25E64E2-9639-43F9-BB85-44020EE7B81E";
name = Regular;
paths = (
{
closed = 1;
nodes = (
"-120 851 OFFCURVE",
"-163 846 OFFCURVE",
"-202 826 CURVE",
"-196 742 LINE",
"177 742 LINE",
"224 792 LINE",
"219 851 LINE",
"-89 851 LINE"
);
}
);
width = 0;
}
);
},
{
color = 3;
glyphname = ogonekcomb.case;
layers = (
{
anchors = (
{
name = _ogonek;
position = "{-0, 9}";
}
);
layerId = "E25E64E2-9639-43F9-BB85-44020EE7B81E";
name = Regular;
paths = (
{
closed = 1;
nodes = (
"-50 33 LINE",
"-217 -13 OFFCURVE",
"-300 -93 OFFCURVE",
"-300 -169 CURVE SMOOTH",
"-300 -238 OFFCURVE",
"-235 -297 OFFCURVE",
"-139 -285 CURVE",
"-10 -214 LINE",
"-36 -160 LINE",
"-110 -205 OFFCURVE",
"-166 -187 OFFCURVE",
"-166 -134 CURVE SMOOTH",
"-166 -81 OFFCURVE",
"-109 -39 OFFCURVE",
"-30 11 CURVE SMOOTH"
);
}
);
width = 0;
}
);
},
{
color = 3;
glyphname = tildecomb.case;
layers = (
{
anchors = (
{
name = _top;
position = "{-0, 650}";
}
);
layerId = "E25E64E2-9639-43F9-BB85-44020EE7B81E";
name = Regular;
paths = (
{
closed = 1;
nodes = (
"-174 723 LINE",
"-140 758 OFFCURVE",
"-114 782 OFFCURVE",
"-95 782 CURVE SMOOTH",
"-59 782 OFFCURVE",
"58 700 OFFCURVE",
"112 700 CURVE SMOOTH",
"157 700 OFFCURVE",
"194 758 OFFCURVE",
"251 855 CURVE",
"201 898 LINE",
"113 826 LINE",
"6 881 OFFCURVE",
"-65 915 OFFCURVE",
"-96 915 CURVE SMOOTH",
"-135 915 OFFCURVE",
"-172 860 OFFCURVE",
"-233 767 CURVE"
);
}
);
width = 0;
}
);
},
{
color = 3;
glyphname = cedillacomb;
layers = (
{
anchors = (
{
name = _bottom;
position = "{0, 0}";
}
);
layerId = "E25E64E2-9639-43F9-BB85-44020EE7B81E";
name = Regular;
paths = (
{
closed = 1;
nodes = (
"29 6 LINE",
"-44 6 LINE",
"-107 -71 LINE",
"-80 -118 LINE",
"18 -109 OFFCURVE",
"15 -198 OFFCURVE",
"-103 -239 CURVE",
"-82 -273 LINE",
"54 -277 OFFCURVE",
"128 -206 OFFCURVE",
"130 -142 CURVE SMOOTH",
"132 -97 OFFCURVE",
"73 -56 OFFCURVE",
"-5 -56 CURVE"
);
}
);
width = 0;
}
);
unicode = 0327;
},
{
color = 3;
glyphname = circumflexcomb;
layers = (
{
anchors = (
{
name = _top;
position = "{0, 474}";
}
);
layerId = "E25E64E2-9639-43F9-BB85-44020EE7B81E";
name = Regular;
paths = (
{
closed = 1;
nodes = (
"-123 527 LINE",
"1 642 LINE",
"142 532 LINE",
"202 589 LINE",
"69 751 LINE",
"-58 751 LINE",
"-194 581 LINE"
);
}
);
width = 0;
}
);
unicode = 0302;
},
{
color = 3;
glyphname = commaaccentcomb;
layers = (
{
anchors = (
{
name = _bottom;
position = "{0, 0}";
}
);
layerId = "E25E64E2-9639-43F9-BB85-44020EE7B81E";
name = Regular;
paths = (
{
closed = 1;
nodes = (
"-67 -156 LINE",
"-28 -184 OFFCURVE",
"-34 -240 OFFCURVE",
"-72 -290 CURVE",
"-16 -331 LINE",
"61 -290 OFFCURVE",
"169 -126 OFFCURVE",
"39 -69 CURVE",
"-69 -115 LINE"
);
}
);
width = 0;
}
);
unicode = 0326;
},
{
color = 3;
glyphname = dieresiscomb;
layers = (
{
anchors = (
{
name = _top;
position = "{0, 474}";
}
);
layerId = "E25E64E2-9639-43F9-BB85-44020EE7B81E";
name = Regular;
paths = (
{
closed = 1;
nodes = (
"-42 701 OFFCURVE",
"-86 739 OFFCURVE",
"-135 760 CURVE",
"-183 733 OFFCURVE",
"-219 694 OFFCURVE",
"-228 637 CURVE",
"-204 594 OFFCURVE",
"-169 565 OFFCURVE",
"-118 548 CURVE",
"-73 572 OFFCURVE",
"-44 607 OFFCURVE",
"-28 654 CURVE"
);
},
{
closed = 1;
nodes = (
"215 701 OFFCURVE",
"171 739 OFFCURVE",
"122 760 CURVE",
"74 733 OFFCURVE",
"38 694 OFFCURVE",
"29 637 CURVE",
"53 594 OFFCURVE",
"88 565 OFFCURVE",
"139 548 CURVE",
"184 572 OFFCURVE",
"213 607 OFFCURVE",
"229 654 CURVE"
);
}
);
width = 0;
}
);
unicode = 0308;
},
{
color = 3;
glyphname = dotaccentcomb;
layers = (
{
anchors = (
{
name = _top;
position = "{0, 474}";
}
);
layerId = "E25E64E2-9639-43F9-BB85-44020EE7B81E";
name = Regular;
paths = (
{
closed = 1;
nodes = (
"91 700 OFFCURVE",
"47 739 OFFCURVE",
"-2 760 CURVE",
"-50 733 OFFCURVE",
"-87 694 OFFCURVE",
"-95 637 CURVE",
"-71 593 OFFCURVE",
"-36 565 OFFCURVE",
"15 548 CURVE",
"60 572 OFFCURVE",
"89 607 OFFCURVE",
"104 654 CURVE"
);
}
);
width = 0;
}
);
unicode = 0307;
},
{
color = 3;
glyphname = dotbelowcomb;
layers = (
{
anchors = (
{
name = _bottom;
position = "{0, 0}";
}
);
layerId = "E25E64E2-9639-43F9-BB85-44020EE7B81E";
name = Regular;
paths = (
{
closed = 1;
nodes = (
"91 -158 OFFCURVE",
"47 -119 OFFCURVE",
"-2 -97 CURVE",
"-50 -124 OFFCURVE",
"-87 -164 OFFCURVE",
"-95 -221 CURVE",
"-71 -264 OFFCURVE",
"-36 -292 OFFCURVE",
"15 -310 CURVE",
"60 -286 OFFCURVE",
"89 -250 OFFCURVE",
"104 -204 CURVE"
);
}
);
width = 0;
}
);
unicode = 0323;
},
{
color = 3;
glyphname = gravecomb;
layers = (
{
anchors = (
{
name = _top;
position = "{0, 474}";
}
);
layerId = "E25E64E2-9639-43F9-BB85-44020EE7B81E";
name = Regular;
paths = (
{
closed = 1;
nodes = (
"104 611 LINE",
"-53 808 LINE",
"-173 702 LINE",
"-113 654 OFFCURVE",
"-50 589 OFFCURVE",
"6 535 CURVE"
);
}
);
width = 0;
}
);
unicode = 0300;
},
{
color = 3;
glyphname = hungarumlautcomb;
layers = (
{
anchors = (
{
name = _top;
position = "{0, 474}";
}
);
layerId = "E25E64E2-9639-43F9-BB85-44020EE7B81E";
name = Regular;
paths = (
{
closed = 1;
nodes = (
"-109 535 LINE",
"-56 586 OFFCURVE",
"4 648 OFFCURVE",
"61 696 CURVE",
"-49 784 LINE",
"-195 599 LINE"
);
},
{
closed = 1;
nodes = (
"111 535 LINE",
"164 586 OFFCURVE",
"224 648 OFFCURVE",
"281 696 CURVE",
"171 784 LINE",
"25 599 LINE"
);
}
);
width = 0;
}
);
unicode = 030B;
},
{
color = 3;
glyphname = macronbelowcomb;
layers = (
{
anchors = (
{
name = _bottom;
position = "{0, 0}";
}
);
layerId = "E25E64E2-9639-43F9-BB85-44020EE7B81E";
name = Regular;
paths = (
{
closed = 1;
nodes = (
"-112 -128 OFFCURVE",
"-155 -135 OFFCURVE",
"-194 -153 CURVE",
"-188 -237 LINE",
"153 -237 LINE",
"200 -187 LINE",
"195 -128 LINE",
"-81 -128 LINE"
);
}
);
width = 0;
}
);
unicode = 0331;
},
{
color = 3;
glyphname = macroncomb;
layers = (
{
anchors = (
{
name = _top;
position = "{1, 474}";
}
);
layerId = "E25E64E2-9639-43F9-BB85-44020EE7B81E";
name = Regular;
paths = (
{
closed = 1;
nodes = (
"-86 677 OFFCURVE",
"-129 671 OFFCURVE",
"-168 652 CURVE",
"-162 568 LINE",
"152 568 LINE",
"199 618 LINE",
"194 677 LINE",
"-55 677 LINE"
);
}
);
width = 0;
}
);
unicode = 0304;
},
{
color = 3;
glyphname = ogonekcomb;
layers = (
{
anchors = (
{
name = _ogonek;
position = "{0, 9}";
}
);
layerId = "E25E64E2-9639-43F9-BB85-44020EE7B81E";
name = Regular;
paths = (
{
closed = 1;
nodes = (
"-6 59 LINE",
"-174 12 OFFCURVE",
"-257 -67 OFFCURVE",
"-257 -144 CURVE SMOOTH",
"-257 -212 OFFCURVE",
"-192 -271 OFFCURVE",
"-96 -259 CURVE",
"33 -189 LINE",
"8 -134 LINE",
"-67 -179 OFFCURVE",
"-123 -161 OFFCURVE",
"-123 -108 CURVE SMOOTH",
"-123 -55 OFFCURVE",
"-66 -14 OFFCURVE",
"13 36 CURVE SMOOTH"
);
}
);
width = 0;
}
);
unicode = 0328;
},
{
color = 3;
glyphname = ringcomb;
layers = (
{
anchors = (
{
name = _top;
position = "{0, 650}";
}
);
layerId = "E25E64E2-9639-43F9-BB85-44020EE7B81E";
name = Regular;
paths = (
{
closed = 1;
nodes = (
"-127 759 OFFCURVE",
"-68 709 OFFCURVE",
"4 709 CURVE SMOOTH",
"77 709 OFFCURVE",
"128 760 OFFCURVE",
"128 833 CURVE SMOOTH",
"128 910 OFFCURVE",
"72 965 OFFCURVE",
"0 965 CURVE SMOOTH",
"-73 965 OFFCURVE",
"-127 909 OFFCURVE",
"-127 836 CURVE SMOOTH"
);
},
{
closed = 1;
nodes = (
"-58 851 OFFCURVE",
"-33 876 OFFCURVE",
"0 876 CURVE SMOOTH",
"33 876 OFFCURVE",
"59 852 OFFCURVE",
"59 817 CURVE SMOOTH",
"59 783 OFFCURVE",
"35 760 OFFCURVE",
"2 760 CURVE SMOOTH",
"-30 760 OFFCURVE",
"-58 782 OFFCURVE",
"-58 818 CURVE SMOOTH"
);
}
);
width = 0;
}
);
unicode = 030A;
},
{
color = 3;
glyphname = tildecomb;
layers = (
{
anchors = (
{
name = _top;
position = "{0, 474}";
}
);
layerId = "E25E64E2-9639-43F9-BB85-44020EE7B81E";
name = Regular;
paths = (
{
closed = 1;
nodes = (
"-161 548 LINE",
"-121 599 OFFCURVE",
"-97 628 OFFCURVE",
"-74 628 CURVE SMOOTH",
"-35 628 OFFCURVE",
"45 544 OFFCURVE",
"100 544 CURVE SMOOTH",
"145 544 OFFCURVE",
"197 600 OFFCURVE",
"249 705 CURVE",
"188 749 LINE",
"104 663 LINE",
"53 701 OFFCURVE",
"-35 755 OFFCURVE",
"-68 755 CURVE",
"-122 755 OFFCURVE",
"-154 720 OFFCURVE",
"-225 597 CURVE"
);
}
);
width = 0;
}
);
unicode = 0303;
},
{
color = 3;
glyphname = caroncomb.calt;
layers = (
{
anchors = (
{
name = _topright;
position = "{0, 585}";
}
);
layerId = "E25E64E2-9639-43F9-BB85-44020EE7B81E";
name = Regular;
paths = (
{
closed = 1;
nodes = (
"0 639 LINE",
"55 631 OFFCURVE",
"40 554 OFFCURVE",
"-20 461 CURVE",
"40 414 LINE",
"161 509 OFFCURVE",
"219 646 OFFCURVE",
"143 755 CURVE",
"0 694 LINE"
);
}
);
width = 0;
}
);
},
{
glyphname = dvA;
lastChange = "2016-03-11 15:54:13 +0000";
layers = (
{
anchors = (
{
name = abvmBINDU;
position = "{728, 670}";
},
{
name = abvmCANDRABINDU;
position = "{708, 670}";
}
);
layerId = "E25E64E2-9639-43F9-BB85-44020EE7B81E";
name = Regular;
paths = (
{
closed = 1;
nodes = (
"15 277 LINE",
"126 29 OFFCURVE",
"266 -19 OFFCURVE",
"360 -19 CURVE SMOOTH",
"491 -19 OFFCURVE",
"550 75 OFFCURVE",
"550 163 CURVE SMOOTH",
"550 234 OFFCURVE",
"512 328 OFFCURVE",
"386 388 CURVE",
"337 433 LINE",
"283 442 OFFCURVE",
"205 413 OFFCURVE",
"162 374 CURVE",
"267 220 LINE",
"406 308 LINE",
"314 288 LINE",
"379 297 OFFCURVE",
"405 251 OFFCURVE",
"405 218 CURVE SMOOTH",
"405 183 OFFCURVE",
"374 140 OFFCURVE",
"309 140 CURVE SMOOTH",
"225 140 OFFCURVE",
"163 214 OFFCURVE",
"106 336 CURVE"
);
},
{
closed = 1;
nodes = (
"189 456 LINE",
"248 514 OFFCURVE",
"319 555 OFFCURVE",
"373 550 CURVE",
"374 546 OFFCURVE",
"374 542 OFFCURVE",
"374 537 CURVE SMOOTH",
"374 488 OFFCURVE",
"319 430 OFFCURVE",
"235 403 CURVE",
"418 325 LINE",
"480 366 OFFCURVE",
"514 434 OFFCURVE",
"514 485 CURVE SMOOTH",
"514 569 OFFCURVE",
"420 685 OFFCURVE",
"297 685 CURVE SMOOTH",
"218 685 OFFCURVE",
"143 637 OFFCURVE",
"92 582 CURVE"
);
},
{
closed = 1;
nodes = (
"417 302 LINE",
"519 203 OFFCURVE",
"601 180 OFFCURVE",
"649 204 CURVE",
"659 399 LINE",
"636 338 OFFCURVE",
"504 303 OFFCURVE",
"426 394 CURVE"
);
},
{
closed = 1;
nodes = (
"938 538 LINE",
"963 587 LINE",
"898 670 LINE",
"530 670 LINE",
"505 621 LINE",
"570 538 LINE"
);
},
{
closed = 1;
nodes = (
"642 23 LINE",
"774 -46 LINE",
"828 -19 LINE",
"828 486 LINE",
"708 568 LINE",
"642 599 LINE"
);
}
);
width = 898;
}
);
unicode = 0905;
},
{
glyphname = dvI;
lastChange = "2016-03-11 15:54:13 +0000";
layers = (
{
anchors = (
{
name = abvmBINDU;
position = "{390, 670}";
},
{
name = abvmCANDRABINDU;
position = "{360, 670}";
}
);
layerId = "E25E64E2-9639-43F9-BB85-44020EE7B81E";
name = Regular;
paths = (
{
closed = 1;
nodes = (
"153 14 LINE",
"340 -277 LINE",
"475 -180 LINE",
"236 12 LINE"
);
},
{
closed = 1;
nodes = (
"640 538 LINE",
"665 587 LINE",
"600 670 LINE",
"-40 670 LINE",
"-65 621 LINE",
"0 538 LINE"
);
},
{
closed = 1;
nodes = (
"342 361 LINE",
"508 343 LINE",
"508 486 LINE",
"388 568 LINE",
"342 599 LINE"
);
},
{
closed = 1;
nodes = (
"59 1 LINE",
"136 -54 OFFCURVE",
"206 -87 OFFCURVE",
"289 -87 CURVE SMOOTH",
"370 -87 OFFCURVE",
"571 -56 OFFCURVE",
"571 104 CURVE SMOOTH",
"571 187 OFFCURVE",
"517 271 OFFCURVE",
"398 314 CURVE",
"194 276 LINE",
"187 283 OFFCURVE",
"183 292 OFFCURVE",
"183 301 CURVE SMOOTH",
"183 322 OFFCURVE",
"204 343 OFFCURVE",
"240 343 CURVE",
"508 343 LINE",
"411 486 LINE",
"220 486 LINE SMOOTH",
"91 486 OFFCURVE",
"27 423 OFFCURVE",
"27 349 CURVE SMOOTH",
"27 260 OFFCURVE",
"123 168 OFFCURVE",
"285 116 CURVE",
"443 158 LINE",
"423 90 OFFCURVE",
"287 24 OFFCURVE",
"195 73 CURVE",
"252 42 LINE",
"181 142 LINE",
"97 144 LINE"
);
}
);
width = 600;
}
);
leftKerningGroup = Dda;
rightKerningGroup = Da;
unicode = 0907;
},
{
glyphname = dvU;
lastChange = "2016-03-11 15:54:13 +0000";
layers = (
{
anchors = (
{
name = abvmBINDU;
position = "{330, 670}";
},
{
name = abvmCANDRABINDU;
position = "{310, 670}";
}
);
layerId = "E25E64E2-9639-43F9-BB85-44020EE7B81E";
name = Regular;
paths = (
{
closed = 1;
nodes = (
"250 565 LINE",
"303 536 OFFCURVE",
"326 511 OFFCURVE",
"326 479 CURVE SMOOTH",
"326 438 OFFCURVE",
"288 410 OFFCURVE",
"228 393 CURVE",
"418 305 LINE",
"470 338 OFFCURVE",
"491 391 OFFCURVE",
"491 434 CURVE SMOOTH",
"491 503 OFFCURVE",
"436 556 OFFCURVE",
"345 604 CURVE"
);
},
{
closed = 1;
nodes = (
"640 538 LINE",
"665 587 LINE",
"600 670 LINE",
"-40 670 LINE",
"-65 621 LINE",
"0 538 LINE"
);
},
{
closed = 1;
nodes = (
"-9 260 LINE",
"102 11 OFFCURVE",
"229 -52 OFFCURVE",
"341 -52 CURVE SMOOTH",
"479 -52 OFFCURVE",
"560 45 OFFCURVE",
"560 151 CURVE SMOOTH",
"560 240 OFFCURVE",
"502 335 OFFCURVE",
"381 377 CURVE",
"329 424 LINE",
"273 434 OFFCURVE",
"191 403 OFFCURVE",
"146 362 CURVE",
"256 200 LINE",
"402 293 LINE",
"305 272 LINE",
"363 280 OFFCURVE",
"394 237 OFFCURVE",
"394 198 CURVE SMOOTH",
"394 155 OFFCURVE",
"359 107 OFFCURVE",
"292 107 CURVE SMOOTH",
"203 107 OFFCURVE",
"144 191 OFFCURVE",
"87 312 CURVE"
);
}
);
width = 600;
}
);
unicode = 0909;
},
{
glyphname = dvUu;
lastChange = "2016-03-11 15:54:13 +0000";
layers = (
{
anchors = (
{
name = abvmBINDU;
position = "{395, 670}";
},
{
name = abvmCANDRABINDU;
position = "{415, 670}";
}
);
components = (
{
name = dvU;
}
);
layerId = "E25E64E2-9639-43F9-BB85-44020EE7B81E";
name = Regular;
paths = (
{
closed = 1;
nodes = (
"935 538 LINE",
"960 587 LINE",
"895 670 LINE",
"450 670 LINE",
"425 621 LINE",
"490 538 LINE"
);
},
{
closed = 1;
nodes = (
"724 -20 LINE",
"819 44 OFFCURVE",
"874 120 OFFCURVE",
"874 202 CURVE SMOOTH",
"874 309 OFFCURVE",
"781 428 OFFCURVE",
"660 428 CURVE SMOOTH",
"584 428 OFFCURVE",
"514 381 OFFCURVE",
"442 287 CURVE",
"534 146 LINE",
"605 231 OFFCURVE",
"670 281 OFFCURVE",
"707 281 CURVE SMOOTH",
"723 281 OFFCURVE",
"732 272 OFFCURVE",
"732 259 CURVE SMOOTH",
"732 222 OFFCURVE",
"661 165 OFFCURVE",
"600 115 CURVE"
);
}
);
width = 895;
}
);
rightKerningGroup = Ka;
unicode = 090A;
},
{
glyphname = dvVocalicR;
lastChange = "2016-03-11 15:54:13 +0000";
layers = (
{
anchors = (
{
name = abvmBINDU;
position = "{515, 670}";
},
{
name = abvmCANDRABINDU;
position = "{525, 670}";
},
{
name = abvmTOP;
position = "{507, 475}";
},
{
name = blwmBOTTOM;
position = "{386, 0}";
}
);
components = (
{
name = dvTRa;
}
);
layerId = "E25E64E2-9639-43F9-BB85-44020EE7B81E";
name = Regular;
paths = (
{
closed = 1;
nodes = (
"702 41 LINE",
"799 -58 LINE",
"925 -36 OFFCURVE",
"975 45 OFFCURVE",
"975 115 CURVE SMOOTH",
"975 196 OFFCURVE",
"908 280 OFFCURVE",
"815 368 CURVE",
"758 294 LINE",
"794 258 OFFCURVE",
"819 221 OFFCURVE",
"819 187 CURVE SMOOTH",
"819 150 OFFCURVE",
"790 116 OFFCURVE",
"712 93 CURVE"
);
},
{
closed = 1;
nodes = (
"516 161 LINE",
"547 148 OFFCURVE",
"580 142 OFFCURVE",
"611 142 CURVE SMOOTH",
"721 142 OFFCURVE",
"831 216 OFFCURVE",
"848 296 CURVE",
"787 442 LINE",
"778 360 OFFCURVE",
"709 308 OFFCURVE",
"630 308 CURVE SMOOTH",
"592 308 OFFCURVE",
"553 320 OFFCURVE",
"516 345 CURVE"
);
},
{
closed = 1;
nodes = (
"774 345 LINE",
"853 301 LINE",
"896 348 OFFCURVE",
"892 434 OFFCURVE",
"861 488 CURVE",
"695 492 LINE",
"665 435 LINE",
"785 249 LINE"
);
},
{
closed = 1;
nodes = (
"1013 538 LINE",
"1038 587 LINE",
"973 670 LINE",
"290 670 LINE",
"265 621 LINE",
"330 538 LINE"
);
}
);
width = 973;
}
);
unicode = 090B;
},
{
glyphname = dvVocalicR.ss06;
lastChange = "2016-03-11 15:54:13 +0000";
layers = (
{
anchors = (
{
name = abvmBINDU;
position = "{515, 670}";
},
{
name = abvmCANDRABINDU;
position = "{525, 670}";
},
{
name = abvmTOP;
position = "{507, 475}";
},
{
name = blwmBOTTOM;
position = "{386, 0}";
}
);
components = (
{
name = dvTRa;
}
);
layerId = "E25E64E2-9639-43F9-BB85-44020EE7B81E";
name = Regular;
paths = (
{
closed = 1;
nodes = (
"955 123 LINE",
"825 368 LINE",
"758 294 LINE",
"838 155 LINE"
);
},
{
closed = 1;
nodes = (
"516 181 LINE",
"547 168 OFFCURVE",
"580 162 OFFCURVE",
"611 162 CURVE SMOOTH",
"721 162 OFFCURVE",
"831 236 OFFCURVE",
"848 316 CURVE",
"787 442 LINE",
"778 360 OFFCURVE",
"709 308 OFFCURVE",
"630 308 CURVE SMOOTH",
"592 308 OFFCURVE",
"553 320 OFFCURVE",
"516 345 CURVE"
);
},
{
closed = 1;
nodes = (
"774 345 LINE",
"853 301 LINE",
"896 348 OFFCURVE",
"892 434 OFFCURVE",
"861 488 CURVE",
"695 492 LINE",
"665 435 LINE",
"785 249 LINE"
);
},
{
closed = 1;
nodes = (
"1013 538 LINE",
"1038 587 LINE",
"973 670 LINE",
"290 670 LINE",
"265 621 LINE",
"330 538 LINE"
);
},
{
closed = 1;
nodes = (
"891 223 LINE",
"767 203 OFFCURVE",
"651 154 OFFCURVE",
"651 50 CURVE SMOOTH",
"651 -51 OFFCURVE",
"762 -154 OFFCURVE",
"880 -154 CURVE SMOOTH",
"950 -154 OFFCURVE",
"1009 -118 OFFCURVE",
"1046 -79 CURVE",
"962 63 LINE",
"927 27 OFFCURVE",
"848 -13 OFFCURVE",
"809 -13 CURVE SMOOTH",
"791 -13 OFFCURVE",
"784 -4 OFFCURVE",
"784 5 CURVE SMOOTH",
"784 36 OFFCURVE",
"876 61 OFFCURVE",
"928 71 CURVE",
"955 123 LINE"
);
}
);
width = 973;
}
);
},
{
glyphname = dvVocalicRr;
lastChange = "2016-03-11 15:54:13 +0000";
layers = (
{
anchors = (
{
name = abvmBINDU;
position = "{515, 670}";
},
{
name = abvmCANDRABINDU;
position = "{525, 670}";
},
{
name = abvmTOP;
position = "{506, 475}";
},
{
name = blwmBOTTOM;
position = "{386, 0}";
}
);
components = (
{
name = dvTRa;
}
);
layerId = "E25E64E2-9639-43F9-BB85-44020EE7B81E";
name = Regular;
paths = (
{
closed = 1;
nodes = (
"955 133 LINE",
"825 368 LINE",
"758 294 LINE",
"862 119 LINE"
);
},
{
closed = 1;
nodes = (
"516 191 LINE",
"547 178 OFFCURVE",
"579 172 OFFCURVE",
"612 172 CURVE SMOOTH",
"720 172 OFFCURVE",
"831 236 OFFCURVE",
"848 316 CURVE",
"787 442 LINE",
"778 360 OFFCURVE",
"708 318 OFFCURVE",
"632 318 CURVE SMOOTH",
"591 318 OFFCURVE",
"553 330 OFFCURVE",
"516 355 CURVE"
);
},
{
closed = 1;
nodes = (
"774 345 LINE",
"853 301 LINE",
"896 348 OFFCURVE",
"892 434 OFFCURVE",
"861 488 CURVE",
"695 492 LINE",
"665 435 LINE",
"785 249 LINE"
);
},
{
closed = 1;
nodes = (
"1033 538 LINE",
"1058 587 LINE",
"993 670 LINE",
"290 670 LINE",
"265 621 LINE",
"330 538 LINE"
);
},
{
closed = 1;
nodes = (
"951 53 LINE",
"833 33 OFFCURVE",
"721 -14 OFFCURVE",
"721 -110 CURVE SMOOTH",
"721 -202 OFFCURVE",
"822 -294 OFFCURVE",
"938 -294 CURVE SMOOTH",
"1011 -294 OFFCURVE",
"1069 -258 OFFCURVE",
"1106 -219 CURVE",
"1022 -87 LINE",
"993 -124 OFFCURVE",
"917 -163 OFFCURVE",
"879 -163 CURVE SMOOTH",
"864 -163 OFFCURVE",
"856 -156 OFFCURVE",
"856 -148 CURVE SMOOTH",
"856 -128 OFFCURVE",
"902 -106 OFFCURVE",
"988 -89 CURVE",
"1015 -37 LINE"
);
},
{
closed = 1;
nodes = (
"788 -19 LINE",
"773 -14 OFFCURVE",
"764 -4 OFFCURVE",
"764 6 CURVE SMOOTH",
"764 39 OFFCURVE",
"859 71 OFFCURVE",
"928 81 CURVE",
"955 133 LINE",
"891 223 LINE",
"772 204 OFFCURVE",
"631 165 OFFCURVE",
"631 61 CURVE SMOOTH",
"631 4 OFFCURVE",
"674 -45 OFFCURVE",
"742 -76 CURVE"
);
}
);
width = 981;
}
);
unicode = 0960;
},
{
glyphname = dvVocalicL;
lastChange = "2016-03-11 15:54:13 +0000";
layers = (
{
anchors = (
{
name = abvmBINDU;
position = "{550, 670}";
},
{
name = abvmCANDRABINDU;
position = "{490, 670}";
},
{
name = abvmTOP;
position = "{515, 475}";
},
{
name = blwmBOTTOM;
position = "{370, 0}";
}
);
layerId = "E25E64E2-9639-43F9-BB85-44020EE7B81E";
name = Regular;
paths = (
{
closed = 1;
nodes = (
"418 338 LINE",
"254 472 LINE",
"236 479 OFFCURVE",
"215 482 OFFCURVE",
"195 482 CURVE SMOOTH",
"109 482 OFFCURVE",
"12 423 OFFCURVE",
"12 300 CURVE SMOOTH",
"12 178 OFFCURVE",
"106 58 OFFCURVE",
"321 -55 CURVE",
"392 40 LINE",
"272 111 OFFCURVE",
"207 161 OFFCURVE",
"207 232 CURVE SMOOTH",
"207 287 OFFCURVE",
"245 318 OFFCURVE",
"288 318 CURVE SMOOTH",
"311 318 OFFCURVE",
"337 309 OFFCURVE",
"358 292 CURVE",
"384 261 LINE"
);
},
{
closed = 1;
nodes = (
"880 538 LINE",
"905 587 LINE",
"840 670 LINE",
"-40 670 LINE",
"-65 621 LINE",
"0 538 LINE"
);
},
{
closed = 1;
nodes = (
"454 393 LINE",
"633 351 LINE",
"633 486 LINE",
"513 568 LINE",
"454 599 LINE"
);
},
{
closed = 1;
nodes = (
"736 67 LINE",
"709 10 OFFCURVE",
"664 -60 OFFCURVE",
"625 -60 CURVE",
"613 -60 OFFCURVE",
"603 -52 OFFCURVE",
"603 -37 CURVE",
"603 5 OFFCURVE",
"766 121 OFFCURVE",
"766 260 CURVE SMOOTH",
"766 373 OFFCURVE",
"659 479 OFFCURVE",
"527 479 CURVE SMOOTH",
"399 479 OFFCURVE",
"278 379 OFFCURVE",
"285 204 CURVE",
"423 121 LINE",
"466 151 LINE",
"466 252 OFFCURVE",
"508 347 OFFCURVE",
"552 347 CURVE",
"583 347 OFFCURVE",
"593 325 OFFCURVE",
"593 300 CURVE SMOOTH",
"593 206 OFFCURVE",
"451 136 OFFCURVE",
"451 20 CURVE SMOOTH",
"451 -82 OFFCURVE",
"560 -193 OFFCURVE",
"678 -193 CURVE SMOOTH",
"763 -193 OFFCURVE",
"822 -135 OFFCURVE",
"863 -46 CURVE"
);
}
);
width = 840;
}
);
leftKerningGroup = La;
rightKerningGroup = LaMAR;
unicode = 090C;
},
{
glyphname = dvVocalicLl;
lastChange = "2016-03-11 15:54:13 +0000";
layers = (
{
anchors = (
{
name = abvmBINDU;
position = "{550, 670}";
},
{
name = abvmCANDRABINDU;
position = "{490, 670}";
},
{
name = abvmTOP;
position = "{515, 475}";
},
{
name = blwmBOTTOM;
position = "{370, 0}";
}
);
layerId = "E25E64E2-9639-43F9-BB85-44020EE7B81E";
name = Regular;
paths = (
{
closed = 1;
nodes = (
"418 338 LINE",
"254 472 LINE",
"236 479 OFFCURVE",
"215 482 OFFCURVE",
"195 482 CURVE SMOOTH",
"109 482 OFFCURVE",
"12 423 OFFCURVE",
"12 300 CURVE SMOOTH",
"12 178 OFFCURVE",
"106 58 OFFCURVE",
"321 -55 CURVE",
"392 40 LINE",
"272 111 OFFCURVE",
"207 161 OFFCURVE",
"207 232 CURVE SMOOTH",
"207 287 OFFCURVE",
"245 318 OFFCURVE",
"288 318 CURVE SMOOTH",
"311 318 OFFCURVE",
"337 309 OFFCURVE",
"358 292 CURVE",
"384 261 LINE"
);
},
{
closed = 1;
nodes = (
"880 538 LINE",
"905 587 LINE",
"840 670 LINE",
"-40 670 LINE",
"-65 621 LINE",
"0 538 LINE"
);
},
{
closed = 1;
nodes = (
"454 393 LINE",
"633 351 LINE",
"633 486 LINE",
"513 568 LINE",
"454 599 LINE"
);
},
{
closed = 1;
nodes = (
"659 -88 LINE",
"615 -80 OFFCURVE",
"591 -67 OFFCURVE",
"591 -40 CURVE",
"591 3 OFFCURVE",
"766 119 OFFCURVE",
"766 261 CURVE SMOOTH",
"766 372 OFFCURVE",
"659 479 OFFCURVE",
"527 479 CURVE SMOOTH",
"399 479 OFFCURVE",
"278 379 OFFCURVE",
"285 204 CURVE",
"423 121 LINE",
"466 151 LINE",
"466 252 OFFCURVE",
"508 347 OFFCURVE",
"552 347 CURVE",
"583 347 OFFCURVE",
"593 325 OFFCURVE",
"593 300 CURVE SMOOTH",
"593 202 OFFCURVE",
"445 131 OFFCURVE",
"445 10 CURVE SMOOTH",
"445 -74 OFFCURVE",
"517 -146 OFFCURVE",
"619 -174 CURVE"
);
},
{
closed = 1;
nodes = (
"855 -101 LINE",
"824 -156 OFFCURVE",
"761 -196 OFFCURVE",
"735 -196 CURVE SMOOTH",
"725 -196 OFFCURVE",
"720 -190 OFFCURVE",
"720 -183 CURVE SMOOTH",
"720 -163 OFFCURVE",
"755 -131 OFFCURVE",
"828 -91 CURVE",
"838 -43 LINE",
"750 43 LINE",
"668 15 OFFCURVE",
"581 -52 OFFCURVE",
"581 -136 CURVE SMOOTH",
"581 -223 OFFCURVE",
"674 -317 OFFCURVE",
"782 -317 CURVE SMOOTH",
"858 -317 OFFCURVE",
"915 -272 OFFCURVE",
"957 -203 CURVE"
);
}
);
width = 840;
}
);
leftKerningGroup = La;
rightKerningGroup = LaMAR;
unicode = 0961;
},
{
glyphname = dvE;
lastChange = "2016-03-11 15:54:13 +0000";
layers = (
{
anchors = (
{
name = abvmBINDU;
position = "{305, 670}";
},
{
name = abvmCANDRABINDU;
position = "{320, 670}";
}
);
layerId = "E25E64E2-9639-43F9-BB85-44020EE7B81E";
name = Regular;
paths = (
{
closed = 1;
nodes = (
"382 283 LINE",
"324 232 LINE",
"416 109 LINE",
"507 153 OFFCURVE",
"568 197 OFFCURVE",
"568 331 CURVE SMOOTH",
"568 486 LINE",
"448 568 LINE",
"382 599 LINE"
);
},
{
closed = 1;
nodes = (
"660 538 LINE",
"685 587 LINE",
"620 670 LINE",
"-40 670 LINE",
"-65 621 LINE",
"0 538 LINE"
);
},
{
closed = 1;
nodes = (
"594 -250 LINE",
"631 -215 OFFCURVE",
"649 -168 OFFCURVE",
"649 -127 CURVE SMOOTH",
"649 -47 OFFCURVE",
"582 5 OFFCURVE",
"411 87 CURVE SMOOTH",
"228 175 LINE",
"228 486 LINE",
"108 568 LINE",
"40 598 LINE",
"40 299 LINE SMOOTH",
"40 182 OFFCURVE",
"110 100 OFFCURVE",
"207 53 CURVE SMOOTH",
"405 -44 LINE SMOOTH",
"468 -75 OFFCURVE",
"480 -109 OFFCURVE",
"427 -177 CURVE"
);
}
);
width = 620;
}
);
unicode = 090F;
},
{
glyphname = dvOE;
layers = (
{
components = (
{
name = dvA;
}
);
layerId = "E25E64E2-9639-43F9-BB85-44020EE7B81E";
name = Regular;
paths = (
{
closed = 1;
nodes = (
"660 855 LINE",
"660 611 LINE",
"757 564 LINE",
"788 584 LINE",
"788 855 LINE"
);
}
);
width = 898;
}
);
unicode = 0973;
},
{
glyphname = dvOOE;
layers = (
{
components = (
{
name = dvAa;
}
);
layerId = "E25E64E2-9639-43F9-BB85-44020EE7B81E";
name = Regular;
paths = (
{
closed = 1;
nodes = (
"973 855 LINE",
"973 611 LINE",
"1070 564 LINE",
"1101 584 LINE",
"1101 855 LINE"
);
}
);
width = 1214;
}
);
unicode = 0974;
},
{
glyphname = dvKa;
lastChange = "2016-03-11 15:54:13 +0000";
layers = (
{
anchors = (
{
name = abvmBINDU;
position = "{415, 670}";
},
{
name = abvmCANDRABINDU;
position = "{465, 670}";
},
{
name = abvmCANDRABINDU2;
position = "{775, 670}";
},
{
name = abvmTOP;
position = "{450, 475}";
},
{
name = blwmBOTTOM;
position = "{308, 0}";
}
);
layerId = "E25E64E2-9639-43F9-BB85-44020EE7B81E";
name = Regular;
paths = (
{
closed = 1;
nodes = (
"249 480 LINE",
"96 503 OFFCURVE",
"19 405 OFFCURVE",
"19 306 CURVE SMOOTH",
"19 161 OFFCURVE",
"187 82 OFFCURVE",
"297 82 CURVE SMOOTH",
"364 82 OFFCURVE",
"404 111 OFFCURVE",
"445 154 CURVE",
"357 322 LINE",
"324 251 OFFCURVE",
"261 217 OFFCURVE",
"216 208 CURVE",
"178 252 OFFCURVE",
"212 347 OFFCURVE",
"295 347 CURVE SMOOTH",
"331 347 OFFCURVE",
"371 329 OFFCURVE",
"420 294 CURVE",
"444 375 LINE"
);
},
{
closed = 1;
nodes = (
"885 538 LINE",
"910 587 LINE",
"845 670 LINE",
"-40 670 LINE",
"-65 621 LINE",
"0 538 LINE"
);
},
{
closed = 1;
nodes = (
"332 23 LINE",
"464 -46 LINE",
"518 -19 LINE",
"518 486 LINE",
"398 568 LINE",
"332 599 LINE"
);
},
{
closed = 1;
nodes = (
"466 128 LINE",
"518 210 OFFCURVE",
"604 289 OFFCURVE",
"649 289 CURVE SMOOTH",
"665 289 OFFCURVE",
"672 280 OFFCURVE",
"672 265 CURVE SMOOTH",
"672 220 OFFCURVE",
"610 171 OFFCURVE",
"531 110 CURVE",
"660 -22 LINE",
"767 48 OFFCURVE",
"832 134 OFFCURVE",
"832 231 CURVE SMOOTH",
"832 349 OFFCURVE",
"736 459 OFFCURVE",
"620 459 CURVE SMOOTH",
"513 459 OFFCURVE",
"441 366 OFFCURVE",
"388 267 CURVE"
);
}
);
width = 845;
}
);
leftKerningGroup = Ka;
rightKerningGroup = Ka;
unicode = 0915;
},
{
color = 5;
glyphname = dvKha;
lastChange = "2016-03-11 15:54:13 +0000";
layers = (
{
anchors = (
{
name = abvmBINDU;
position = "{530, 670}";
},
{
name = abvmCANDRABINDU;
position = "{550, 670}";
},
{
name = abvmCANDRABINDU2;
position = "{1050, 670}";
},
{
name = abvmTOP;
position = "{745, 475}";
},
{
name = blwmBOTTOM;
position = "{640, -90}";
}
);
layerId = "E25E64E2-9639-43F9-BB85-44020EE7B81E";
name = Regular;
paths = (
{
closed = 1;
nodes = (
"686 335 LINE",
"656 271 OFFCURVE",
"594 237 OFFCURVE",
"541 244 CURVE",
"510 283 OFFCURVE",
"539 368 OFFCURVE",
"620 368 CURVE SMOOTH",
"655 368 OFFCURVE",
"699 352 OFFCURVE",
"743 320 CURVE",
"765 374 LINE",
"580 489 LINE",
"444 517 OFFCURVE",
"371 420 OFFCURVE",
"371 329 CURVE SMOOTH",
"371 197 OFFCURVE",
"525 128 OFFCURVE",
"629 128 CURVE SMOOTH",
"693 128 OFFCURVE",
"729 154 OFFCURVE",
"766 193 CURVE"
);
},
{
closed = 1;
nodes = (
"960 538 LINE",
"985 587 LINE",
"920 670 LINE",
"200 670 LINE",
"175 621 LINE",
"240 538 LINE"
);
},
{
closed = 1;
nodes = (
"664 23 LINE",
"796 -46 LINE",
"850 -19 LINE",
"850 486 LINE",
"730 568 LINE",
"664 599 LINE"
);
},
{
closed = 1;
nodes = (
"545 538 LINE",
"570 587 LINE",
"505 670 LINE",
"-40 670 LINE",
"-65 621 LINE",
"0 538 LINE"
);
},
{
closed = 1;
nodes = (
"379 486 LINE",
"259 568 LINE",
"196 599 LINE",
"196 361 LINE",
"196 324 OFFCURVE",
"139 298 OFFCURVE",
"86 271 CURVE",
"198 159 LINE",
"283 211 LINE SMOOTH",
"349 251 OFFCURVE",
"379 286 OFFCURVE",
"379 354 CURVE"
);
},
{
closed = 1;
nodes = (
"642 104 OFFCURVE",
"560 78 OFFCURVE",
"478 78 CURVE SMOOTH",
"356 78 OFFCURVE",
"241 136 OFFCURVE",
"211 255 CURVE",
"276 362 LINE",
"57 363 LINE",
"19 273 LINE",
"115 60 OFFCURVE",
"305 -56 OFFCURVE",
"494 -56 CURVE SMOOTH",
"585 -56 OFFCURVE",
"681 -29 OFFCURVE",
"738 24 CURVE",
"686 141 LINE"
);
}
);
width = 920;
}
);
leftKerningGroup = Ra;
unicode = 0916;
},
{
glyphname = dvGa;
lastChange = "2016-03-11 15:54:13 +0000";
layers = (
{
anchors = (
{
name = abvmBINDU;
position = "{370, 670}";
},
{
name = abvmCANDRABINDU;
position = "{400, 670}";
},
{
name = abvmCANDRABINDU2;
position = "{820, 670}";
},
{
name = abvmTOP;
position = "{515, 475}";
},
{
name = blwmBOTTOM;
position = "{410, 0}";
}
);
layerId = "E25E64E2-9639-43F9-BB85-44020EE7B81E";
name = Regular;
paths = (
{
closed = 1;
nodes = (
"8 299 LINE",
"36 213 OFFCURVE",
"153 113 OFFCURVE",
"239 88 CURVE",
"304 125 LINE",
"304 315 LINE",
"237 357 LINE",
"44 357 LINE"
);
},
{
closed = 1;
nodes = (
"434 23 LINE",
"566 -46 LINE",
"620 -19 LINE",
"620 486 LINE",
"500 568 LINE",
"434 599 LINE"
);
},
{
closed = 1;
nodes = (
"730 538 LINE",
"755 587 LINE",
"690 670 LINE",
"-40 670 LINE",
"-65 621 LINE",
"0 538 LINE"
);
},
{
closed = 1;
nodes = (
"126 237 LINE",
"304 195 LINE",
"304 486 LINE",
"184 568 LINE",
"118 599 LINE"
);
}
);
width = 690;
}
);
leftKerningGroup = Ma;
unicode = 0917;
},
{
glyphname = dvGha;
lastChange = "2016-03-11 15:54:13 +0000";
layers = (
{
anchors = (
{
name = abvmBINDU;
position = "{388, 670}";
},
{
name = abvmCANDRABINDU;
position = "{418, 670}";
},
{
name = abvmCANDRABINDU2;
position = "{858, 670}";
},
{
name = abvmTOP;
position = "{553, 475}";
},
{
name = blwmBOTTOM;
position = "{448, 0}";
}
);
layerId = "E25E64E2-9639-43F9-BB85-44020EE7B81E";
name = Regular;
paths = (
{
closed = 1;
nodes = (
"23 595 LINE",
"9 571 OFFCURVE",
"3 548 OFFCURVE",
"3 525 CURVE SMOOTH",
"3 446 OFFCURVE",
"82 375 OFFCURVE",
"223 322 CURVE",
"262 378 LINE",
"213 400 OFFCURVE",
"190 438 OFFCURVE",
"190 473 CURVE SMOOTH",
"190 508 OFFCURVE",
"213 540 OFFCURVE",
"257 551 CURVE"
);
},
{
closed = 1;
nodes = (
"437 340 LINE",
"365 459 LINE",
"207 494 OFFCURVE",
"96 398 OFFCURVE",
"96 293 CURVE SMOOTH",
"96 216 OFFCURVE",
"154 151 OFFCURVE",
"224 110 CURVE SMOOTH",
"277 79 OFFCURVE",
"334 63 OFFCURVE",
"389 63 CURVE SMOOTH",
"455 63 OFFCURVE",
"508 86 OFFCURVE",
"545 126 CURVE",
"474 309 LINE",
"440 245 OFFCURVE",
"339 190 OFFCURVE",
"273 205 CURVE",
"253 247 OFFCURVE",
"306 303 OFFCURVE",
"412 291 CURVE"
);
},
{
closed = 1;
nodes = (
"472 23 LINE",
"604 -46 LINE",
"658 -19 LINE",
"658 486 LINE",
"538 568 LINE",
"472 599 LINE"
);
},
{
closed = 1;
nodes = (
"768 538 LINE",
"793 587 LINE",
"728 670 LINE",
"-60 670 LINE",
"-85 621 LINE",
"-20 538 LINE"
);
}
);
width = 728;
}
);
leftKerningGroup = Gha;
unicode = 0918;
},
{
glyphname = dvNga;
lastChange = "2016-03-11 15:54:13 +0000";
layers = (
{
anchors = (
{
name = abvmBINDU;
position = "{430, 670}";
},
{
name = abvmCANDRABINDU;
position = "{420, 670}";
},
{
name = abvmCANDRABINDU2;
position = "{790, 670}";
},
{
name = abvmTOP;
position = "{435, 475}";
},
{
name = blwmBOTTOM;
position = "{290, -86}";
}
);
layerId = "E25E64E2-9639-43F9-BB85-44020EE7B81E";
name = Regular;
paths = (
{
closed = 1;
nodes = (
"705 206 OFFCURVE",
"744 255 OFFCURVE",
"760 297 CURVE",
"737 327 OFFCURVE",
"688 372 OFFCURVE",
"646 388 CURVE",
"611 367 OFFCURVE",
"574 318 OFFCURVE",
"551 273 CURVE",
"576 238 OFFCURVE",
"632 196 OFFCURVE",
"669 182 CURVE"
);
},
{
closed = 1;
nodes = (
"-4 169 LINE",
"108 6 OFFCURVE",
"231 -86 OFFCURVE",
"364 -86 CURVE SMOOTH",
"497 -86 OFFCURVE",
"581 5 OFFCURVE",
"581 110 CURVE SMOOTH",
"581 199 OFFCURVE",
"520 285 OFFCURVE",
"405 326 CURVE",
"228 276 LINE",
"218 286 OFFCURVE",
"213 297 OFFCURVE",
"213 306 CURVE SMOOTH",
"213 327 OFFCURVE",
"237 343 OFFCURVE",
"278 343 CURVE SMOOTH",
"523 343 LINE",
"424 492 LINE",
"247 492 LINE SMOOTH",
"114 492 OFFCURVE",
"54 426 OFFCURVE",
"54 355 CURVE SMOOTH",
"54 263 OFFCURVE",
"156 174 OFFCURVE",
"320 117 CURVE",
"451 167 LINE",
"441 115 OFFCURVE",
"383 74 OFFCURVE",
"309 74 CURVE SMOOTH",
"233 74 OFFCURVE",
"152 117 OFFCURVE",
"74 235 CURVE"
);
},
{
closed = 1;
nodes = (
"357 361 LINE",
"523 343 LINE",
"523 486 LINE",
"403 568 LINE",
"357 599 LINE"
);
},
{
closed = 1;
nodes = (
"810 538 LINE",
"835 587 LINE",
"770 670 LINE",
"-40 670 LINE",
"-65 621 LINE",
"0 538 LINE"
);
}
);
width = 770;
}
);
leftKerningGroup = Dda;
rightKerningGroup = Nga;
unicode = 0919;
},
{
glyphname = dvCa;
lastChange = "2016-03-11 15:54:13 +0000";
layers = (
{
anchors = (
{
name = abvmBINDU;
position = "{568, 670}";
},
{
name = abvmCANDRABINDU;
position = "{548, 670}";
},
{
name = abvmCANDRABINDU2;
position = "{868, 670}";
},
{
name = abvmTOP;
position = "{563, 475}";
},
{
name = blwmBOTTOM;
position = "{458, 0}";
}
);
layerId = "E25E64E2-9639-43F9-BB85-44020EE7B81E";
name = Regular;
paths = (
{
closed = 1;
nodes = (
"243 445 LINE",
"163 414 OFFCURVE",
"106 361 OFFCURVE",
"106 289 CURVE SMOOTH",
"106 220 OFFCURVE",
"158 155 OFFCURVE",
"227 114 CURVE SMOOTH",
"280 82 OFFCURVE",
"345 63 OFFCURVE",
"408 63 CURVE SMOOTH",
"476 63 OFFCURVE",
"528 86 OFFCURVE",
"565 126 CURVE",
"494 324 LINE",
"466 260 OFFCURVE",
"371 189 OFFCURVE",
"283 205 CURVE",
"269 273 OFFCURVE",
"320 339 OFFCURVE",
"402 352 CURVE"
);
},
{
closed = 1;
nodes = (
"482 23 LINE",
"614 -46 LINE",
"668 -19 LINE",
"668 486 LINE",
"548 568 LINE",
"482 599 LINE"
);
},
{
closed = 1;
nodes = (
"778 538 LINE",
"803 587 LINE",
"738 670 LINE",
"-40 670 LINE",
"-65 621 LINE",
"0 538 LINE"
);
},
{
closed = 1;
nodes = (
"184 345 LINE",
"218 328 LINE",
"426 328 LINE",
"451 377 LINE",
"379 480 LINE",
"3 480 LINE",
"-22 431 LINE",
"41 345 LINE"
);
}
);
width = 738;
}
);
unicode = 091A;
},
{
glyphname = dvCha;
lastChange = "2016-03-11 15:54:13 +0000";
layers = (
{
anchors = (
{
name = abvmBINDU;
position = "{405, 670}";
},
{
name = abvmCANDRABINDU;
position = "{425, 670}";
},
{
name = abvmCANDRABINDU2;
position = "{885, 670}";
},
{
name = abvmTOP;
position = "{590, 475}";
},
{
name = blwmBOTTOM;
position = "{365, -92}";
}
);
layerId = "E25E64E2-9639-43F9-BB85-44020EE7B81E";
name = Regular;
paths = (
{
closed = 1;
nodes = (
"446 163 LINE",
"372 284 LINE",
"219 321 OFFCURVE",
"117 237 OFFCURVE",
"117 137 CURVE SMOOTH",
"117 21 OFFCURVE",
"255 -92 OFFCURVE",
"426 -92 CURVE SMOOTH",
"632 -92 OFFCURVE",
"779 71 OFFCURVE",
"779 236 CURVE SMOOTH",
"779 375 OFFCURVE",
"674 502 OFFCURVE",
"550 502 CURVE SMOOTH",
"462 502 OFFCURVE",
"387 437 OFFCURVE",
"387 358 CURVE SMOOTH",
"387 263 OFFCURVE",
"494 166 OFFCURVE",
"605 129 CURVE",
"640 193 LINE",
"568 217 OFFCURVE",
"548 277 OFFCURVE",
"548 317 CURVE SMOOTH",
"548 353 OFFCURVE",
"565 390 OFFCURVE",
"614 383 CURVE",
"627 368 OFFCURVE",
"633 332 OFFCURVE",
"633 304 CURVE SMOOTH",
"633 178 OFFCURVE",
"512 42 OFFCURVE",
"332 42 CURVE SMOOTH",
"317 42 OFFCURVE",
"308 43 OFFCURVE",
"295 46 CURVE",
"289 52 OFFCURVE",
"285 65 OFFCURVE",
"285 76 CURVE SMOOTH",
"285 116 OFFCURVE",
"339 145 OFFCURVE",
"408 116 CURVE"
);
},
{
closed = 1;
nodes = (
"513 411 LINE",
"679 370 LINE",
"679 486 LINE",
"559 568 LINE",
"513 599 LINE"
);
},
{
closed = 1;
nodes = (
"845 538 LINE",
"870 587 LINE",
"805 670 LINE",
"-40 670 LINE",
"-65 621 LINE",
"0 538 LINE"
);
},
{
closed = 1;
nodes = (
"350 392 LINE",
"276 500 LINE",
"171 500 LINE SMOOTH",
"59 500 OFFCURVE",
"11 434 OFFCURVE",
"11 369 CURVE SMOOTH",
"11 293 OFFCURVE",
"77 221 OFFCURVE",
"185 175 CURVE",
"240 238 LINE",
"188 266 OFFCURVE",
"172 283 OFFCURVE",
"172 303 CURVE SMOOTH",
"172 332 OFFCURVE",
"208 343 OFFCURVE",
"240 343 CURVE SMOOTH",
"325 343 LINE"
);
}
);
width = 805;
}
);
rightKerningGroup = Cha;
unicode = 091B;
},
{
glyphname = dvJa;
lastChange = "2016-03-11 15:54:13 +0000";
layers = (
{
anchors = (
{
name = abvmBINDU;
position = "{600, 670}";
},
{
name = abvmCANDRABINDU;
position = "{580, 670}";
},
{
name = abvmCANDRABINDU2;
position = "{900, 670}";
},
{
name = abvmTOP;
position = "{595, 475}";
},
{
name = blwmBOTTOM;
position = "{490, 0}";
}
);
layerId = "E25E64E2-9639-43F9-BB85-44020EE7B81E";
name = Regular;
paths = (
{
closed = 1;
nodes = (
"-10 407 LINE",
"45 196 OFFCURVE",
"143 22 OFFCURVE",
"307 22 CURVE SMOOTH",
"417 22 OFFCURVE",
"469 100 OFFCURVE",
"469 177 CURVE SMOOTH",
"469 273 OFFCURVE",
"388 355 OFFCURVE",
"233 401 CURVE",
"196 411 LINE",
"196 366 LINE",
"265 344 LINE",
"334 308 OFFCURVE",
"329 208 OFFCURVE",
"254 208 CURVE SMOOTH",
"183 208 OFFCURVE",
"151 298 OFFCURVE",
"106 446 CURVE"
);
},
{
closed = 1;
nodes = (
"568 457 LINE",
"196 457 LINE",
"196 405 LINE",
"342 301 LINE",
"561 301 LINE"
);
},
{
closed = 1;
nodes = (
"514 23 LINE",
"646 -46 LINE",
"700 -19 LINE",
"700 486 LINE",
"580 568 LINE",
"514 599 LINE"
);
},
{
closed = 1;
nodes = (
"810 538 LINE",
"835 587 LINE",
"770 670 LINE",
"-40 670 LINE",
"-65 621 LINE",
"0 538 LINE"
);
}
);
width = 770;
}
);
leftKerningGroup = Ja;
unicode = 091C;
},
{
glyphname = dvJha;
lastChange = "2016-03-11 15:54:13 +0000";
layers = (
{
anchors = (
{
name = abvmBINDU;
position = "{578, 670}";
},
{
name = abvmCANDRABINDU;
position = "{598, 670}";
},
{
name = abvmCANDRABINDU2;
position = "{1018, 670}";
},
{
name = abvmTOP;
position = "{713, 475}";
},
{
name = blwmBOTTOM;
position = "{608, 0}";
}
);
components = (
{
name = dvI;
}
);
layerId = "E25E64E2-9639-43F9-BB85-44020EE7B81E";
name = Regular;
paths = (
{
closed = 1;
nodes = (
"632 23 LINE",
"764 -46 LINE",
"818 -19 LINE",
"818 486 LINE",
"698 568 LINE",
"632 599 LINE"
);
},
{
closed = 1;
nodes = (
"928 538 LINE",
"953 587 LINE",
"888 670 LINE",
"520 670 LINE",
"495 621 LINE",
"560 538 LINE"
);
},
{
closed = 1;
nodes = (
"383 250 LINE",
"458 177 OFFCURVE",
"582 129 OFFCURVE",
"649 152 CURVE",
"646 327 LINE",
"596 268 OFFCURVE",
"484 280 OFFCURVE",
"398 314 CURVE"
);
}
);
width = 888;
}
);
leftKerningGroup = Dda;
unicode = 091D;
},
{
glyphname = dvJha.NEP;
lastChange = "2016-03-11 15:54:13 +0000";
layers = (
{
anchors = (
{
name = abvmBINDU;
position = "{535, 670}";
},
{
name = abvmCANDRABINDU;
position = "{515, 670}";
},
{
name = abvmCANDRABINDU2;
position = "{860, 670}";
},
{
name = abvmTOP;
position = "{522, 475}";
},
{
name = blwmBOTTOM;
position = "{417, 0}";
}
);
layerId = "E25E64E2-9639-43F9-BB85-44020EE7B81E";
name = Regular;
paths = (
{
closed = 1;
nodes = (
"55 303 LINE",
"80 217 OFFCURVE",
"200 107 OFFCURVE",
"286 82 CURVE",
"351 119 LINE",
"351 319 LINE",
"284 361 LINE",
"91 361 LINE"
);
},
{
closed = 1;
nodes = (
"441 23 LINE",
"573 -46 LINE",
"627 -19 LINE",
"627 486 LINE",
"507 568 LINE",
"441 599 LINE"
);
},
{
closed = 1;
nodes = (
"947 538 LINE",
"972 587 LINE",
"907 670 LINE",
"401 670 LINE",
"376 621 LINE",
"441 538 LINE"
);
},
{
closed = 1;
nodes = (
"556 361 LINE",
"228 361 LINE",
"259 205 LINE",
"578 205 LINE"
);
},
{
closed = 1;
nodes = (
"2 694 OFFCURVE",
"-50 625 OFFCURVE",
"-50 559 CURVE SMOOTH",
"-50 505 OFFCURVE",
"-15 455 OFFCURVE",
"69 396 CURVE",
"136 447 LINE",
"64 506 OFFCURVE",
"106 565 OFFCURVE",
"161 563 CURVE",
"169 550 OFFCURVE",
"172 524 OFFCURVE",
"172 500 CURVE SMOOTH",
"173 227 LINE",
"351 211 LINE",
"351 448 LINE SMOOTH",
"351 560 OFFCURVE",
"225 694 OFFCURVE",
"95 694 CURVE SMOOTH"
);
},
{
closed = 1;
nodes = (
"603 219 LINE",
"686 219 LINE",
"725 219 OFFCURVE",
"752 208 OFFCURVE",
"752 181 CURVE SMOOTH",
"752 149 OFFCURVE",
"715 106 OFFCURVE",
"656 62 CURVE",
"794 -58 LINE",
"882 11 OFFCURVE",
"921 79 OFFCURVE",
"921 148 CURVE SMOOTH",
"921 270 OFFCURVE",
"800 388 OFFCURVE",
"675 388 CURVE",
"586 388 LINE"
);
}
);
width = 907;
}
);
leftKerningGroup = Ma;
rightKerningGroup = Ka;
},
{
glyphname = dvNya;
lastChange = "2016-03-11 15:54:13 +0000";
layers = (
{
anchors = (
{
name = abvmBINDU;
position = "{660, 670}";
},
{
name = abvmCANDRABINDU;
position = "{640, 670}";
},
{
name = abvmCANDRABINDU2;
position = "{960, 670}";
},
{
name = abvmTOP;
position = "{655, 475}";
},
{
name = blwmBOTTOM;
position = "{550, 0}";
}
);
layerId = "E25E64E2-9639-43F9-BB85-44020EE7B81E";
name = Regular;
paths = (
{
closed = 1;
nodes = (
"226 291 LINE",
"381 417 LINE",
"296 390 LINE",
"343 385 OFFCURVE",
"369 345 OFFCURVE",
"369 305 CURVE SMOOTH",
"369 259 OFFCURVE",
"336 212 OFFCURVE",
"268 212 CURVE SMOOTH",
"193 212 OFFCURVE",
"138 269 OFFCURVE",
"60 402 CURVE",
"-32 340 LINE",
"97 95 OFFCURVE",
"243 49 OFFCURVE",
"327 49 CURVE SMOOTH",
"450 49 OFFCURVE",
"532 148 OFFCURVE",
"532 259 CURVE SMOOTH",
"532 397 OFFCURVE",
"406 510 OFFCURVE",
"276 510 CURVE SMOOTH",
"229 510 OFFCURVE",
"170 495 OFFCURVE",
"118 434 CURVE"
);
},
{
closed = 1;
nodes = (
"574 23 LINE",
"706 -46 LINE",
"760 -19 LINE",
"760 486 LINE",
"640 568 LINE",
"574 599 LINE"
);
},
{
closed = 1;
nodes = (
"870 538 LINE",
"895 587 LINE",
"830 670 LINE",
"-40 670 LINE",
"-65 621 LINE",
"0 538 LINE"
);
},
{
closed = 1;
nodes = (
"383 280 LINE",
"458 207 OFFCURVE",
"582 159 OFFCURVE",
"649 182 CURVE",
"646 357 LINE",
"596 298 OFFCURVE",
"484 310 OFFCURVE",
"398 344 CURVE"
);
}
);
width = 830;
}
);
unicode = 091E;
},
{
glyphname = dvTta;
lastChange = "2016-03-11 15:54:13 +0000";
layers = (
{
anchors = (
{
name = abvmBINDU;
position = "{368, 670}";
},
{
name = abvmCANDRABINDU;
position = "{348, 670}";
},
{
name = abvmCANDRABINDU2;
position = "{628, 670}";
},
{
name = abvmTOP;
position = "{398, 475}";
},
{
name = blwmBOTTOM;
position = "{298, -43}";
}
);
layerId = "E25E64E2-9639-43F9-BB85-44020EE7B81E";
name = Regular;
paths = (
{
closed = 1;
nodes = (
"495 213 LINE",
"423 140 OFFCURVE",
"287 100 OFFCURVE",
"213 138 CURVE",
"202 154 OFFCURVE",
"196 167 OFFCURVE",
"196 186 CURVE SMOOTH",
"196 232 OFFCURVE",
"232 271 OFFCURVE",
"312 271 CURVE SMOOTH",
"483 271 LINE",
"397 445 LINE",
"262 445 LINE SMOOTH",
"87 445 OFFCURVE",
"19 353 OFFCURVE",
"19 254 CURVE SMOOTH",
"19 88 OFFCURVE",
"210 -43 OFFCURVE",
"369 -43 CURVE SMOOTH",
"433 -43 OFFCURVE",
"525 -22 OFFCURVE",
"596 60 CURVE"
);
},
{
closed = 1;
nodes = (
"304 313 LINE",
"483 271 LINE",
"483 486 LINE",
"363 568 LINE",
"304 599 LINE"
);
},
{
closed = 1;
nodes = (
"638 538 LINE",
"663 587 LINE",
"598 670 LINE",
"-40 670 LINE",
"-65 621 LINE",
"0 538 LINE"
);
}
);
width = 598;
}
);
leftKerningGroup = Da;
rightKerningGroup = Tta;
unicode = 091F;
},
{
glyphname = dvTtha;
lastChange = "2016-03-11 15:54:13 +0000";
layers = (
{
anchors = (
{
name = abvmBINDU;
position = "{390, 670}";
},
{
name = abvmCANDRABINDU;
position = "{370, 670}";
},
{
name = abvmCANDRABINDU2;
position = "{690, 670}";
},
{
name = abvmTOP;
position = "{393, 475}";
},
{
name = blwmBOTTOM;
position = "{300, -56}";
}
);
layerId = "E25E64E2-9639-43F9-BB85-44020EE7B81E";
name = Regular;
paths = (
{
closed = 1;
nodes = (
"395 303 LINE",
"432 277 OFFCURVE",
"458 237 OFFCURVE",
"458 199 CURVE SMOOTH",
"458 149 OFFCURVE",
"412 100 OFFCURVE",
"323 100 CURVE SMOOTH",
"285 100 OFFCURVE",
"249 109 OFFCURVE",
"222 127 CURVE",
"211 144 OFFCURVE",
"205 162 OFFCURVE",
"205 180 CURVE SMOOTH",
"205 226 OFFCURVE",
"241 266 OFFCURVE",
"317 266 CURVE SMOOTH",
"478 266 LINE",
"392 435 LINE",
"277 435 LINE SMOOTH",
"105 435 OFFCURVE",
"29 342 OFFCURVE",
"29 241 CURVE SMOOTH",
"29 91 OFFCURVE",
"198 -56 OFFCURVE",
"393 -56 CURVE SMOOTH",
"538 -56 OFFCURVE",
"628 26 OFFCURVE",
"628 137 CURVE SMOOTH",
"628 245 OFFCURVE",
"542 345 OFFCURVE",
"441 395 CURVE"
);
},
{
closed = 1;
nodes = (
"309 303 LINE",
"488 266 LINE",
"488 486 LINE",
"368 568 LINE",
"309 599 LINE"
);
},
{
closed = 1;
nodes = (
"700 538 LINE",
"725 587 LINE",
"660 670 LINE",
"-40 670 LINE",
"-65 621 LINE",
"0 538 LINE"
);
}
);
width = 660;
}
);
leftKerningGroup = Da;
rightKerningGroup = Tta;
unicode = 0920;
},
{
glyphname = dvDda;
lastChange = "2016-03-11 15:54:13 +0000";
layers = (
{
anchors = (
{
name = abvmBINDU;
position = "{440, 670}";
},
{
name = abvmCANDRABINDU;
position = "{420, 670}";
},
{
name = abvmCANDRABINDU2;
position = "{740, 670}";
},
{
name = abvmTOP;
position = "{458, 475}";
},
{
name = blwmBOTTOM;
position = "{250, -77}";
}
);
layerId = "E25E64E2-9639-43F9-BB85-44020EE7B81E";
name = Regular;
paths = (
{
closed = 1;
nodes = (
"4 179 LINE",
"117 12 OFFCURVE",
"246 -77 OFFCURVE",
"380 -77 CURVE SMOOTH",
"514 -77 OFFCURVE",
"599 11 OFFCURVE",
"599 111 CURVE SMOOTH",
"599 187 OFFCURVE",
"550 279 OFFCURVE",
"425 325 CURVE",
"239 287 LINE",
"223 299 OFFCURVE",
"219 310 OFFCURVE",
"219 319 CURVE SMOOTH",
"219 341 OFFCURVE",
"244 353 OFFCURVE",
"285 353 CURVE SMOOTH",
"543 353 LINE",
"444 502 LINE",
"255 502 LINE SMOOTH",
"123 502 OFFCURVE",
"62 444 OFFCURVE",
"62 368 CURVE SMOOTH",
"62 267 OFFCURVE",
"171 174 OFFCURVE",
"330 118 CURVE",
"475 163 LINE",
"462 103 OFFCURVE",
"387 79 OFFCURVE",
"330 79 CURVE SMOOTH",
"235 79 OFFCURVE",
"149 144 OFFCURVE",
"82 245 CURVE"
);
},
{
closed = 1;
nodes = (
"377 371 LINE",
"543 353 LINE",
"543 486 LINE",
"423 568 LINE",
"377 599 LINE"
);
},
{
closed = 1;
nodes = (
"670 538 LINE",
"695 587 LINE",
"630 670 LINE",
"-40 670 LINE",
"-65 621 LINE",
"0 538 LINE"
);
}
);
width = 630;
}
);
leftKerningGroup = Dda;
rightKerningGroup = Da;
unicode = 0921;
},
{
glyphname = dvDdha;
lastChange = "2016-03-11 15:54:13 +0000";
layers = (
{
anchors = (
{
name = abvmBINDU;
position = "{419, 670}";
},
{
name = abvmCANDRABINDU;
position = "{399, 670}";
},
{
name = abvmCANDRABINDU2;
position = "{689, 670}";
},
{
name = abvmTOP;
position = "{449, 475}";
},
{
name = blwmBOTTOM;
position = "{339, -89}";
}
);
layerId = "E25E64E2-9639-43F9-BB85-44020EE7B81E";
name = Regular;
paths = (
{
closed = 1;
nodes = (
"469 37 LINE",
"439 76 OFFCURVE",
"429 108 OFFCURVE",
"429 132 CURVE SMOOTH",
"429 164 OFFCURVE",
"448 181 OFFCURVE",
"465 181 CURVE SMOOTH",
"479 181 OFFCURVE",
"492 170 OFFCURVE",
"492 146 CURVE SMOOTH",
"492 92 OFFCURVE",
"426 60 OFFCURVE",
"353 60 CURVE SMOOTH",
"312 60 OFFCURVE",
"268 70 OFFCURVE",
"231 90 CURVE",
"208 116 OFFCURVE",
"198 148 OFFCURVE",
"198 178 CURVE SMOOTH",
"198 240 OFFCURVE",
"243 298 OFFCURVE",
"335 298 CURVE SMOOTH",
"534 298 LINE",
"448 465 LINE",
"285 465 LINE SMOOTH",
"96 465 OFFCURVE",
"24 350 OFFCURVE",
"24 245 CURVE SMOOTH",
"24 59 OFFCURVE",
"247 -88 OFFCURVE",
"411 -88 CURVE SMOOTH",
"537 -88 OFFCURVE",
"621 -2 OFFCURVE",
"621 87 CURVE SMOOTH",
"621 179 OFFCURVE",
"532 286 OFFCURVE",
"408 286 CURVE SMOOTH",
"333 286 OFFCURVE",
"271 247 OFFCURVE",
"271 173 CURVE SMOOTH",
"271 154 OFFCURVE",
"275 132 OFFCURVE",
"286 107 CURVE",
"429 13 LINE"
);
},
{
closed = 1;
nodes = (
"355 320 LINE",
"534 298 LINE",
"534 486 LINE",
"414 568 LINE",
"355 599 LINE"
);
},
{
closed = 1;
nodes = (
"689 538 LINE",
"714 587 LINE",
"649 670 LINE",
"-40 670 LINE",
"-65 621 LINE",
"0 538 LINE"
);
}
);
width = 649;
}
);
leftKerningGroup = Da;
rightKerningGroup = Tta;
unicode = 0922;
},
{
glyphname = dvNna;
lastChange = "2016-03-11 15:54:13 +0000";
layers = (
{
anchors = (
{
name = abvmBINDU;
position = "{613, 670}";
},
{
name = abvmCANDRABINDU;
position = "{593, 670}";
},
{
name = abvmCANDRABINDU2;
position = "{913, 670}";
},
{
name = abvmTOP;
position = "{608, 475}";
},
{
name = blwmBOTTOM;
position = "{503, 0}";
}
);
layerId = "E25E64E2-9639-43F9-BB85-44020EE7B81E";
name = Regular;
paths = (
{
closed = 1;
nodes = (
"823 538 LINE",
"848 587 LINE",
"783 670 LINE",
"-60 670 LINE",
"-85 621 LINE",
"-20 538 LINE"
);
},
{
closed = 1;
nodes = (
"527 23 LINE",
"659 -46 LINE",
"713 -19 LINE",
"713 486 LINE",
"593 568 LINE",
"527 599 LINE"
);
},
{
closed = 1;
nodes = (
"341 568 LINE",
"282 599 LINE",
"282 298 LINE SMOOTH",
"282 247 OFFCURVE",
"230 239 OFFCURVE",
"207 258 CURVE",
"207 486 LINE",
"97 568 LINE",
"31 599 LINE",
"31 373 LINE SMOOTH",
"31 245 OFFCURVE",
"178 114 OFFCURVE",
"309 114 CURVE SMOOTH",
"395 114 OFFCURVE",
"461 171 OFFCURVE",
"461 302 CURVE SMOOTH",
"461 486 LINE"
);
}
);
width = 783;
}
);
leftKerningGroup = Pa;
unicode = 0923;
},
{
glyphname = dvTa;
lastChange = "2016-03-11 15:54:13 +0000";
layers = (
{
anchors = (
{
name = abvmBINDU;
position = "{475, 670}";
},
{
name = abvmCANDRABINDU;
position = "{455, 670}";
},
{
name = abvmCANDRABINDU2;
position = "{775, 670}";
},
{
name = abvmTOP;
position = "{470, 475}";
},
{
name = blwmBOTTOM;
position = "{365, 0}";
}
);
layerId = "E25E64E2-9639-43F9-BB85-44020EE7B81E";
name = Regular;
paths = (
{
closed = 1;
nodes = (
"427 456 LINE",
"247 456 LINE SMOOTH",
"94 456 OFFCURVE",
"21 371 OFFCURVE",
"21 274 CURVE SMOOTH",
"21 170 OFFCURVE",
"105 65 OFFCURVE",
"224 -48 CURVE",
"322 35 LINE",
"247 110 OFFCURVE",
"206 158 OFFCURVE",
"206 206 CURVE SMOOTH",
"206 248 OFFCURVE",
"237 279 OFFCURVE",
"298 279 CURVE SMOOTH",
"438 279 LINE"
);
},
{
closed = 1;
nodes = (
"685 538 LINE",
"710 587 LINE",
"645 670 LINE",
"-40 670 LINE",
"-65 621 LINE",
"0 538 LINE"
);
},
{
closed = 1;
nodes = (
"389 23 LINE",
"521 -46 LINE",
"575 -19 LINE",
"575 486 LINE",
"455 568 LINE",
"389 599 LINE"
);
}
);
width = 645;
}
);
leftKerningGroup = La;
unicode = 0924;
},
